<?xml version="1.0" encoding="utf-8"?>
<!-- Generator: Adobe Illustrator 24.1.1, SVG Export Plug-In . SVG Version: 6.00 Build 0)  -->
<svg version="1.1" id="Layer_1" xmlns="http://www.w3.org/2000/svg" xmlns:xlink="http://www.w3.org/1999/xlink" x="0px" y="0px"
	 viewBox="0 0 3300 2200" style="enable-background:new 0 0 3300 2200;" xml:space="preserve">
<style type="text/css">
	.st0{fill:#FFFFFF;}
	.st1{fill:none;stroke:#000000;stroke-width:0.5;}
	.st2{font-family:'Arial-BoldMT';}
	.st3{font-size:13px;}
	.st4{font-family:'ArialMT';}
	.st5{fill:none;stroke:#00AEEF;stroke-width:0.5;}
	.st6{fill:#27AAE1;}
	.st7{fill:none;stroke:#27AAE1;stroke-width:0.5;}
</style>
<g id="Notes">
	<rect id="artboard" class="st0" width="3300" height="2200"/>
	<line class="st1" x1="263" y1="292" x2="3036" y2="292"/>
	<text transform="matrix(1 0 0 1 263 322)" class="st2 st3">Weight/Scale Variations</text>
	<text transform="matrix(1 0 0 1 534.0633 322)" class="st4 st3">Ultralight</text>
	<text transform="matrix(1 0 0 1 843.7775 322)" class="st4 st3">Thin</text>
	<text transform="matrix(1 0 0 1 1139.035 322)" class="st4 st3">Light</text>
	<text transform="matrix(1 0 0 1 1427.0773 322)" class="st4 st3">Regular</text>
	<text transform="matrix(1 0 0 1 1723.4419 322)" class="st4 st3">Medium</text>
	<text transform="matrix(1 0 0 1 2016.1719 322)" class="st4 st3">Semibold</text>
	<text transform="matrix(1 0 0 1 2326.9705 322)" class="st4 st3">Bold</text>
	<text transform="matrix(1 0 0 1 2618.2659 322)" class="st4 st3">Heavy</text>
	<text transform="matrix(1 0 0 1 2917.5054 322)" class="st4 st3">Black</text>
	<line class="st1" x1="263" y1="1903" x2="3036" y2="1903"/>
	<g transform="matrix(1 0 0 1 263 1933)">
		<path d="M9.2,0.8c1.1,0,2.1-0.2,3-0.6c1-0.4,1.8-1,2.5-1.7S16-3.1,16.4-4C16.8-5,17-6,17-7s-0.2-2.1-0.6-3c-0.4-1-1-1.8-1.7-2.5
			s-1.6-1.3-2.5-1.7c-1-0.4-2-0.6-3-0.6c-1.1,0-2.1,0.2-3,0.6s-1.8,1-2.5,1.7C3-11.9,2.4-11,2-10.1c-0.4,1-0.6,2-0.6,3S1.6-5,2-4
			s1,1.8,1.7,2.5s1.6,1.3,2.5,1.7C7.2,0.6,8.2,0.8,9.2,0.8z M9.2-0.7c-0.9,0-1.7-0.2-2.5-0.5C6-1.5,5.3-1.9,4.7-2.5s-1-1.3-1.4-2
			C3-5.3,2.9-6.2,2.9-7.1s0.2-1.7,0.5-2.5s0.8-1.5,1.4-2c0.6-0.6,1.3-1,2-1.4c0.8-0.3,1.6-0.5,2.5-0.5s1.7,0.2,2.5,0.5
			s1.5,0.8,2,1.4c0.6,0.6,1,1.3,1.4,2c0.3,0.8,0.5,1.6,0.5,2.5s-0.2,1.7-0.5,2.5s-0.8,1.5-1.4,2c-0.6,0.6-1.3,1-2,1.4
			C11-0.8,10.1-0.7,9.2-0.7z M5.7-7.1c0,0.2,0.1,0.4,0.2,0.5C6-6.4,6.2-6.3,6.4-6.3h2.1v2.1c0,0.2,0.1,0.4,0.2,0.5
			C8.8-3.5,9-3.5,9.2-3.5s0.4-0.1,0.5-0.2C9.9-3.8,10-4,10-4.2v-2.1h2.1c0.2,0,0.4-0.1,0.5-0.2s0.2-0.3,0.2-0.5s-0.1-0.4-0.2-0.5
			c-0.1-0.1-0.3-0.2-0.5-0.2H10v-2.1c0-0.2-0.1-0.4-0.2-0.5c-0.1-0.1-0.3-0.2-0.5-0.2s-0.4,0.1-0.5,0.2C8.7-10.2,8.6-10,8.6-9.8v2.1
			H6.4C6.2-7.8,6-7.7,5.9-7.6C5.7-7.5,5.7-7.3,5.7-7.1z"/>
	</g>
	<g transform="matrix(1 0 0 1 281.867 1933)">
		<path d="M11.7,2.9c1.4,0,2.6-0.3,3.8-0.8s2.3-1.2,3.2-2.2c0.9-0.9,1.6-2,2.2-3.2c0.5-1.2,0.8-2.5,0.8-3.8c0-1.4-0.3-2.6-0.8-3.8
			s-1.2-2.3-2.2-3.2c-0.9-0.9-2-1.6-3.2-2.2c-1.2-0.5-2.5-0.8-3.8-0.8s-2.6,0.3-3.8,0.8s-2.3,1.2-3.2,2.2c-0.9,0.9-1.6,2-2.2,3.2
			C2-9.7,1.7-8.4,1.7-7.1c0,1.4,0.3,2.6,0.8,3.8S3.8-0.9,4.7,0s2,1.6,3.2,2.2S10.3,2.9,11.7,2.9z M11.7,1.3c-1.2,0-2.2-0.2-3.2-0.6
			s-1.9-1-2.6-1.8C5.1-1.9,4.5-2.8,4.1-3.8S3.4-5.9,3.4-7.1S3.6-9.3,4-10.3s1-1.9,1.8-2.6c0.8-0.8,1.6-1.4,2.6-1.8
			c1-0.4,2.1-0.6,3.2-0.6s2.2,0.2,3.2,0.6c1,0.4,1.9,1,2.6,1.8c0.8,0.8,1.4,1.6,1.8,2.6s0.6,2.1,0.6,3.2c0,1.2-0.2,2.2-0.6,3.2
			s-1,1.9-1.8,2.6c-0.8,0.8-1.6,1.4-2.6,1.8S12.9,1.3,11.7,1.3z M7.2-7.1c0,0.2,0.1,0.4,0.2,0.6C7.6-6.3,7.8-6.3,8-6.3h2.9v2.9
			c0,0.2,0.1,0.4,0.2,0.6c0.1,0.2,0.3,0.2,0.6,0.2c0.2,0,0.4-0.1,0.6-0.2c0.2-0.2,0.2-0.4,0.2-0.6v-2.9h2.9c0.2,0,0.4-0.1,0.6-0.2
			s0.2-0.3,0.2-0.6c0-0.2-0.1-0.4-0.2-0.6c-0.2-0.2-0.4-0.2-0.6-0.2h-2.9v-2.9c0-0.3-0.1-0.5-0.2-0.6s-0.4-0.2-0.6-0.2
			c-0.2,0-0.4,0.1-0.6,0.2c-0.1,0.2-0.2,0.4-0.2,0.6v2.9H8c-0.3,0-0.5,0.1-0.6,0.2C7.3-7.5,7.2-7.3,7.2-7.1z"/>
	</g>
	<g transform="matrix(1 0 0 1 305.646 1933)">
		<path d="M15,5.7c1.4,0,2.7-0.2,4-0.6s2.4-1,3.5-1.8s2-1.7,2.8-2.8C26-0.6,26.6-1.8,27-3.1s0.6-2.6,0.6-4s-0.2-2.7-0.6-4
			s-1-2.4-1.8-3.5s-1.7-2-2.8-2.8c-1.1-0.8-2.2-1.4-3.5-1.8s-2.6-0.6-4-0.6s-2.7,0.2-4,0.6s-2.4,1-3.5,1.8s-2,1.7-2.8,2.8
			s-1.4,2.2-1.8,3.5s-0.6,2.6-0.6,4s0.2,2.7,0.6,4s1,2.4,1.8,3.5s1.7,2,2.8,2.8C8.6,4,9.7,4.6,11,5C12.2,5.4,13.6,5.7,15,5.7z
			 M15,3.8c-1.2,0-2.4-0.2-3.4-0.6c-1.1-0.4-2.1-0.9-3-1.5c-1-0.6-1.8-1.4-2.4-2.3C5.5-1.5,5-2.5,4.6-3.6C4.3-4.7,4.1-5.8,4.1-7.1
			c0-1.2,0.2-2.4,0.5-3.5c0.4-1.1,0.9-2.1,1.5-3c0.7-0.9,1.4-1.7,2.4-2.4c0.9-0.7,1.9-1.2,3-1.5c1.1-0.4,2.2-0.5,3.4-0.5
			s2.4,0.2,3.5,0.5c1.1,0.4,2.1,0.9,3,1.5c0.9,0.7,1.7,1.5,2.4,2.4c0.7,0.9,1.2,1.9,1.5,3c0.4,1.1,0.6,2.2,0.6,3.5
			c0,1.2-0.2,2.4-0.5,3.4c-0.4,1.1-0.9,2.1-1.5,3c-0.7,0.9-1.5,1.7-2.4,2.4s-1.9,1.2-3,1.5C17.3,3.7,16.2,3.8,15,3.8z M9.2-7.1
			c0,0.3,0.1,0.5,0.3,0.6c0.2,0.2,0.4,0.2,0.7,0.2h3.9v4c0,0.3,0.1,0.5,0.2,0.7c0.2,0.2,0.4,0.3,0.6,0.3c0.3,0,0.5-0.1,0.7-0.3
			s0.3-0.4,0.3-0.7v-4h4c0.3,0,0.5-0.1,0.7-0.2c0.2-0.2,0.3-0.4,0.3-0.6c0-0.3-0.1-0.5-0.3-0.7C20.3-7.9,20.1-8,19.8-8h-4v-3.9
			c0-0.3-0.1-0.5-0.3-0.7s-0.4-0.3-0.7-0.3s-0.5,0.1-0.6,0.3C14-12.4,14-12.2,14-11.9V-8h-3.9C9.8-8,9.6-7.9,9.5-7.7
			C9.3-7.5,9.2-7.3,9.2-7.1z"/>
	</g>
	<text transform="matrix(1 0 0 1 263 1953)" class="st2 st3">Design Variations</text>
	<text transform="matrix(1 0 0 1 263 1971)" class="st4 st3">Symbols are supported in up to nine weights and three scales.</text>
	<text transform="matrix(1 0 0 1 263 1989)" class="st4 st3">For optimal layout with text and other symbols, vertically align</text>
	<text transform="matrix(1 0 0 1 263 2007)" class="st4 st3">symbols with the adjacent text.</text>
	<line class="st5" x1="776" y1="1919" x2="776" y2="1933"/>
	<g transform="matrix(1 0 0 1 776 1933)">
		<path d="M3.3,0.2c0.3,0,0.5-0.1,0.6-0.2C4-0.1,4.2-0.3,4.3-0.6L5.5-4h5.8l1.3,3.4C12.7-0.3,12.8-0.1,13,0c0.1,0.1,0.3,0.2,0.6,0.2
			s0.5-0.1,0.6-0.2c0.2-0.1,0.2-0.3,0.2-0.6c0-0.1,0-0.3-0.1-0.5L9.7-13.4c-0.1-0.3-0.3-0.5-0.5-0.7c-0.2-0.1-0.5-0.2-0.8-0.2
			c-0.6,0-1,0.3-1.2,0.9L2.6-1.2C2.5-1,2.5-0.8,2.5-0.6S2.6-0.2,2.7,0S3.1,0.2,3.3,0.2z M6-5.5l2.4-6.6l0,0l2.4,6.6
			C10.8-5.5,6-5.5,6-5.5z"/>
	</g>
	<line class="st5" x1="793.2" y1="1919" x2="793.2" y2="1933"/>
	<text transform="matrix(1 0 0 1 776 1953)" class="st2 st3">Margins</text>
	<text transform="matrix(1 0 0 1 776 1971)" class="st4 st3">Leading and trailing margins on the left and right side of each symbol</text>
	<text transform="matrix(1 0 0 1 776 1989)" class="st4 st3">can be adjusted by modifying the x-location of the margin guidelines.</text>
	<text transform="matrix(1 0 0 1 776 2007)" class="st4 st3">Modifications are automatically applied proportionally to all</text>
	<text transform="matrix(1 0 0 1 776 2025)" class="st4 st3">scales and weights.</text>
	<g transform="matrix(1 0 0 1 1289 1933)">
		<path d="M2.8,1.9l1.7,1.7C5,4,5.4,4.2,5.9,4.2s0.9-0.3,1.4-0.8L18-8.4l-1-1L6.4,2.3C6.3,2.5,6.1,2.6,5.9,2.6S5.5,2.5,5.3,2.3
			L4.1,1.1C3.9,0.9,3.8,0.7,3.8,0.5S3.9,0.1,4.1,0l11.5-10.8l-1-1L3-0.9C2.6-0.4,2.3,0,2.3,0.5C2.2,1,2.4,1.4,2.8,1.9z M9.3-16.3
			c-0.2,0.2-0.3,0.4-0.4,0.7c0,0.3,0,0.5,0.1,0.7s0.3,0.3,0.5,0.4c0.2,0.1,0.5,0.1,0.8,0c0.7-0.2,1.5-0.2,2.2-0.2s1.5,0.3,2.2,0.7
			l-0.6,1.5c-0.2,0.4-0.2,0.8-0.1,1.1c0.1,0.3,0.2,0.6,0.5,0.9l2.3,2.3C17-8,17.3-7.8,17.5-7.8s0.5,0,0.8,0L19.4-8l0.7,0.7v0.6
			c0,0.2,0,0.5,0.1,0.7s0.2,0.4,0.5,0.7l0.8,0.7c0.2,0.2,0.5,0.4,0.8,0.4s0.5-0.1,0.8-0.3L26-7.4c0.2-0.2,0.3-0.5,0.3-0.8
			c0-0.3-0.1-0.5-0.4-0.8L25-9.9c-0.2-0.2-0.5-0.4-0.7-0.5s-0.4-0.1-0.7-0.1H23l-0.6-0.6l0.2-1.1c0.1-0.3,0.1-0.5,0-0.8
			s-0.3-0.5-0.6-0.8L19.9-16c-0.8-0.8-1.7-1.4-2.7-1.9c-0.9-0.4-1.9-0.6-2.8-0.6c-1,0-1.9,0.2-2.8,0.5C10.8-17.6,10-17.1,9.3-16.3z
			 M10.8-16c0.6-0.4,1.3-0.8,1.9-0.9c0.7-0.2,1.4-0.2,2.1-0.2c0.7,0.1,1.4,0.3,2.1,0.6c0.7,0.3,1.3,0.7,1.8,1.3l2.4,2.4
			c0.1,0.1,0.2,0.2,0.2,0.3s0,0.3,0,0.4L21-10.5L22.5-9l1-0.1c0.1,0,0.2,0,0.3,0c0.1,0,0.1,0.1,0.2,0.2l0.6,0.6l-2.4,2.4l-0.6-0.6
			c-0.1-0.1-0.2-0.2-0.2-0.2c0-0.1,0-0.2,0-0.3l0.1-1L20-9.5l-1.5,0.3c-0.2,0-0.3,0-0.4,0s-0.2-0.1-0.3-0.2l-2-2
			c-0.1-0.1-0.2-0.2-0.2-0.3s0-0.3,0.1-0.4l0.9-2.1c-0.8-0.7-1.7-1.2-2.6-1.5c-1-0.3-2-0.3-3,0c-0.1,0-0.1,0-0.2,0
			C10.7-15.9,10.7-15.9,10.8-16z"/>
	</g>
	<text transform="matrix(1 0 0 1 1289 1953)" class="st2 st3">Exporting</text>
	<text transform="matrix(1 0 0 1 1289 1971)" class="st4 st3">Symbols should be outlined when exporting to ensure the</text>
	<text transform="matrix(1 0 0 1 1289 1989)" class="st4 st3">design is preserved when submitting to Xcode.</text>
	<text id="template-version" transform="matrix(1 0 0 1 2952.4204 1933)" class="st4 st3">Template v.3.0</text>
	<text transform="matrix(1 0 0 1 2865.4575 1951)" class="st4 st3">Requires Xcode 13 or greater</text>
	<text id="descriptive-name" transform="matrix(1 0 0 1 2910.9956 1969)" class="st4 st3">Generated from swap</text>
	<text transform="matrix(1 0 0 1 2912.4175 1987)" class="st4 st3">Typeset at 100 points</text>
	<text transform="matrix(1 0 0 1 263 726)" class="st4 st3">Small</text>
	<text transform="matrix(1 0 0 1 263 1156)" class="st4 st3">Medium</text>
	<text transform="matrix(1 0 0 1 263 1586)" class="st4 st3">Large</text>
</g>
<g id="Guides">
	<g id="H-reference" transform="matrix(1 0 0 1 339 696)">
		<path class="st6" d="M1,0h2.6l25.7-67.1H30v-3.3h-1.9L1,0z M11.7-24.5H47l-0.8-2.2H12.4L11.7-24.5z M55.1,0h2.6L30.6-70.5h-1.2
			v3.3L55.1,0z"/>
	</g>
	<line id="Baseline-S" class="st7" x1="263" y1="696" x2="3036" y2="696"/>
	<line id="Capline-S" class="st7" x1="263" y1="625.5" x2="3036" y2="625.5"/>
	<g id="H-reference_1_" transform="matrix(1 0 0 1 339 1126)">
		<path class="st6" d="M1,0h2.6l25.7-67.1H30v-3.3h-1.9L1,0z M11.7-24.5H47l-0.8-2.2H12.4L11.7-24.5z M55.1,0h2.6L30.6-70.5h-1.2
			v3.3L55.1,0z"/>
	</g>
	<line id="Baseline-M" class="st7" x1="263" y1="1126" x2="3036" y2="1126"/>
	<line id="Capline-M" class="st7" x1="263" y1="1055.5" x2="3036" y2="1055.5"/>
	<g id="H-reference_2_" transform="matrix(1 0 0 1 339 1556)">
		<path class="st6" d="M1,0h2.6l25.7-67.1H30v-3.3h-1.9L1,0z M11.7-24.5H47l-0.8-2.2H12.4L11.7-24.5z M55.1,0h2.6L30.6-70.5h-1.2
			v3.3L55.1,0z"/>
	</g>
	<line id="Baseline-L" class="st7" x1="263" y1="1556" x2="3036" y2="1556"/>
	<line id="Capline-L" class="st7" x1="263" y1="1485.5" x2="3036" y2="1485.5"/>
	<line id="left-margin-Regular-M" class="st5" x1="1391.3" y1="1030.8" x2="1391.3" y2="1150.1"/>
	<line id="right-margin-Regular-M" class="st5" x1="1508.4" y1="1030.8" x2="1508.4" y2="1150.1"/>
</g>
<g id="Symbols">
	<g id="Black-L" transform="matrix(1 0 0 1 2854.19 1556)">
		<path d="M61.1,28.6c-4.1,0.1-7.6-3.1-7.7-7.2s3.1-7.6,7.2-7.7c4.1-0.1,7.6,3.1,7.7,7.2S65.3,28.5,61.1,28.6z M104-92.5
			c-0.1-4.1-3.6-7.3-7.7-7.2c-4.1,0.1-7.3,3.6-7.2,7.7c0.1,4.1,3.6,7.3,7.7,7.2C101-84.9,104.2-88.3,104-92.5z M78.2-1.3
			c6.5-0.5,11.9-3,16.2-6.3C96-5.7,97-4.5,97.2-4.2c2.5,3,7,3.3,10,0.8s3.3-7,0.8-10c-0.1-0.1-1.6-1.8-3.9-4.6
			c2.9-4.4,4.3-8,4.5-8.4c1.4-3.7-0.4-7.7-4.1-9.1c-3.6-1.4-7.7,0.4-9.2,4.1c0,0-0.3,0.8-0.9,2c-2.9-3.4-5.9-6.9-8.7-10.2
			c0.8-0.6,1.6-1.2,2.5-1.9c7.3-5.6,10.1-13.3,7.7-20.4s-9.5-11.7-18.1-11.7c-8.2,0-14.9,3.8-17.9,10.1c-2.8,6-1.8,13.1,2.7,18.5
			c0.6,0.7,1.3,1.6,2.2,2.6c-3.9,3-7.4,6.3-10.2,11.1c-3.6,6.2-3.5,13.9,0.4,20C59.1-4.8,66.5-1.2,75.5-1.2
			C76.4-1.2,77.3-1.2,78.2-1.3z M85.2-18.4c-2.3,1.6-5,2.7-8,2.9c-4.8,0.4-8.5-0.9-10.2-3.5c-1-1.6-1.1-3.6-0.1-5.3
			c1.7-3,4-5.1,7.1-7.3C77.6-27.3,81.5-22.6,85.2-18.4z M82.3-57.4c0.3,0.9-0.5,2.7-3,4.6c-1,0.8-2,1.5-2.9,2.2
			c-1.3-1.5-2.3-2.7-3-3.6c-0.9-1.1-1.2-2.5-0.8-3.4c0.6-1.2,2.4-1.9,5-1.9C80.2-59.5,82-58.4,82.3-57.4z M42.5,1.8
			C38-2.7,34.3-7.9,31.6-13.8C19-41.2,32.7-74.1,61-84.6c3.9-1.5,7.9-2.4,12-2.9c3.5-0.4,6.1-3.3,6.2-6.8c0-0.2,0-0.4,0-0.5
			c0-4.1-3.6-7.3-7.6-6.8c-8,0.9-15.8,3.3-22.9,7C16-77.8,3.2-37.5,20.1-5c3.2,6.3,7.4,12,12.4,16.9L42.5,1.8z M118.8-71.3
			c4.1,4.8,8.3,12.2,10.5,18.3C139.5-24.6,123,7,94,15.1c-4,1.1-8.1,1.7-12.2,1.9c-3.5,0.1-6.4,2.7-6.7,6.2c0,0.2,0,0.4,0,0.5
			c-0.4,4.1,2.9,7.5,7,7.4c8-0.2,16-1.9,23.4-5c33.9-14,50.1-53,36.1-86.9c-2.7-6.5-7.4-14.4-11.9-19.7L118.8-71.3z M49.2-12.7
			c0.1-3.9-3-7.2-6.9-7.3l0,0c-3.9-0.1-7.2,3-7.3,6.9L34.6,2.2L16,1c-3.9-0.3-7.3,2.7-7.6,6.6l0,0c-0.3,3.9,2.7,7.3,6.6,7.6
			l33.3,2.2L49.2-12.7z M122.8-57.2l1.8-14.8l17.2,2.7c3.9,0.6,7.5-2,8.1-5.9l0,0c0.6-3.9-2-7.5-5.9-8.1l-31.7-5.1L108.7-59
			c-0.5,3.9,2.3,7.4,6.2,7.9l0,0C118.8-50.5,122.4-53.3,122.8-57.2z"/>
	</g>
	<g id="Heavy-L" transform="matrix(1 0 0 1 2558.42 1556)">
		<path d="M62.3,27.8c-3.7,0.1-6.8-2.9-6.9-6.6s2.9-6.8,6.6-6.9c3.7-0.1,6.8,2.9,6.9,6.6C69,24.6,66,27.7,62.3,27.8z M104.6-92
			c-0.1-3.7-3.2-6.7-6.9-6.6c-3.7,0.1-6.7,3.2-6.6,6.9c0.1,3.7,3.2,6.7,6.9,6.6C101.7-85.2,104.7-88.3,104.6-92z M77.2-1.8
			c6.7-0.5,12.1-3.1,16.4-6.5c1.8,2.1,3,3.5,3.2,3.8c2.3,2.7,6.4,3,9.1,0.7s3-6.4,0.7-9.1c-0.1-0.1-1.7-2-4.3-5
			c3-4.5,4.5-8.3,4.7-8.7c1.3-3.3-0.4-7-3.7-8.3c-3.3-1.3-7,0.4-8.3,3.7c0,0-0.5,1.2-1.4,2.9C90.4-32,87-36,83.8-39.8
			c1-0.7,2-1.5,3-2.2c7-5.5,9.8-12.8,7.5-19.7C92-68.5,85.1-73,76.8-73c-8,0-14.4,3.6-17.3,9.7c-2.7,5.8-1.7,12.6,2.6,17.8
			c0.6,0.8,1.5,1.8,2.6,3.1C60.6-39.4,57-36,54.1-31c-3.4,6-3.3,13.4,0.4,19.3c4,6.3,11.2,9.8,20,9.8C75.4-1.7,76.3-1.7,77.2-1.8z
			 M85.1-18.1c-2.5,1.8-5.5,3.2-8.9,3.5c-5.1,0.4-9-1-10.7-3.8c-1.2-1.8-1.2-4.1-0.1-6c1.8-3.2,4.4-5.5,7.7-7.9
			C76.9-27.7,81.3-22.7,85.1-18.1z M82-57.4c0.5,1.4-0.7,3.4-3.2,5.3c-1.2,0.9-2.3,1.8-3.5,2.6c-1.4-1.7-2.6-3.1-3.4-4
			c-1.1-1.3-1.4-2.9-0.9-4.1c0.7-1.5,2.7-2.3,5.6-2.3C79.7-60,81.5-58.7,82-57.4z M85.3,30.1c8-0.9,15.9-3.3,23.1-7
			c32.3-16.7,44.9-56.5,28.2-88.8c-3.2-6.1-7.2-11.7-12.1-16.5l-9.1,9.2c3.9,3.9,7.2,8.3,9.7,13.3c13.4,25.9,3.2,58-22.7,71.4
			c-5.9,3.1-12.1,4.9-18.6,5.6c-3.2,0.3-5.7,3-5.7,6.3c0,0.1,0,0.1,0,0.2C78.2,27.6,81.6,30.5,85.3,30.1z M72.4-100.7
			c-8.1,0.6-16,2.8-23.3,6.3C16.4-78.7,2.5-39.3,18.2-6.6c3,6.2,6.9,11.9,11.6,16.8l9.4-8.9c-3.8-4-6.9-8.5-9.3-13.5
			c-12.6-26.3-1.5-58,24.8-70.7c6-2.9,12.3-4.6,18.8-5.1c3.3-0.3,5.8-2.9,5.9-6.1c0-0.1,0-0.1,0-0.2C79.5-98,76.2-101,72.4-100.7z
			 M47.6-12.6c0.1-3.6-2.7-6.5-6.3-6.6l0,0c-3.6-0.1-6.5,2.7-6.6,6.3l-0.5,16L14.9,1.8c-3.6-0.2-6.6,2.4-6.9,6l0,0
			c-0.2,3.6,2.4,6.6,6,6.9l32.7,2.2L47.6-12.6z M121.2-57.1l1.9-15.6l17.9,2.9c3.5,0.6,6.8-1.8,7.4-5.4l0,0c0.6-3.5-1.8-6.8-5.4-7.4
			l-31.2-5l-3.5,28.9c-0.4,3.5,2.1,6.8,5.6,7.2l0,0C117.5-51,120.7-53.5,121.2-57.1z"/>
	</g>
	<g id="Bold-L" transform="matrix(1 0 0 1 2262.89 1556)">
		<path d="M59.3,27.6c-3.4,0.1-6.3-2.5-6.4-5.9c-0.1-3.4,2.5-6.3,5.9-6.4s6.3,2.5,6.4,5.9S62.7,27.5,59.3,27.6z M102.1-92.3
			c-0.1-3.4-3-6.1-6.4-5.9c-3.4,0.1-6.1,3-5.9,6.4c0.1,3.4,3,6.1,6.4,5.9C99.6-86,102.2-88.9,102.1-92.3z M75.9-2.4
			c6.8-0.5,12.2-3.3,16.5-6.7c2,2.4,3.4,4,3.6,4.3c2.1,2.4,5.7,2.7,8.2,0.6c2.4-2.1,2.7-5.7,0.6-8.2c-0.1-0.1-1.8-2.2-4.6-5.4
			c3.2-4.6,4.7-8.6,4.9-8.9c1.1-3-0.4-6.3-3.4-7.5c-3-1.1-6.3,0.4-7.5,3.3c0,0-0.7,1.6-1.9,3.8c-3.5-4.1-7.3-8.6-10.8-12.7
			c1.1-0.8,2.3-1.7,3.5-2.6c6.8-5.3,9.5-12.4,7.2-19s-8.9-10.8-16.9-10.8c-7.7,0-14,3.5-16.7,9.3C56-57.3,57-50.8,61.1-45.8
			c0.7,0.9,1.8,2.1,3.1,3.7c-4.3,3.1-8,6.5-10.9,11.6c-3.3,5.8-3.2,13,0.4,18.6c3.9,6.1,10.9,9.5,19.5,9.5C74.2-2.3,75-2.3,75.9-2.4
			z M84.9-18c-2.7,2.1-6,3.7-9.8,4c-5.3,0.4-9.4-1.1-11.3-4.1c-1.3-2.1-1.4-4.5-0.1-6.7c2-3.5,4.8-5.9,8.4-8.5
			C76.1-28.2,80.7-22.8,84.9-18z M81.4-57.6c0.6,1.7-0.7,3.9-3.4,6c-1.4,1.1-2.7,2-4,2.9c-1.6-1.9-2.9-3.5-3.8-4.5
			c-1.2-1.5-1.6-3.4-1-4.8c0.8-1.7,3-2.7,6.2-2.7C78.8-60.5,80.9-59,81.4-57.6z M39.4,2.9c-4-4-7.4-8.5-10-13.6
			C15.8-37,26.1-69.4,52.4-83c6.2-3.2,12.7-5.1,19.5-5.8c2.9-0.3,5.2-2.7,5.2-5.7c0-0.1,0-0.1,0-0.2c0-3.4-2.9-6-6.2-5.7
			c-8.2,0.8-16.3,3.2-23.7,7c-31.9,16.5-44.5,56-28,87.9C22.4,0.7,26.5,6.2,31.4,11L39.4,2.9z M83.2,29.6c8.2-0.8,16.3-3.2,23.7-7
			c31.9-16.5,44.5-56,28-87.9c-3.1-6.1-7.2-11.5-12-16.3l-8.2,8.2c3.9,3.9,7.2,8.4,9.8,13.4c13.6,26.3,3.3,58.7-23,72.3
			c-6.2,3.2-12.7,5.1-19.5,5.8c-2.9,0.3-5.2,2.7-5.2,5.7c0,0.1,0,0.1,0,0.2C77,27.3,79.9,30,83.2,29.6z M44.6-12
			c0.1-3.2-2.4-5.9-5.6-6l0,0c-3.2-0.1-5.9,2.4-6,5.6L32.6,3.2L14.8,2c-3.2-0.2-6,2.2-6.2,5.4l0,0c-0.2,3.2,2.2,6,5.4,6.2l29.9,2.1
			L44.6-12z M120.4-57.7l1.8-15l16.7,2.7c3.2,0.5,6.1-1.6,6.7-4.8l0,0c0.5-3.2-1.6-6.1-4.8-6.7l-28.6-4.7L108.9-59
			c-0.4,3.2,1.9,6.1,5.1,6.5l0,0C117.1-52.2,120-54.5,120.4-57.7z"/>
	</g>
	<g id="Semibold-L" transform="matrix(1 0 0 1 1966.99 1556)">
		<path d="M57.6,26.2c-3,0-5.5-2.4-5.5-5.5s2.4-5.5,5.5-5.5s5.5,2.4,5.5,5.5S60.6,26.2,57.6,26.2z M102.3-91.4c0-3-2.5-5.5-5.5-5.5
			s-5.5,2.5-5.5,5.5s2.5,5.5,5.5,5.5S102.3-88.4,102.3-91.4z M74.9-3c6.9-0.5,12.4-3.4,16.6-7c2.4,2.8,4,4.7,4,4.7
			c1.9,2.2,5.1,2.4,7.3,0.6c2.2-1.9,2.4-5.1,0.6-7.3c-0.1-0.1-2-2.3-4.9-5.7c3.3-4.7,4.9-8.8,5.1-9.2c1-2.7-0.3-5.6-3-6.6
			s-5.6,0.3-6.7,3c0,0.1-0.8,2.1-2.4,4.7c-3.8-4.5-8.1-9.4-11.9-13.9c1.3-0.9,2.7-1.9,4.1-3c6.6-5.1,9.2-11.9,7-18.2
			s-8.5-10.4-16.3-10.4c-7.6,0-13.4,3.3-16.1,9c-2.5,5.3-1.6,11.6,2.5,16.5c0.8,1,2,2.4,3.5,4.2C59.8-38.4,56-35,53-29.8
			c-3.2,5.6-3.1,12.5,0.4,18c3.8,6,10.6,9.2,18.9,9.2C73.2-2.9,74.1-2.9,74.9-3z M84.8-17.9c-2.9,2.4-6.4,4.3-10.7,4.6
			c-5.6,0.4-9.9-1.2-11.9-4.4c-1.4-2.3-1.5-5-0.2-7.3c2.1-3.7,5.1-6.2,9.1-9C75.5-28.8,80.5-22.9,84.8-17.9z M81-57.8
			c0.7,2-0.7,4.5-3.6,6.8c-1.5,1.2-3,2.3-4.5,3.3c-1.8-2.1-3.2-3.8-4.2-4.9c-1.4-1.7-1.8-3.8-1-5.5c0.9-1.9,3.4-3,6.8-3
			C78.2-61.2,80.4-59.5,81-57.8z M38,3.4c-4.1-4-7.5-8.6-10.1-13.8C14.1-37,24.6-69.8,51.2-83.5c6.4-3.3,13.2-5.3,20.3-5.9
			c2.6-0.2,4.6-2.4,4.6-5c0-0.1,0-0.1,0-0.2c0-3-2.5-5.3-5.5-5.1c-8.4,0.7-16.6,3.1-24.1,7c-31.6,16.4-44,55.4-27.7,87
			c3,6.2,7.1,11.7,11.9,16.5L38,3.4z M81.6,29.1c8.4-0.7,16.6-3.1,24.1-7c31.6-16.4,44-55.4,27.7-87c-3.1-6-7.1-11.4-11.8-16.2
			l-7.3,7.3c4,4,7.3,8.5,9.9,13.6C138-33.7,127.6-0.9,101,12.9c-6.4,3.3-13.2,5.3-20.3,5.9c-2.6,0.2-4.6,2.4-4.6,5
			c0,0.1,0,0.1,0,0.2C76.1,27,78.6,29.3,81.6,29.1z M42.9-11.9c0.1-2.8-2.2-5.2-5-5.3l0,0c-2.8-0.1-5.2,2.2-5.3,5l-0.4,16L13.9,2.5
			c-2.8-0.2-5.3,1.9-5.5,4.8l0,0c-0.2,2.8,1.9,5.3,4.8,5.5l29,2L42.9-11.9z M118.6-57.7l1.9-15.9l17.6,2.9c2.8,0.5,5.5-1.4,5.9-4.3
			l0,0c0.5-2.8-1.4-5.5-4.3-5.9l-28.2-4.6l-3.2,26.6c-0.3,2.8,1.7,5.4,4.5,5.7l0,0C115.7-52.8,118.3-54.8,118.6-57.7z"/>
	</g>
	<g id="Medium-L" transform="matrix(1 0 0 1 1670.9 1556)">
		<path d="M95.1-86.6c-2.7,0-4.8-2.2-4.8-4.8c0-2.7,2.2-4.8,4.8-4.8s4.8,2.2,4.8,4.8C99.9-88.8,97.8-86.6,95.1-86.6z M61.6,20.6
			c0-2.7-2.2-4.8-4.8-4.8c-2.7,0-4.8,2.2-4.8,4.8s2.2,4.8,4.8,4.8C59.5,25.4,61.6,23.2,61.6,20.6z M74.3-3.7
			c7-0.5,12.5-3.6,16.7-7.3c2.7,3.1,4.4,5.1,4.5,5.2c1.6,1.9,4.5,2.1,6.4,0.5s2.1-4.5,0.5-6.4c-0.1-0.1-2.1-2.5-5.2-6.1
			c3.5-4.8,5.1-9.1,5.3-9.5c0.9-2.3-0.3-4.9-2.6-5.8c-2.3-0.9-4.9,0.3-5.8,2.6c0,0.1-1,2.5-2.9,5.6c-4.1-4.8-8.8-10.3-12.9-15.1
			c1.5-1,3-2.2,4.6-3.4c6.3-4.9,8.9-11.5,6.8-17.5s-8.2-9.9-15.7-9.9c-7.3,0-13,3.1-15.5,8.6C56.1-57.1,57-51,60.9-46.4
			c0.9,1.1,2.3,2.7,4,4.7c-4.6,3.3-8.7,6.7-11.7,12c-3.1,5.4-2.9,12,0.4,17.3C57-6.8,63.7-3.6,71.8-3.6C72.6-3.6,73.4-3.7,74.3-3.7z
			 M85.1-17.9c-3,2.7-6.9,4.8-11.5,5.2C67.8-12.3,63.2-14,61-17.4c-1.6-2.5-1.6-5.4-0.2-8c2.3-4,5.5-6.6,9.7-9.5
			C75.2-29.5,80.6-23.2,85.1-17.9z M81-58.1c0.8,2.3-0.6,5-3.8,7.5c-1.7,1.3-3.4,2.5-5,3.6c-2-2.3-3.6-4.2-4.5-5.4
			c-1.6-1.9-2-4.3-1.1-6.2c1-2.2,3.7-3.4,7.4-3.4C77.4-61.9,80.2-60.4,81-58.1z M36.9,3.8c-4.1-4.1-7.6-8.8-10.2-14
			c-13.9-26.9-3.4-60.1,23.5-74c6.6-3.4,13.7-5.4,21-6c2.3-0.2,4.2-2.1,4.2-4.4v-0.1c0-2.6-2.2-4.6-4.8-4.4c-8.5,0.7-16.9,3-24.5,7
			C14.7-76,2.4-37.3,18.6-6c3.1,6,7.1,11.5,11.9,16.2L36.9,3.8z M113.9-74.4c4.1,4.1,7.6,8.7,10.3,13.9c13.9,26.9,3.4,60.1-23.5,74
			C94,17,87,19,79.6,19.6c-2.3,0.2-4.2,2.1-4.2,4.4v0.1c0,2.6,2.2,4.6,4.8,4.4c8.5-0.7,16.9-3,24.5-7c31.3-16.2,43.6-54.9,27.4-86.2
			c-3.1-6-7.1-11.5-11.9-16.2L113.9-74.4z M41.6-12c0.1-2.5-1.9-4.6-4.4-4.6l0,0c-2.5-0.1-4.6,1.9-4.6,4.4L32.2,4.4L13.3,3.1
			c-2.5-0.2-4.6,1.7-4.8,4.2l0,0c-0.2,2.5,1.7,4.6,4.2,4.8l28.3,2L41.6-12z M117.4-57.8l2-16.5l18.3,3c2.5,0.4,4.8-1.3,5.2-3.7l0,0
			c0.4-2.5-1.3-4.8-3.7-5.2l-27.6-4.5l-3.1,25.9c-0.3,2.5,1.5,4.7,3.9,5l0,0C114.8-53.6,117.1-55.4,117.4-57.8z"/>
	</g>
	<g id="Regular-L" transform="matrix(1 0 0 1 1374.99 1556)">
		<path d="M56,24.8c-2.3,0-4.2-1.9-4.2-4.2s1.9-4.2,4.2-4.2s4.2,1.9,4.2,4.2S58.3,24.8,56,24.8z M99.8-91.4c0-2.3-1.9-4.2-4.2-4.2
			s-4.2,1.9-4.2,4.2c0,2.3,1.9,4.2,4.2,4.2S99.8-89.1,99.8-91.4z M73.4-4.4c7.1-0.5,12.6-3.7,16.9-7.5c2.9,3.4,4.8,5.6,4.9,5.7
			c1.4,1.6,3.8,1.8,5.5,0.4c1.6-1.4,1.8-3.8,0.4-5.5c-0.1-0.1-2.3-2.7-5.6-6.5c3.6-4.9,5.3-9.3,5.5-9.7c0.8-2-0.2-4.2-2.2-5
			s-4.2,0.2-5,2.2c0,0.1-1.2,3-3.5,6.4c-4.4-5.2-9.5-11.1-13.9-16.3c1.7-1.2,3.4-2.4,5.2-3.8c6.1-4.8,8.6-11,6.6-16.8
			s-7.9-9.5-15-9.5s-12.5,3-15,8.2c-2.3,4.9-1.4,10.7,2.3,15.1c1,1.2,2.5,3,4.4,5.3c-4.8,3.3-9,6.7-12.1,12.2
			c-3,5.2-2.8,11.6,0.4,16.6c3.5,5.6,9.9,8.6,17.8,8.6C71.8-4.3,72.6-4.3,73.4-4.4z M85.2-17.8c-3.2,2.9-7.3,5.4-12.4,5.7
			c-6,0.5-10.8-1.3-13.1-5c-1.7-2.7-1.8-5.9-0.2-8.6c2.4-4.3,5.9-7,10.4-10.1C74.7-30.1,80.4-23.4,85.2-17.8z M80.8-58.3
			c0.9,2.5-0.6,5.5-4,8.2c-1.9,1.5-3.7,2.8-5.5,4c-2.1-2.5-3.9-4.6-4.9-5.8c-1.7-2.1-2.2-4.7-1.2-6.9c1.1-2.4,4-3.8,7.9-3.8
			C76.8-62.5,79.9-60.8,80.8-58.3z M78.7,27.8c8.7-0.6,17.3-2.9,25-7c31-16,43.2-54.3,27.1-85.3c-3-5.9-6.9-11.2-11.6-15.8l-5.5,5.5
			c4.1,4.1,7.5,8.7,10.2,13.9C138-33.7,127.4-0.1,100.2,14c-6.9,3.6-14.3,5.6-21.9,6.1c-2,0.1-3.6,1.8-3.6,3.8V24
			C74.7,26.2,76.5,27.9,78.7,27.8z M71.1-98.4c-8.7,0.6-17.3,2.9-25,7C15.1-75.4,2.9-37.1,19-6.1c3,5.9,6.9,11.2,11.6,15.8L36,4.2
			c-4.1-4.1-7.5-8.7-10.2-13.9c-14.1-27.2-3.4-60.8,23.8-74.9c6.9-3.6,14.3-5.6,21.9-6.1c2-0.1,3.6-1.8,3.6-3.8v-0.1
			C75.2-96.8,73.3-98.6,71.1-98.4z M40.2-12c0.1-2.1-1.6-3.9-3.8-4l0,0c-2.1-0.1-3.9,1.6-4,3.8L32,5.1L12.4,3.8
			c-2.1-0.1-4,1.5-4.1,3.6l0,0c-0.1,2.1,1.5,4,3.6,4.1l27.6,1.9L40.2-12z M115.9-57.9l2.1-17.2l18.9,3.1c2.1,0.3,4.1-1.1,4.4-3.2
			l0,0c0.3-2.1-1.1-4.1-3.2-4.4L111.3-84l-3,25.2c-0.3,2.1,1.3,4,3.4,4.3l0,0C113.8-54.2,115.7-55.8,115.9-57.9z"/>
	</g>
	<g id="Light-L" transform="matrix(1 0 0 1 1079.2 1556)">
		<path d="M55.1,24.2c-2,0-3.5-1.6-3.5-3.5s1.6-3.5,3.5-3.5c2,0,3.5,1.6,3.5,3.5S57,24.2,55.1,24.2z M98.2-91.3c0-2-1.6-3.5-3.5-3.5
			c-2,0-3.5,1.6-3.5,3.5c0,2,1.6,3.5,3.5,3.5S98.2-89.4,98.2-91.3z M72.4-4.9c7.2-0.6,12.8-3.9,17-7.8c3.1,3.7,5.2,6.1,5.3,6.2
			c1.2,1.4,3.2,1.5,4.5,0.4c1.4-1.2,1.5-3.2,0.4-4.5c-0.1-0.1-2.4-2.8-5.9-6.9c3.8-5,5.6-9.6,5.7-10c0.6-1.7-0.2-3.5-1.9-4.2
			c-1.7-0.6-3.5,0.2-4.2,1.9c0,0.1-1.3,3.4-4,7.2c-4.7-5.5-10.2-12-14.9-17.5c1.8-1.3,3.8-2.6,5.8-4.2c5.9-4.6,8.3-10.6,6.4-16.1
			s-7.6-9.1-14.4-9.1s-12,2.9-14.4,7.9C55.6-57,56.5-51.4,60-47.2c1,1.2,2.8,3.3,4.9,5.8c-5,3.4-9.3,6.8-12.5,12.4
			c-2.9,5-2.7,11.1,0.4,16c3.4,5.4,9.6,8.3,17.3,8.3C70.8-4.8,71.6-4.9,72.4-4.9z M85.2-17.7c-3.3,3.2-7.7,5.9-13.2,6.3
			c-6.3,0.5-11.3-1.4-13.7-5.3c-1.8-2.9-1.9-6.4-0.2-9.3c2.6-4.6,6.2-7.3,11.1-10.6C74.1-30.6,80.2-23.5,85.2-17.7z M80.5-58.4
			c1,2.8-0.6,6.1-4.2,8.9c-2.1,1.6-4.1,3-6,4.3c-2.3-2.7-4.2-5-5.3-6.3c-1.9-2.3-2.4-5.2-1.3-7.5c1.2-2.6,4.3-4.1,8.5-4.1
			C76.2-63.1,79.5-61.2,80.5-58.4z M34.3,4.8c-4.2-4.1-7.8-8.9-10.5-14.3C9.5-37,20.3-71,47.9-85.2c7.2-3.7,14.8-5.8,22.8-6.2
			c1.7-0.1,3-1.5,3-3.2v-0.1c0-1.8-1.5-3.3-3.3-3.2C61.6-97.4,52.9-95,45-91C14.2-75.1,2.2-37.2,18.1-6.5c3.1,5.9,7,11.3,11.7,15.9
			L34.3,4.8z M77.1,27.3c8.8-0.5,17.5-2.9,25.4-6.9c30.7-15.9,42.7-53.8,26.8-84.4c-3-5.8-6.9-11.1-11.5-15.7l-4.5,4.6
			c4.1,4.1,7.6,8.8,10.3,14.1c14.2,27.5,3.4,61.5-24.1,75.7c-7.2,3.7-14.8,5.8-22.8,6.2c-1.7,0.1-3,1.5-3,3.2v0.1
			C73.7,25.9,75.3,27.4,77.1,27.3z M38.6-11.9c0-1.8-1.4-3.3-3.1-3.3l0,0c-1.8,0-3.3,1.4-3.3,3.1l-0.5,18L11.5,4.5
			C9.7,4.4,8.1,5.7,8,7.5l0,0c-0.1,1.8,1.2,3.3,3,3.4l27,1.9L38.6-11.9z M114.4-57.9l2.1-17.9l19.6,3.2c1.8,0.3,3.4-0.9,3.7-2.7l0,0
			c0.3-1.8-0.9-3.4-2.7-3.7l-26.2-4.3L108-58.6c-0.2,1.8,1.1,3.4,2.8,3.6l0,0C112.6-54.9,114.2-56.1,114.4-57.9z"/>
	</g>
	<g id="Thin-L" transform="matrix(1 0 0 1 783.716 1556)">
		<path d="M52.6,23.5c-1.6,0-2.9-1.3-2.9-2.9s1.3-2.9,2.9-2.9c1.6,0,2.9,1.3,2.9,2.9S54.2,23.5,52.6,23.5z M96.3-91.4
			c0-1.6-1.3-2.9-2.9-2.9s-2.9,1.3-2.9,2.9s1.3,2.9,2.9,2.9S96.3-89.8,96.3-91.4z M71.2-5.6c7.3-0.6,12.9-4.1,17.1-8.1
			c3.4,4,5.7,6.6,5.8,6.7c0.9,1.1,2.6,1.2,3.6,0.3c1.1-0.9,1.2-2.6,0.3-3.6c-0.1-0.1-2.6-3-6.2-7.3c3.9-5,5.8-9.8,5.9-10.3
			c0.5-1.3-0.2-2.8-1.5-3.3s-2.8,0.2-3.3,1.5c0,0.1-1.5,3.9-4.6,8c-4.9-5.8-10.9-12.8-15.9-18.7c2-1.4,4.1-2.9,6.3-4.6
			c5.7-4.4,8-10.1,6.2-15.4C83-65.6,77.6-69,71-69c-6.5,0-11.6,2.7-13.8,7.5c-2.1,4.4-1.3,9.7,2.1,13.7c1.1,1.3,3,3.6,5.3,6.3
			c-5.2,3.5-9.7,6.9-12.9,12.6C49-24.1,49.1-18.3,52-13.6c3.3,5.2,9.3,8,16.7,8C69.6-5.5,70.4-5.6,71.2-5.6z M84.8-17.7
			c-3.5,3.5-8.1,6.5-14.1,6.9c-6.5,0.5-11.8-1.5-14.3-5.6c-1.9-3-2-6.9-0.2-10C59-31.1,63-34.1,68-37.5
			C73.2-31.3,79.7-23.7,84.8-17.7z M79.9-58.7c1.1,3.1-0.6,6.6-4.5,9.6c-2.3,1.8-4.4,3.3-6.5,4.7c-2.5-2.9-4.5-5.3-5.7-6.7
			c-2.1-2.5-2.6-5.6-1.4-8.2c1.3-2.9,4.7-4.5,9.1-4.5S78.8-61.7,79.9-58.7z M75.2,26.6c8.9-0.4,17.8-2.8,25.8-6.9
			c30.4-15.7,42.3-53.2,26.6-83.6c-3-5.8-6.8-11-11.4-15.5l-3.6,3.7c4.2,4.2,7.7,8.9,10.4,14.2c14.4,27.8,3.5,62.2-24.4,76.6
			c-7.5,3.9-15.4,6-23.7,6.3c-1.3,0.1-2.4,1.2-2.4,2.5V24C72.5,25.5,73.7,26.7,75.2,26.6z M69.7-97.2c-8.9,0.4-17.8,2.8-25.8,6.9
			C13.5-74.6,1.6-37.1,17.3-6.8c3,5.8,6.8,11,11.4,15.5L32.3,5c-4.2-4.2-7.7-8.9-10.4-14.2C7.5-37,18.4-71.3,46.3-85.7
			c7.5-3.9,15.4-6,23.7-6.3c1.3-0.1,2.4-1.2,2.4-2.5v-0.1C72.4-96.1,71.1-97.3,69.7-97.2z M36.8-11.9c0.1-1.4-1-2.6-2.4-2.7l0,0
			c-1.4-0.1-2.6,1-2.7,2.4l-1.2,18L10.1,5.1C8.7,5,7.5,6.1,7.4,7.5l0,0c0,1.5,1.1,2.7,2.5,2.7l25.4,0.9L36.8-11.9z M112.5-58
			l2.2-18.5l20.2,3.3c1.4,0.2,2.7-0.7,3-2.1l0,0c0.2-1.4-0.7-2.7-2.1-3l-25.6-4.2l-2.9,23.9c-0.2,1.4,0.8,2.7,2.3,2.9l0,0
			C111.1-55.6,112.4-56.6,112.5-58z"/>
	</g>
	<g id="Ultralight-L" transform="matrix(1 0 0 1 487.631 1556)">
		<path d="M51.9,22.9c-1.2,0-2.3-1-2.3-2.3c0-1.2,1-2.3,2.3-2.3c1.2,0,2.3,1,2.3,2.3S53.2,22.9,51.9,22.9z M95.1-91.3
			c0-1.2-1-2.3-2.3-2.3s-2.3,1-2.3,2.3c0,1.2,1,2.3,2.3,2.3S95.1-90.1,95.1-91.3z M70.5-6.2c7.4-0.6,13-4.2,17.2-8.4
			c3.6,4.3,6.1,7.2,6.2,7.3c0.7,0.8,1.9,0.9,2.7,0.2c0.8-0.7,0.9-1.9,0.2-2.7c-0.1-0.1-2.7-3.2-6.6-7.7c4.1-5.1,6-10.1,6.2-10.5
			c0.4-1-0.1-2.1-1.1-2.5s-2.1,0.1-2.5,1.1c0,0.1-1.7,4.3-5.2,8.8C82.4-26.7,76-34.3,70.7-40.5c2.1-1.5,4.5-3.1,6.9-5
			c5.4-4.2,7.7-9.7,6-14.7s-6.9-8.2-13.2-8.2c-6.3,0-11.1,2.6-13.2,7.1c-2,4.2-1.2,9.2,2,13c1.2,1.4,3.3,3.9,5.8,6.9
			c-5.4,3.6-10,7-13.3,12.7c-2.6,4.6-2.5,10.2,0.3,14.6c3.2,5,9,7.7,16.2,7.7C68.9-6.1,69.7-6.2,70.5-6.2z M85.1-17.6
			c-3.6,3.8-8.5,7.1-14.9,7.6c-6.8,0.5-12.2-1.6-14.9-5.9c-2-3.2-2.1-7.3-0.2-10.6c2.9-5.1,7.1-8.1,12.4-11.7
			C72.9-31.9,79.7-23.9,85.1-17.6z M79.9-58.8c1.2,3.4-0.6,7.1-4.7,10.3c-2.5,1.9-4.8,3.5-7,5c-2.7-3.1-4.8-5.7-6.1-7.2
			c-2.2-2.7-2.8-6.1-1.5-8.9c1.5-3.1,5-4.9,9.7-4.9C74.9-64.4,78.7-62.2,79.9-58.8z M31.5,5.7c-4.3-4.2-7.9-9.2-10.7-14.6
			C6.2-37,17.3-71.8,45.4-86.4c7.7-4,15.9-6.1,24.5-6.4c1,0,1.9-0.9,1.9-1.9c0,0,0,0,0-0.1c0-1.1-0.9-1.9-1.9-1.9
			c-9.1,0.3-18.1,2.6-26.2,6.8C13.6-74.3,1.8-37.2,17.3-7.1c3,5.8,6.9,11,11.5,15.6L31.5,5.7z M73.8,26c9.1-0.3,18.1-2.6,26.2-6.8
			c30-15.6,41.8-52.7,26.3-82.7c-3-5.7-6.7-10.9-11.2-15.3l-2.7,2.7c4.2,4.2,7.8,9,10.5,14.4c14.6,28.2,3.5,62.9-24.6,77.5
			c-7.7,4-15.9,6.1-24.5,6.4c-1,0-1.9,0.9-1.9,1.9c0,0,0,0,0,0.1C71.9,25.2,72.8,26.1,73.8,26z M35-12.5c0.1-1.1-0.8-2-1.8-2l0,0
			c-1.1-0.1-2,0.8-2,1.8l-1,19L9.4,5.8c-1.1,0-2,0.8-2,1.9l0,0c0,1.1,0.8,2,1.9,2l24.4,0.6L35-12.5z M111.3-58l2.3-19.2l20.9,3.4
			c1.1,0.2,2-0.5,2.2-1.6l0,0c0.2-1.1-0.5-2-1.6-2.2l-24.9-4.1l-2.8,23.2c-0.1,1.1,0.6,2,1.7,2.2l0,0C110.2-56.2,111.1-57,111.3-58z
			"/>
	</g>
	<g id="Black-M" transform="matrix(1 0 0 1 2871.36 1126)">
		<path d="M48,15.5c-3.2,0.1-5.9-2.4-6-5.6s2.4-5.9,5.6-6c3.2-0.1,5.9,2.4,6,5.6S51.2,15.4,48,15.5z M81.3-78.3
			c-0.1-3.2-2.8-5.7-6-5.6s-5.7,2.8-5.6,6s2.8,5.7,6,5.6S81.4-75.1,81.3-78.3z M61.3-7.7c5.1-0.4,9.2-2.3,12.6-4.9
			c1.2,1.4,2,2.4,2.2,2.6c2,2.3,5.4,2.6,7.8,0.6c2.3-2,2.6-5.4,0.6-7.8c0-0.1-1.2-1.4-3.1-3.6c2.3-3.4,3.3-6.2,3.5-6.5
			c1.1-2.8-0.3-6-3.2-7.1c-2.8-1.1-6,0.3-7.1,3.2c0,0-0.3,0.6-0.7,1.6c-2.2-2.6-4.6-5.3-6.8-7.9c0.6-0.5,1.3-0.9,1.9-1.4
			c5.6-4.4,7.8-10.3,5.9-15.8s-7.4-9.1-14-9.1c-6.4,0-11.6,2.9-13.9,7.8c-2.2,4.7-1.4,10.2,2.1,14.4c0.4,0.5,1,1.2,1.7,2
			c-3,2.3-5.8,4.9-7.9,8.6c-2.8,4.8-2.6,10.8,0.3,15.5c3.2,5.1,8.9,7.9,15.9,7.9C59.9-7.6,60.5-7.6,61.3-7.7z M66.6-20.9
			c-1.8,1.2-3.9,2.1-6.2,2.3c-3.7,0.3-6.6-0.7-7.9-2.7c-0.8-1.3-0.8-2.8-0.1-4.1c1.3-2.3,3.1-4,5.5-5.7
			C60.8-27.8,63.8-24.2,66.6-20.9z M64.5-51.1c0.2,0.7-0.4,2.1-2.3,3.6c-0.8,0.6-1.5,1.2-2.3,1.7c-1-1.2-1.8-2.1-2.3-2.8
			c-0.7-0.9-1-1.9-0.6-2.7c0.4-0.9,1.9-1.5,3.9-1.5C62.8-52.7,64.2-51.9,64.5-51.1z M33.6-5.3c-3.5-3.5-6.4-7.5-8.4-12.1
			C15.4-38.6,26-64.1,47.9-72.2c3-1.1,6.1-1.9,9.3-2.3c2.7-0.3,4.8-2.5,4.8-5.3c0-0.1,0-0.3,0-0.4c0-3.2-2.8-5.6-5.9-5.3
			c-6.2,0.7-12.2,2.6-17.8,5.4C13.1-66.9,3.1-35.7,16.2-10.5c2.5,4.9,5.8,9.3,9.6,13.1L33.6-5.3z M92.7-61.9
			c3.2,3.7,6.5,9.5,8.1,14.2c7.9,22-4.9,46.5-27.4,52.8c-3.1,0.9-6.3,1.3-9.5,1.4c-2.7,0.1-5,2.1-5.2,4.8c0,0.1,0,0.3,0,0.4
			c-0.3,3.2,2.3,5.8,5.4,5.7c6.2-0.2,12.4-1.5,18.2-3.9c26.3-10.9,38.8-41.1,28-67.4c-2.1-5.1-5.7-11.1-9.2-15.3L92.7-61.9z
			 M38.8-16.5c0.1-3-2.3-5.6-5.3-5.7l0,0c-3-0.1-5.6,2.3-5.7,5.3l-0.4,12L13-5.9c-3-0.2-5.7,2.1-5.9,5.1l0,0c-0.2,3,2.1,5.7,5.1,5.9
			L38,6.8L38.8-16.5z M95.9-51l1.4-11.5l13.3,2.1c3,0.5,5.8-1.6,6.3-4.6l0,0c0.5-3-1.6-5.8-4.6-6.3l-24.6-3.9l-2.8,22.8
			c-0.4,3,1.8,5.8,4.8,6.1l0,0C92.8-45.8,95.5-48,95.9-51z"/>
	</g>
	<g id="Heavy-M" transform="matrix(1 0 0 1 2575.48 1126)">
		<path d="M48.8,14.9c-2.9,0.1-5.3-2.2-5.3-5.1c-0.1-2.9,2.2-5.3,5.1-5.3c2.9-0.1,5.3,2.2,5.3,5.1C54,12.4,51.7,14.8,48.8,14.9z
			 M81.6-78c-0.1-2.9-2.5-5.2-5.3-5.1c-2.9,0.1-5.2,2.5-5.1,5.3c0.1,2.9,2.5,5.2,5.3,5.1C79.4-72.7,81.7-75.1,81.6-78z M60.4-8
			c5.2-0.4,9.3-2.4,12.7-5c1.4,1.7,2.3,2.7,2.5,2.9c1.8,2.1,5,2.3,7,0.6c2.1-1.8,2.3-5,0.6-7c-0.1-0.1-1.3-1.6-3.3-3.9
			c2.4-3.5,3.5-6.4,3.6-6.7c1-2.6-0.3-5.4-2.9-6.4s-5.5,0.3-6.5,2.9c0,0-0.4,0.9-1.1,2.3c-2.5-2.9-5.1-6-7.6-8.9
			c0.8-0.5,1.5-1.1,2.3-1.7c5.4-4.2,7.6-9.9,5.8-15.3c-1.8-5.3-7.1-8.7-13.6-8.7c-6.2,0-11.2,2.8-13.4,7.5c-2.1,4.5-1.3,9.8,2,13.8
			c0.5,0.6,1.2,1.4,2,2.4c-3.1,2.3-6,5-8.2,8.8c-2.7,4.7-2.5,10.4,0.3,14.9C45.9-10.7,51.5-8,58.3-8C59-8,59.7-8,60.4-8z M66.5-20.7
			c-1.9,1.4-4.2,2.5-6.9,2.7c-3.9,0.3-7-0.8-8.3-2.9c-0.9-1.4-0.9-3.2-0.1-4.6c1.4-2.5,3.4-4.3,6-6.1C60.2-28.1,63.5-24.2,66.5-20.7
			z M64.1-51.2c0.4,1.1-0.6,2.7-2.5,4.1c-0.9,0.7-1.8,1.4-2.7,2c-1.1-1.3-2-2.4-2.6-3.1c-0.8-1-1.1-2.3-0.7-3.2
			c0.5-1.1,2.1-1.8,4.3-1.8C62.3-53.1,63.7-52.1,64.1-51.2z M66.7,16.7c6.2-0.7,12.3-2.5,17.9-5.4c25-12.9,34.8-43.8,21.9-68.8
			c-2.5-4.7-5.6-9-9.4-12.8l-7,7.1c3,3,5.5,6.5,7.5,10.3C108-32.8,100.1-8,80,2.4c-4.6,2.4-9.4,3.8-14.4,4.4
			c-2.5,0.3-4.4,2.4-4.4,4.9v0.1C61.2,14.7,63.8,17,66.7,16.7z M56.7-84.7c-6.2,0.5-12.4,2.2-18.1,4.9C13.2-67.7,2.5-37.1,14.7-11.7
			c2.3,4.8,5.3,9.2,9,13L31-5.6c-2.9-3.1-5.4-6.6-7.2-10.5c-9.8-20.4-1.2-45,19.3-54.8c4.6-2.2,9.5-3.5,14.5-3.9
			C60-75,62-77,62-79.5v-0.1C62.1-82.6,59.6-85,56.7-84.7z M37.4-16.4c0.1-2.8-2.1-5.1-4.9-5.1l0,0c-2.8-0.1-5.1,2.1-5.1,4.9
			L27.1-4.3l-14.9-1C9.4-5.5,7-3.4,6.8-0.6l0,0c-0.2,2.8,1.9,5.1,4.7,5.3l25.3,1.7L37.4-16.4z M94.5-50.9L95.9-63l13.9,2.2
			c2.7,0.4,5.3-1.4,5.7-4.2l0,0c0.4-2.7-1.4-5.3-4.1-5.7l-24.2-3.9l-2.7,22.4c-0.3,2.7,1.6,5.2,4.4,5.6l0,0
			C91.6-46.2,94.1-48.1,94.5-50.9z"/>
	</g>
	<g id="Bold-M" transform="matrix(1 0 0 1 2279.69 1126)">
		<path d="M46.5,14.7c-2.6,0.1-4.9-2-5-4.6s2-4.9,4.6-5s4.9,2,5,4.6C51.2,12.4,49.2,14.6,46.5,14.7z M79.7-78.2
			c-0.1-2.6-2.3-4.7-5-4.6c-2.6,0.1-4.7,2.3-4.6,5s2.3,4.7,5,4.6C77.7-73.3,79.8-75.5,79.7-78.2z M59.4-8.5
			c5.2-0.4,9.5-2.5,12.8-5.2c1.6,1.9,2.6,3.1,2.8,3.3c1.6,1.9,4.5,2.1,6.3,0.5c1.9-1.6,2.1-4.5,0.5-6.3c-0.1-0.1-1.4-1.7-3.6-4.2
			c2.5-3.6,3.7-6.6,3.8-6.9c0.9-2.3-0.3-4.9-2.6-5.8c-2.3-0.9-4.9,0.3-5.8,2.6c0,0-0.5,1.3-1.5,3c-2.7-3.2-5.7-6.7-8.4-9.9
			c0.9-0.6,1.8-1.3,2.7-2c5.3-4.1,7.4-9.6,5.6-14.7c-1.7-5.1-6.9-8.4-13.1-8.4c-6,0-10.8,2.7-13,7.2c-2,4.3-1.3,9.4,2,13.3
			c0.6,0.7,1.4,1.7,2.4,2.8c-3.3,2.4-6.2,5-8.5,9c-2.6,4.5-2.5,10,0.3,14.4c3,4.8,8.4,7.4,15.1,7.4C58-8.4,58.7-8.4,59.4-8.5z
			 M66.3-20.6c-2.1,1.6-4.6,2.9-7.6,3.1c-4.1,0.3-7.3-0.8-8.8-3.2c-1-1.6-1-3.5-0.1-5.2c1.5-2.7,3.7-4.6,6.5-6.6
			C59.5-28.5,63.1-24.3,66.3-20.6z M63.6-51.3c0.4,1.3-0.5,3-2.6,4.7c-1.1,0.8-2.1,1.6-3.1,2.3c-1.3-1.5-2.3-2.7-2.9-3.5
			c-1-1.2-1.3-2.6-0.7-3.7c0.6-1.3,2.4-2.1,4.8-2.1C61.6-53.6,63.2-52.4,63.6-51.3z M31.1-4.4C28-7.5,25.4-11,23.3-14.9
			c-10.5-20.4-2.5-45.5,17.8-56c4.8-2.5,9.8-4,15.1-4.5c2.3-0.2,4-2.1,4-4.4v-0.1c0-2.6-2.2-4.7-4.8-4.4C49-83.7,42.7-81.9,37-78.9
			C12.2-66.1,2.5-35.5,15.3-10.8C17.8-6,20.9-1.7,24.7,2L31.1-4.4z M65.1,16.3c6.4-0.6,12.7-2.5,18.4-5.4
			c24.8-12.8,34.5-43.4,21.7-68.2c-2.4-4.7-5.5-9-9.3-12.6l-6.3,6.4c3.1,3,5.6,6.5,7.6,10.4c10.5,20.4,2.5,45.5-17.8,56
			c-4.8,2.5-9.8,4-15.1,4.5c-2.3,0.2-4,2.1-4,4.4v0.1C60.2,14.5,62.5,16.6,65.1,16.3z M35.1-15.9c0.1-2.5-1.9-4.6-4.4-4.6l0,0
			c-2.5-0.1-4.6,1.9-4.6,4.4l-0.3,12L12-5.1C9.5-5.3,7.4-3.4,7.2-0.9l0,0C7,1.5,8.9,3.7,11.4,3.9l23.2,1.6L35.1-15.9z M93.8-51.3
			L95.2-63l12.9,2.1c2.5,0.4,4.8-1.3,5.2-3.7l0,0c0.4-2.5-1.3-4.8-3.7-5.2l-22.2-3.6l-2.5,21c-0.3,2.5,1.5,4.7,3.9,5l0,0
			C91.3-47.1,93.6-48.9,93.8-51.3z"/>
	</g>
	<g id="Semibold-M" transform="matrix(1 0 0 1 1983.62 1126)">
		<path d="M45.2,13.7c-2.3,0-4.2-1.9-4.3-4.2s1.9-4.2,4.2-4.3c2.3,0,4.2,1.9,4.3,4.2S47.5,13.7,45.2,13.7z M79.8-77.5
			c0-2.3-1.9-4.2-4.3-4.2s-4.2,1.9-4.2,4.3c0,2.3,1.9,4.2,4.3,4.2C77.9-73.3,79.8-75.2,79.8-77.5z M58.6-9c5.3-0.4,9.6-2.6,12.9-5.4
			c1.9,2.2,3.1,3.6,3.1,3.7c1.4,1.7,4,1.9,5.6,0.4s1.9-4,0.4-5.6c-0.1-0.1-1.5-1.8-3.8-4.4c2.6-3.7,3.8-6.8,3.9-7.1
			c0.8-2.1-0.3-4.4-2.3-5.1c-2.1-0.8-4.4,0.2-5.2,2.3c0,0-0.6,1.6-1.9,3.6c-3-3.5-6.2-7.3-9.2-10.8c1-0.7,2.1-1.5,3.2-2.4
			c5.1-4,7.1-9.2,5.5-14.1c-1.7-4.9-6.6-8-12.6-8c-5.9,0-10.4,2.5-12.5,7c-1.9,4.1-1.2,9,1.9,12.8c0.6,0.8,1.6,1.9,2.7,3.2
			C47-36.6,44-34,41.7-30c-2.5,4.4-2.4,9.7,0.3,13.9c2.9,4.6,8.2,7.2,14.7,7.2C57.3-8.9,57.9-8.9,58.6-9z M66.3-20.5
			c-2.2,1.9-5,3.3-8.3,3.6c-4.3,0.3-7.7-0.9-9.3-3.4c-1.1-1.8-1.2-3.9-0.1-5.7c1.7-2.9,4-4.8,7-7C59-29,62.9-24.4,66.3-20.5z
			 M63.3-51.4c0.5,1.5-0.5,3.5-2.8,5.2c-1.2,0.9-2.3,1.8-3.5,2.5c-1.4-1.6-2.5-3-3.2-3.8c-1.1-1.3-1.4-3-0.8-4.2
			c0.7-1.5,2.6-2.4,5.3-2.4C61.1-54.1,62.9-52.7,63.3-51.4z M30-4c-3.2-3.1-5.8-6.7-7.9-10.7c-10.7-20.6-2.6-46,18-56.7
			c5-2.6,10.3-4.1,15.8-4.6c2-0.2,3.5-1.9,3.5-3.9V-80c0-2.3-2-4.1-4.3-3.9c-6.5,0.6-12.9,2.4-18.7,5.4C11.9-65.8,2.3-35.5,15-11
			c2.4,4.7,5.6,9,9.3,12.7L30-4z M63.8,15.9c6.5-0.6,12.9-2.4,18.7-5.4C107-2.2,116.6-32.5,104-57c-2.4-4.6-5.5-8.9-9.2-12.5
			l-5.6,5.7c3.1,3.1,5.7,6.6,7.7,10.5c10.7,20.6,2.6,46-18,56.7C73.9,6,68.6,7.5,63.1,8c-2,0.2-3.5,1.9-3.5,3.9V12
			C59.5,14.2,61.5,16.1,63.8,15.9z M33.8-15.9c0.1-2.2-1.7-4-3.9-4.1l0,0c-2.2-0.1-4,1.7-4.1,3.9L25.4-3.7l-14.1-1
			C9.1-4.8,7.2-3.2,7.1-1l0,0c-0.2,2.2,1.5,4.1,3.7,4.3l22.4,1.6L33.8-15.9z M92.5-51.3L94-63.6l13.6,2.2c2.2,0.4,4.2-1.1,4.6-3.3
			l0,0c0.4-2.2-1.1-4.2-3.3-4.6L87-72.9l-2.5,20.6c-0.3,2.2,1.3,4.2,3.5,4.4l0,0C90.2-47.6,92.2-49.2,92.5-51.3z"/>
	</g>
	<g id="Medium-M" transform="matrix(1 0 0 1 1687.4 1126)">
		<path d="M74.2-73.8c-2.1,0-3.7-1.7-3.7-3.7c0-2.1,1.7-3.7,3.7-3.7s3.7,1.7,3.7,3.7C78-75.5,76.3-73.8,74.2-73.8z M48.3,9.3
			c0-2.1-1.7-3.7-3.7-3.7c-2.1,0-3.7,1.7-3.7,3.7s1.7,3.7,3.7,3.7S48.3,11.4,48.3,9.3z M58.1-9.6c5.4-0.4,9.7-2.8,13-5.6
			c2.1,2.4,3.4,4,3.5,4c1.3,1.5,3.5,1.6,4.9,0.4c1.5-1.3,1.6-3.5,0.4-4.9c-0.1-0.1-1.7-1.9-4.1-4.7c2.7-3.7,4-7,4.1-7.3
			c0.7-1.8-0.2-3.8-2-4.5s-3.8,0.2-4.5,2c0,0-0.8,1.9-2.3,4.3c-3.2-3.7-6.8-8-10-11.7c1.2-0.8,2.4-1.7,3.6-2.7
			c4.9-3.8,6.9-8.9,5.3-13.6s-6.4-7.7-12.1-7.7s-10.1,2.4-12,6.7c-1.9,4-1.2,8.6,1.8,12.2c0.7,0.8,1.8,2.1,3.1,3.7
			c-3.6,2.5-6.7,5.2-9.1,9.3c-2.4,4.2-2.3,9.3,0.3,13.4c2.8,4.5,7.9,6.9,14.2,6.9C56.8-9.5,57.4-9.5,58.1-9.6z M66.5-20.5
			c-2.4,2.1-5.3,3.7-9,4c-4.5,0.3-8-1-9.7-3.6c-1.2-1.9-1.3-4.2-0.1-6.2c1.8-3.1,4.3-5.1,7.5-7.4C58.8-29.5,63-24.7,66.5-20.5z
			 M63.3-51.7c0.6,1.8-0.5,3.9-3,5.8c-1.3,1-2.6,2-3.9,2.8c-1.5-1.8-2.8-3.3-3.5-4.2c-1.2-1.5-1.6-3.3-0.9-4.8
			c0.8-1.7,2.9-2.6,5.7-2.6C60.5-54.7,62.7-53.5,63.3-51.7z M29.1-3.7c-3.2-3.1-5.9-6.8-8-10.8c-10.8-20.8-2.6-46.6,18.2-57.4
			c5.1-2.7,10.6-4.2,16.3-4.7c1.8-0.1,3.2-1.6,3.2-3.4v-0.1c0-2-1.7-3.6-3.7-3.4c-6.6,0.5-13.1,2.4-19,5.4
			C11.9-65.6,2.4-35.6,15-11.3c2.4,4.7,5.5,8.9,9.3,12.6L29.1-3.7z M88.8-64.3c3.2,3.1,5.9,6.8,8,10.8c10.8,20.8,2.6,46.6-18.2,57.4
			C73.5,6.6,68,8.1,62.3,8.6c-1.8,0.1-3.2,1.6-3.2,3.4v0.1c0,2,1.7,3.6,3.7,3.4c6.6-0.5,13.1-2.4,19-5.4
			C106-2.5,115.6-32.5,103-56.7c-2.4-4.7-5.5-8.9-9.3-12.6L88.8-64.3z M32.8-16c0.1-1.9-1.5-3.5-3.4-3.6l0,0
			c-1.9-0.1-3.5,1.5-3.6,3.4l-0.4,13l-14.6-1C8.9-4.4,7.2-2.9,7.1-1l0,0C7,0.9,8.4,2.6,10.3,2.7l21.9,1.5L32.8-16z M91.5-51.5
			L93-64.3l14.2,2.3c1.9,0.3,3.7-1,4-2.9l0,0c0.3-1.9-1-3.7-2.9-4L87-72.4l-2.4,20.1c-0.2,1.9,1.1,3.7,3.1,3.9l0,0
			C89.5-48.2,91.3-49.6,91.5-51.5z"/>
	</g>
	<g id="Regular-M" transform="matrix(1 0 0 1 1391.32 1126)">
		<path d="M43.9,12.6c-1.8,0-3.3-1.5-3.3-3.3S42.1,6,43.9,6s3.3,1.5,3.3,3.3S45.7,12.6,43.9,12.6z M77.8-77.5c0-1.8-1.5-3.3-3.3-3.3
			s-3.3,1.5-3.3,3.3s1.5,3.3,3.3,3.3S77.8-75.7,77.8-77.5z M57.4-10c5.5-0.4,9.8-2.9,13.1-5.8c2.3,2.6,3.7,4.4,3.8,4.4
			c1.1,1.3,3,1.4,4.2,0.3c1.3-1.1,1.4-3,0.3-4.2c-0.1-0.1-1.8-2.1-4.3-5c2.8-3.8,4.1-7.2,4.3-7.6c0.6-1.5-0.2-3.3-1.7-3.9
			c-1.5-0.6-3.3,0.2-3.9,1.7c0,0.1-0.9,2.3-2.7,5c-3.4-4-7.4-8.6-10.8-12.7c1.3-0.9,2.6-1.9,4-3c4.7-3.7,6.7-8.6,5.1-13
			c-1.5-4.5-6.1-7.4-11.7-7.4c-5.5,0-9.7,2.3-11.6,6.4c-1.8,3.8-1.1,8.3,1.8,11.7c0.7,0.9,1.9,2.3,3.4,4.1c-3.7,2.6-7,5.2-9.4,9.4
			c-2.3,4-2.2,9,0.3,12.9c2.7,4.3,7.7,6.7,13.8,6.7C56.1-10,56.8-10,57.4-10z M66.5-20.5c-2.5,2.3-5.7,4.1-9.6,4.5
			c-4.7,0.4-8.4-1-10.2-3.9c-1.3-2.1-1.4-4.6-0.1-6.7c1.9-3.3,4.5-5.4,8.1-7.8C58.4-30,62.9-24.8,66.5-20.5z M63.2-51.8
			c0.7,2-0.5,4.3-3.1,6.3c-1.5,1.2-2.9,2.2-4.3,3.1c-1.7-2-3-3.6-3.8-4.5c-1.4-1.6-1.7-3.7-0.9-5.3c0.9-1.9,3.1-2.9,6.2-2.9
			C60.1-55.1,62.5-53.8,63.2-51.8z M61.5,14.9c6.7-0.4,13.4-2.3,19.4-5.4c24-12.4,33.5-42.1,21-66.1c-2.4-4.6-5.4-8.7-9-12.3
			l-4.2,4.3c3.2,3.1,5.8,6.8,7.9,10.8c10.9,21.1,2.6,47.1-18.5,58C72.7,7,67,8.6,61.1,8.9c-1.6,0.1-2.8,1.4-2.8,2.9v0.1
			C58.4,13.6,59.8,15,61.5,14.9z M55.6-82.9c-6.7,0.4-13.4,2.3-19.4,5.4c-24,12.4-33.5,42.1-21,66.1c2.4,4.6,5.4,8.7,9,12.3l4.2-4.3
			c-3.2-3.1-5.8-6.8-7.9-10.8C9.6-35.3,17.9-61.3,39-72.2c5.4-2.8,11.1-4.4,17-4.7c1.6-0.1,2.8-1.4,2.8-2.9v-0.1
			C58.8-81.7,57.3-83.1,55.6-82.9z M31.7-16c0-1.7-1.3-3-2.9-3.1l0,0c-1.7,0-3,1.3-3.1,2.9L25.3-2.7l-15.2-1C8.5-3.8,7-2.6,6.9-0.9
			l0,0c-0.1,1.6,1.2,3,2.8,3.2l21.4,1.5L31.7-16z M90.4-51.5L92-64.8l14.7,2.4c1.6,0.3,3.2-0.8,3.4-2.5l0,0c0.3-1.6-0.8-3.2-2.5-3.4
			l-20.8-3.4l-2.3,19.6c-0.2,1.6,1,3.1,2.6,3.3l0,0C88.7-48.7,90.2-49.9,90.4-51.5z"/>
	</g>
	<g id="Light-M" transform="matrix(1 0 0 1 1095.44 1126)">
		<path d="M43.1,12.1c-1.5,0-2.8-1.2-2.8-2.8s1.2-2.8,2.8-2.8c1.5,0,2.8,1.2,2.8,2.8S44.6,12.1,43.1,12.1z M76.5-77.5
			c0-1.5-1.2-2.8-2.8-2.8c-1.5,0-2.8,1.2-2.8,2.8c0,1.5,1.2,2.8,2.8,2.8S76.5-75.9,76.5-77.5z M56.5-10.5c5.6-0.4,9.9-3,13.1-6.1
			c2.4,2.9,4.1,4.8,4.1,4.8c0.9,1,2.5,1.2,3.5,0.3s1.2-2.5,0.3-3.5c-0.1-0.1-1.9-2.2-4.6-5.3c2.9-3.9,4.3-7.4,4.4-7.8
			c0.5-1.3-0.2-2.7-1.4-3.2c-1.3-0.5-2.7,0.2-3.2,1.4c0,0.1-1,2.6-3.1,5.6C66-28.5,61.7-33.6,58-37.9c1.4-1,2.9-2,4.5-3.3
			c4.6-3.5,6.4-8.2,5-12.5c-1.5-4.3-5.9-7-11.2-7s-9.3,2.2-11.1,6.1c-1.7,3.6-1,7.9,1.7,11.2c0.8,1,2.1,2.5,3.8,4.5
			c-3.9,2.7-7.2,5.3-9.7,9.6c-2.2,3.9-2.1,8.6,0.3,12.4c2.6,4.2,7.5,6.5,13.4,6.5C55.3-10.4,55.9-10.4,56.5-10.5z M66.4-20.4
			c-2.6,2.5-6,4.6-10.3,4.9c-4.9,0.4-8.8-1.1-10.6-4.1c-1.4-2.2-1.5-4.9-0.2-7.2c2-3.5,4.8-5.7,8.6-8.2
			C57.9-30.4,62.6-24.9,66.4-20.4z M62.8-51.9c0.7,2.2-0.5,4.7-3.3,6.9c-1.6,1.3-3.2,2.4-4.6,3.4c-1.8-2.1-3.3-3.8-4.1-4.9
			c-1.5-1.8-1.9-4-1-5.8c1-2,3.4-3.2,6.6-3.2C59.5-55.6,62-54.1,62.8-51.9z M27-3c-3.3-3.2-6-6.9-8.1-11
			c-11-21.3-2.7-47.7,18.7-58.7c5.6-2.9,11.5-4.5,17.7-4.8c1.3-0.1,2.3-1.1,2.3-2.4c0,0,0,0,0-0.1c0-1.4-1.2-2.5-2.6-2.5
			c-6.8,0.4-13.6,2.2-19.7,5.4C11.4-64.8,2.1-35.5,14.4-11.7c2.4,4.6,5.4,8.7,9.1,12.3L27-3z M60.1,14.5c6.8-0.4,13.6-2.2,19.7-5.4
			c23.8-12.3,33.1-41.7,20.8-65.5c-2.3-4.5-5.3-8.6-8.9-12.1L88.2-65c3.2,3.2,5.9,6.8,8,10.9c11,21.3,2.7,47.7-18.7,58.7
			C72,7.6,66,9.2,59.9,9.5c-1.3,0.1-2.3,1.1-2.3,2.4c0,0,0,0,0,0.1C57.5,13.4,58.7,14.6,60.1,14.5z M30.3-15.9
			c0-1.4-1.1-2.5-2.4-2.6l0,0c-1.4,0-2.5,1.1-2.6,2.4l-0.4,14L9.3-3.2c-1.4-0.1-2.6,1-2.7,2.3l0,0C6.5,0.5,7.5,1.7,8.9,1.8l20.9,1.4
			L30.3-15.9z M89.1-51.5l1.7-13.9l15.2,2.5c1.4,0.2,2.6-0.7,2.9-2.1l0,0c0.2-1.4-0.7-2.6-2.1-2.9l-20.3-3.3l-2.3,19
			c-0.2,1.4,0.8,2.6,2.2,2.8l0,0C87.6-49.2,88.9-50.2,89.1-51.5z"/>
	</g>
	<g id="Thin-M" transform="matrix(1 0 0 1 799.828 1126)">
		<path d="M41,11.6c-1.2,0-2.2-1-2.2-2.2s1-2.2,2.2-2.2s2.2,1,2.2,2.2S42.2,11.6,41,11.6z M74.9-77.5c0-1.2-1-2.2-2.2-2.2
			s-2.2,1-2.2,2.2s1,2.2,2.2,2.2S74.9-76.3,74.9-77.5z M55.4-11c5.6-0.4,10-3.1,13.2-6.3c2.6,3.1,4.4,5.2,4.5,5.2
			c0.7,0.8,2,0.9,2.8,0.2s0.9-2,0.2-2.8c-0.1-0.1-2-2.3-4.8-5.6c3-3.9,4.5-7.6,4.6-8c0.4-1-0.1-2.2-1.2-2.6c-1-0.4-2.2,0.1-2.6,1.2
			c0,0.1-1.2,3-3.5,6.2C64.8-28,60.1-33.4,56.3-38c1.5-1.1,3.2-2.2,4.9-3.5c4.4-3.4,6.2-7.9,4.8-11.9c-1.4-4.1-5.6-6.7-10.7-6.7
			s-9,2.1-10.7,5.8c-1.6,3.4-1,7.5,1.6,10.6c0.9,1,2.3,2.8,4.1,4.9c-4,2.7-7.5,5.4-10,9.7c-2.1,3.7-2,8.3,0.3,11.9
			c2.5,4,7.2,6.2,13,6.2C54.2-10.9,54.8-11,55.4-11z M66-20.4c-2.7,2.7-6.3,5-10.9,5.4C50-14.6,46-16.2,44-19.3
			c-1.5-2.4-1.6-5.3-0.2-7.7c2.1-3.7,5.2-6,9.1-8.7C57-30.9,62-25.1,66-20.4z M62.2-52.1c0.8,2.4-0.4,5.1-3.5,7.5
			c-1.8,1.4-3.4,2.5-5,3.6c-1.9-2.3-3.5-4.1-4.4-5.2c-1.6-1.9-2-4.4-1.1-6.4c1-2.2,3.6-3.5,7.1-3.5C58.6-56.1,61.4-54.5,62.2-52.1z
			 M58.5,14c6.9-0.3,13.8-2.1,20-5.3C102-3.6,111.3-32.6,99.1-56.2c-2.3-4.5-5.3-8.5-8.8-12l-2.8,2.8c3.2,3.2,6,6.9,8.1,11
			C106.8-32.8,98.3-6.2,76.7,5c-5.8,3-12,4.6-18.4,4.9c-1,0-1.9,0.9-1.9,2c0,0,0,0,0,0.1C56.4,13.1,57.4,14,58.5,14z M54.2-82
			c-6.9,0.3-13.8,2.1-20,5.3C10.7-64.5,1.5-35.4,13.7-11.9c2.3,4.5,5.3,8.5,8.8,12l2.8-2.8c-3.2-3.2-6-6.9-8.1-11
			C6.1-35.3,14.5-61.9,36.1-73.1c5.8-3,12-4.6,18.4-4.9c1,0,1.9-0.9,1.9-2c0,0,0,0,0-0.1C56.3-81.2,55.4-82.1,54.2-82z M28.7-15.9
			C28.8-17,28-18,26.8-18l0,0c-1.1-0.1-2.1,0.8-2.1,1.9l-0.9,14L8.1-2.7C7-2.8,6-1.9,6-0.8l0,0c0,1.1,0.8,2,1.9,2.1L27.6,2
			L28.7-15.9z M87.5-51.6L89.2-66l15.7,2.6c1.1,0.2,2.1-0.6,2.3-1.7l0,0c0.2-1.1-0.6-2.1-1.7-2.3l-19.8-3.2l-2.2,18.5
			c-0.1,1.1,0.7,2.1,1.7,2.2l0,0C86.3-49.7,87.3-50.5,87.5-51.6z"/>
	</g>
	<g id="Ultralight-M" transform="matrix(1 0 0 1 503.679 1126)">
		<path d="M40.4,11.1c-1,0-1.7-0.8-1.7-1.7s0.8-1.7,1.7-1.7c1,0,1.7,0.8,1.7,1.7S41.4,11.1,40.4,11.1z M73.8-77.5
			c0-1-0.8-1.7-1.7-1.7s-1.7,0.8-1.7,1.7s0.8,1.7,1.7,1.7S73.8-76.5,73.8-77.5z M54.8-11.5c5.7-0.4,10.1-3.3,13.3-6.5
			c2.8,3.3,4.8,5.6,4.8,5.6c0.5,0.6,1.5,0.7,2.1,0.2s0.7-1.5,0.2-2.1c-0.1-0.1-2.1-2.5-5.1-6c3.2-4,4.7-7.8,4.8-8.1
			c0.3-0.8-0.1-1.6-0.9-1.9s-1.6,0.1-1.9,0.9c0,0.1-1.3,3.4-4,6.9c-4-4.7-9-10.6-13.1-15.4c1.7-1.1,3.5-2.4,5.3-3.8
			c4.2-3.3,5.9-7.5,4.6-11.4c-1.3-3.9-5.3-6.4-10.2-6.4s-8.6,2-10.2,5.5c-1.5,3.2-0.9,7.1,1.6,10.1c0.9,1.1,2.5,3,4.5,5.3
			c-4.2,2.8-7.8,5.5-10.3,9.9c-2,3.5-1.9,7.9,0.3,11.3c2.4,3.9,7,6,12.6,6C53.6-11.4,54.2-11.4,54.8-11.5z M66.1-20.3
			c-2.8,2.9-6.6,5.5-11.5,5.9c-5.3,0.4-9.5-1.3-11.6-4.5c-1.6-2.5-1.7-5.7-0.2-8.2c2.3-3.9,5.5-6.3,9.6-9.1
			C56.7-31.4,62-25.2,66.1-20.3z M62.1-52.2c0.9,2.6-0.4,5.5-3.6,8c-1.9,1.5-3.7,2.7-5.4,3.9c-2.1-2.4-3.8-4.4-4.7-5.6
			c-1.7-2.1-2.2-4.7-1.1-6.9c1.1-2.4,3.9-3.8,7.5-3.8C58.2-56.6,61.2-54.8,62.1-52.2z M24.6-2.2c-3.3-3.3-6.1-7.1-8.3-11.3
			C5-35.4,13.5-62.3,35.4-73.6c6-3.1,12.4-4.8,19-5c0.8,0,1.4-0.7,1.4-1.5l0,0c0-0.8-0.7-1.5-1.5-1.5c-7,0.2-14,2.1-20.3,5.3
			C10.7-64.2,1.5-35.5,13.6-12.2c2.3,4.5,5.3,8.5,8.9,12.1L24.6-2.2z M57.4,13.5c7-0.2,14-2.1,20.3-5.3c23.3-12,32.4-40.8,20.4-64.1
			c-2.3-4.4-5.2-8.4-8.7-11.9l-2.1,2.1c3.3,3.3,6,7,8.2,11.1c11.3,21.8,2.7,48.8-19.1,60.1c-6,3.1-12.4,4.8-19,5
			c-0.8,0-1.4,0.7-1.4,1.5l0,0C55.9,12.9,56.6,13.6,57.4,13.5z M27.3-16.4c0-0.8-0.6-1.5-1.4-1.6l0,0c-0.8,0-1.5,0.6-1.6,1.4
			L23.5-1.8l-16-0.4C6.6-2.2,6-1.5,5.9-0.7l0,0c0,0.8,0.6,1.5,1.5,1.5l18.9,0.4L27.3-16.4z M86.4-51.6l1.8-14.9l16.2,2.6
			c0.8,0.1,1.6-0.4,1.7-1.2l0,0c0.1-0.8-0.4-1.6-1.2-1.7L85.6-70l-2.1,18c-0.1,0.8,0.5,1.6,1.3,1.7l0,0
			C85.6-50.2,86.3-50.8,86.4-51.6z"/>
	</g>
	<g id="Black-S" transform="matrix(1 0 0 1 2884.57 696)">
		<path d="M37.9,3.5c-2.5,0.1-4.6-1.9-4.7-4.4c-0.1-2.5,1.9-4.6,4.4-4.7s4.6,1.9,4.7,4.4C42.3,1.3,40.4,3.4,37.9,3.5z M63.9-70
			c-0.1-2.5-2.2-4.5-4.7-4.4s-4.5,2.2-4.4,4.7s2.2,4.5,4.7,4.4S64-67.5,63.9-70z M48.2-14.6c4-0.3,7.2-1.8,9.8-3.8
			c1,1.1,1.6,1.9,1.7,2c1.5,1.8,4.3,2,6.1,0.5s2-4.3,0.5-6.1c0,0-1-1.1-2.4-2.8c1.8-2.7,2.6-4.9,2.7-5.1c0.8-2.2-0.3-4.7-2.5-5.5
			c-2.2-0.8-4.7,0.3-5.6,2.5c0,0-0.2,0.5-0.6,1.2c-1.7-2-3.6-4.2-5.3-6.2c0.5-0.4,1-0.7,1.5-1.1c4.4-3.4,6.1-8.1,4.7-12.4
			c-1.5-4.3-5.8-7.1-11-7.1c-5,0-9.1,2.3-10.8,6.1c-1.7,3.7-1.1,8,1.7,11.2c0.3,0.4,0.8,0.9,1.3,1.6c-2.4,1.8-4.5,3.8-6.2,6.8
			c-2.2,3.8-2.1,8.4,0.3,12.1c2.5,4,7,6.2,12.5,6.2C47.1-14.6,47.7-14.6,48.2-14.6z M52.4-25c-1.4,1-3,1.6-4.9,1.8
			c-2.9,0.2-5.2-0.5-6.2-2.1c-0.6-1-0.7-2.2-0.1-3.2c1-1.8,2.4-3.1,4.3-4.5C47.8-30.4,50.2-27.6,52.4-25z M50.7-48.7
			c0.2,0.5-0.3,1.6-1.8,2.8c-0.6,0.5-1.2,0.9-1.8,1.3c-0.8-0.9-1.4-1.6-1.8-2.2c-0.6-0.7-0.7-1.5-0.5-2.1c0.3-0.7,1.5-1.2,3-1.2
			C49.4-49.9,50.5-49.3,50.7-48.7z M26.5-12.8c-2.7-2.7-5-5.9-6.6-9.5c-7.6-16.7,0.7-36.6,17.8-43c2.4-0.9,4.8-1.5,7.3-1.8
			c2.1-0.2,3.7-2,3.7-4.1c0-0.1,0-0.2,0-0.3c0-2.5-2.2-4.4-4.6-4.1c-4.8,0.6-9.6,2-13.9,4.3C10.5-61,2.7-36.6,12.9-16.9
			c2,3.8,4.5,7.3,7.5,10.2L26.5-12.8z M72.9-57.1c2.5,2.9,5.1,7.4,6.4,11.1c6.2,17.2-3.8,36.4-21.5,41.3c-2.4,0.7-4.9,1.1-7.4,1.1
			c-2.1,0.1-3.9,1.7-4.1,3.8c0,0.1,0,0.2,0,0.3C46.1,3,48.1,5.1,50.6,5c4.9-0.2,9.7-1.2,14.2-3c20.6-8.5,30.4-32.2,21.9-52.7
			c-1.6-4-4.5-8.7-7.2-12L72.9-57.1z M30.6-21.6c0.1-2.4-1.8-4.4-4.2-4.4l0,0C24-26.1,22-24.2,22-21.8l-0.3,9.3l-11.3-0.8
			C8-13.5,6-11.7,5.8-9.3l0,0c-0.2,2.4,1.6,4.4,4,4.6L30-3.3L30.6-21.6z M75.3-48.6l1.1-9l10.4,1.7c2.3,0.4,4.6-1.2,4.9-3.6l0,0
			c0.4-2.3-1.2-4.6-3.6-4.9L69-67.5l-2.2,17.9c-0.3,2.4,1.4,4.5,3.8,4.8l0,0C72.9-44.5,75-46.2,75.3-48.6z"/>
	</g>
	<g id="Heavy-S" transform="matrix(1 0 0 1 2588.47 696)">
		<path d="M38.5,3c-2.3,0.1-4.1-1.7-4.2-4c-0.1-2.3,1.7-4.1,4-4.2s4.1,1.7,4.2,4S40.8,3,38.5,3z M64.2-69.7c-0.1-2.3-1.9-4-4.2-4
			c-2.3,0.1-4,1.9-4,4.2s1.9,4,4.2,4C62.5-65.6,64.2-67.5,64.2-69.7z M47.6-14.9c4-0.3,7.3-1.9,9.9-3.9c1.1,1.3,1.8,2.1,2,2.3
			c1.4,1.6,3.9,1.8,5.5,0.4s1.8-3.9,0.4-5.5c0,0-1-1.2-2.6-3c1.8-2.7,2.7-5,2.8-5.3c0.8-2-0.2-4.3-2.3-5c-2-0.8-4.3,0.2-5.1,2.2
			c0,0-0.3,0.7-0.9,1.8c-1.9-2.3-4-4.7-5.9-7c0.6-0.4,1.2-0.9,1.8-1.4c4.3-3.3,6-7.8,4.5-11.9c-1.4-4.1-5.6-6.8-10.6-6.8
			c-4.8,0-8.8,2.2-10.5,5.9c-1.6,3.5-1,7.7,1.6,10.8c0.4,0.5,0.9,1.1,1.6,1.9c-2.5,1.8-4.7,3.9-6.4,6.9c-2.1,3.7-2,8.1,0.3,11.7
			c2.4,3.8,6.8,6,12.1,6C46.5-14.9,47-14.9,47.6-14.9z M52.4-24.9c-1.5,1.1-3.3,1.9-5.4,2.1c-3.1,0.2-5.5-0.6-6.5-2.3
			c-0.7-1.1-0.7-2.5-0.1-3.6c1.1-2,2.7-3.3,4.7-4.8C47.4-30.7,50-27.6,52.4-24.9z M50.5-48.7c0.3,0.8-0.5,2.1-1.9,3.2
			c-0.7,0.6-1.4,1.1-2.1,1.6c-0.9-1-1.6-1.9-2.1-2.4c-0.7-0.8-0.9-1.8-0.5-2.5c0.4-0.9,1.7-1.4,3.4-1.4
			C49.1-50.3,50.2-49.5,50.5-48.7z M52.5,4.4c4.9-0.5,9.7-2,14-4.2C86.1-10,93.8-34.1,83.7-53.7c-1.9-3.7-4.4-7.1-7.3-10l-5.5,5.6
			c2.4,2.3,4.3,5.1,5.9,8c8.1,15.7,2,35.2-13.8,43.3c-3.6,1.9-7.4,3-11.3,3.4c-2,0.2-3.5,1.8-3.5,3.8v0.1
			C48.2,2.9,50.2,4.7,52.5,4.4z M44.7-75c-4.9,0.4-9.7,1.7-14.2,3.8C10.6-61.6,2.2-37.7,11.8-17.8c1.8,3.8,4.2,7.2,7,10.2l5.7-5.4
			c-2.3-2.4-4.2-5.2-5.6-8.2C11.2-37.2,18-56.4,34-64.1c3.6-1.7,7.4-2.8,11.4-3.1c2-0.2,3.5-1.7,3.6-3.7V-71
			C48.9-73.4,47-75.2,44.7-75z M29.6-21.5c0.1-2.2-1.6-4-3.8-4l0,0c-2.2-0.1-4,1.6-4,3.8L21.5-12L9.8-12.8c-2.2-0.1-4,1.5-4.2,3.6
			l0,0C5.5-7,7.1-5.1,9.3-5l19.8,1.3L29.6-21.5z M74.3-48.5l1.2-9.5l10.9,1.7c2.1,0.3,4.1-1.1,4.5-3.2l0,0c0.3-2.1-1.1-4.1-3.2-4.5
			l-18.9-3l-2.1,17.5c-0.3,2.1,1.3,4.1,3.4,4.4l0,0C72-44.8,74-46.3,74.3-48.5z"/>
	</g>
	<g id="Bold-S" transform="matrix(1 0 0 1 2292.43 696)">
		<path d="M36.8,2.9C34.7,3,33,1.3,32.9-0.7s1.5-3.8,3.6-3.9s3.8,1.5,3.9,3.6S38.8,2.8,36.8,2.9z M62.7-69.9
			c-0.1-2.1-1.8-3.7-3.9-3.6c-2.1,0.1-3.7,1.8-3.6,3.9s1.8,3.7,3.9,3.6C61.2-66.1,62.8-67.8,62.7-69.9z M46.8-15.3
			c4.1-0.3,7.4-2,10-4.1c1.2,1.5,2.1,2.4,2.2,2.6c1.3,1.5,3.5,1.7,5,0.4s1.7-3.5,0.4-5c0,0-1.1-1.3-2.8-3.3c1.9-2.8,2.9-5.2,3-5.4
			c0.7-1.8-0.2-3.8-2-4.5c-1.8-0.7-3.8,0.2-4.5,2c0,0-0.4,1-1.2,2.3c-2.1-2.5-4.4-5.2-6.6-7.7c0.7-0.5,1.4-1,2.2-1.6
			c4.1-3.2,5.8-7.5,4.4-11.5c-1.4-4-5.4-6.6-10.2-6.6c-4.7,0-8.5,2.1-10.1,5.7c-1.6,3.4-1,7.4,1.5,10.4c0.4,0.5,1.1,1.3,1.9,2.2
			c-2.6,1.9-4.9,3.9-6.6,7c-2,3.5-1.9,7.9,0.3,11.3c2.4,3.7,6.6,5.8,11.8,5.8C45.8-15.2,46.3-15.2,46.8-15.3z M52.3-24.8
			c-1.6,1.3-3.6,2.3-6,2.4c-3.2,0.2-5.7-0.7-6.9-2.5c-0.8-1.2-0.8-2.8-0.1-4c1.2-2.1,2.9-3.6,5.1-5.1C46.9-31,49.8-27.7,52.3-24.8z
			 M50.1-48.8c0.3,1-0.4,2.4-2.1,3.7c-0.8,0.6-1.6,1.2-2.4,1.8c-1-1.2-1.8-2.1-2.3-2.7c-0.8-0.9-1-2-0.6-2.9c0.5-1,1.9-1.6,3.8-1.6
			C48.6-50.6,49.8-49.7,50.1-48.8z M24.7-12.1c-2.4-2.4-4.5-5.2-6.1-8.3c-8.2-15.9-2-35.6,13.9-43.9c3.7-1.9,7.7-3.1,11.8-3.5
			c1.8-0.2,3.1-1.7,3.1-3.4v-0.1c0-2-1.7-3.7-3.8-3.5c-5,0.5-9.9,1.9-14.4,4.3c-19.4,10-27,34-17,53.4c1.9,3.7,4.4,7.1,7.4,10
			L24.7-12.1z M51.3,4.1c5-0.5,9.9-1.9,14.4-4.3c19.4-10,27-34,17-53.4c-1.9-3.7-4.3-7-7.3-9.9l-5,5c2.4,2.4,4.4,5.1,6,8.1
			c8.2,15.9,2,35.6-13.9,43.9C58.8-4.6,54.8-3.4,50.7-3c-1.8,0.2-3.1,1.7-3.1,3.4v0.1C47.5,2.7,49.3,4.3,51.3,4.1z M27.9-21.1
			c0.1-1.9-1.5-3.6-3.4-3.6l0,0c-1.9-0.1-3.6,1.5-3.6,3.4l-0.3,9.4L9.7-12.7C7.8-12.8,6.1-11.3,6-9.4l0,0c-0.2,2,1.3,3.6,3.2,3.8
			l18.2,1.3L27.9-21.1z M73.8-48.9l1.1-9.1L85-56.3c1.9,0.3,3.7-1,4-2.9l0,0c0.3-1.9-1-3.7-2.9-4L68.7-66l-2,16.4
			c-0.2,1.9,1.1,3.7,3.1,3.9l0,0C71.8-45.5,73.6-46.9,73.8-48.9z"/>
	</g>
	<g id="Semibold-S" transform="matrix(1 0 0 1 1996.19 696)">
		<path d="M35.7,2c-1.8,0-3.3-1.5-3.3-3.3s1.5-3.3,3.3-3.3S39-3.1,39-1.3C39.1,0.5,37.6,2,35.7,2z M62.9-69.3c0-1.8-1.5-3.3-3.3-3.3
			s-3.3,1.5-3.3,3.3s1.5,3.3,3.3,3.3S62.9-67.5,62.9-69.3z M46.3-15.7c4.2-0.3,7.5-2.1,10.1-4.3c1.5,1.7,2.4,2.8,2.5,2.9
			c1.1,1.3,3.1,1.5,4.4,0.3s1.5-3.1,0.3-4.4c0-0.1-1.2-1.4-3-3.5c2-2.9,3-5.4,3.1-5.6c0.6-1.6-0.2-3.4-1.8-4c-1.6-0.6-3.4,0.2-4,1.8
			c0,0-0.5,1.3-1.5,2.9c-2.3-2.7-4.9-5.7-7.2-8.5c0.8-0.6,1.6-1.2,2.5-1.8c4-3.1,5.6-7.2,4.3-11.1c-1.3-3.8-5.2-6.3-9.9-6.3
			c-4.6,0-8.2,2-9.8,5.4c-1.5,3.2-0.9,7.1,1.5,10c0.5,0.6,1.2,1.5,2.1,2.5c-2.7,1.9-5.1,4-6.9,7.1c-1.9,3.4-1.9,7.6,0.2,10.9
			c2.3,3.6,6.4,5.6,11.5,5.6C45.2-15.6,45.7-15.6,46.3-15.7z M52.3-24.7c-1.7,1.5-3.9,2.6-6.5,2.8c-3.4,0.3-6-0.7-7.2-2.7
			c-0.9-1.4-0.9-3-0.1-4.4c1.3-2.3,3.1-3.8,5.5-5.5C46.6-31.4,49.6-27.8,52.3-24.7z M50-48.9c0.4,1.2-0.4,2.7-2.2,4.1
			c-0.9,0.7-1.8,1.4-2.7,2c-1.1-1.3-2-2.3-2.5-3c-0.9-1-1.1-2.3-0.6-3.3c0.5-1.2,2-1.8,4.1-1.8C48.2-51,49.6-50,50-48.9z M23.8-11.8
			c-2.5-2.4-4.5-5.2-6.2-8.4c-8.3-16.1-2-36,14.1-44.4c3.9-2,8-3.2,12.3-3.6c1.6-0.1,2.8-1.5,2.8-3.1v-0.1c0-1.8-1.5-3.2-3.3-3.1
			c-5.1,0.4-10.1,1.9-14.6,4.2C9.7-60.2,2.2-36.5,12.1-17.3c1.9,3.7,4.4,7,7.3,9.9L23.8-11.8z M50.3,3.8c5.1-0.4,10.1-1.9,14.6-4.2
			C84.1-10.3,91.6-34,81.7-53.2c-1.9-3.6-4.3-6.9-7.2-9.8l-4.4,4.4c2.4,2.4,4.5,5.2,6,8.2c8.3,16.1,2,36-14.1,44.4
			c-3.9,2-8,3.2-12.3,3.6C48.2-2.3,47-1,47,0.6v0.1C47,2.5,48.5,3.9,50.3,3.8z M26.8-21.1c0-1.7-1.3-3.2-3-3.2l0,0
			c-1.7,0-3.2,1.3-3.2,3l-0.3,9.7L9.2-12.3C7.5-12.4,6-11.1,5.9-9.4l0,0C5.8-7.7,7.1-6.2,8.8-6.1l17.6,1.2L26.8-21.1z M72.8-48.9
			l1.2-9.6l10.7,1.7c1.7,0.3,3.3-0.9,3.6-2.6l0,0c0.3-1.7-0.9-3.3-2.6-3.6l-17.1-2.8l-1.9,16.1c-0.2,1.7,1,3.3,2.7,3.5l0,0
			C71-45.9,72.6-47.1,72.8-48.9z"/>
	</g>
	<g id="Medium-S" transform="matrix(1 0 0 1 1699.83 696)">
		<path d="M58.5-66.4c-1.6,0-2.9-1.3-2.9-2.9s1.3-2.9,2.9-2.9c1.6,0,2.9,1.3,2.9,2.9C61.5-67.7,60.1-66.4,58.5-66.4z M38.2-1.4
			c0-1.6-1.3-2.9-2.9-2.9c-1.6,0-2.9,1.3-2.9,2.9s1.3,2.9,2.9,2.9C36.9,1.6,38.2,0.2,38.2-1.4z M45.9-16.1c4.2-0.3,7.6-2.2,10.2-4.4
			c1.6,1.9,2.7,3.1,2.7,3.2c1,1.2,2.7,1.3,3.9,0.3s1.3-2.7,0.3-3.9c0-0.1-1.3-1.5-3.2-3.7c2.1-2.9,3.1-5.5,3.2-5.8
			c0.5-1.4-0.2-3-1.6-3.5c-1.4-0.5-3,0.2-3.5,1.6c0,0-0.6,1.5-1.8,3.4c-2.5-2.9-5.3-6.2-7.8-9.2c0.9-0.6,1.8-1.3,2.8-2.1
			c3.8-3,5.4-7,4.1-10.6c-1.3-3.7-5-6-9.5-6c-4.4,0-7.9,1.9-9.4,5.2c-1.5,3.1-0.9,6.8,1.4,9.6c0.5,0.6,1.4,1.6,2.4,2.9
			c-2.8,2-5.3,4-7.1,7.3c-1.9,3.3-1.8,7.3,0.2,10.5c2.2,3.5,6.2,5.4,11.1,5.4C44.9-16.1,45.4-16.1,45.9-16.1z M52.5-24.7
			c-1.8,1.6-4.2,2.9-7,3.1c-3.5,0.3-6.3-0.8-7.6-2.8c-0.9-1.5-1-3.3-0.1-4.8c1.4-2.4,3.3-4,5.9-5.8C46.5-31.8,49.7-28,52.5-24.7z
			 M50-49.1c0.5,1.4-0.4,3-2.3,4.5c-1,0.8-2,1.5-3,2.2c-1.2-1.4-2.2-2.6-2.8-3.3c-1-1.2-1.2-2.6-0.7-3.7c0.6-1.3,2.2-2.1,4.5-2.1
			C47.8-51.4,49.5-50.5,50-49.1z M23.2-11.6C20.7-14,18.6-16.9,17-20c-8.4-16.3-2-36.5,14.3-44.9c4-2.1,8.3-3.3,12.8-3.6
			c1.4-0.1,2.5-1.3,2.5-2.7v-0.1c0-1.6-1.4-2.8-2.9-2.7c-5.2,0.4-10.3,1.8-14.9,4.2C9.7-60,2.3-36.5,12.1-17.5
			c1.9,3.7,4.3,7,7.2,9.8L23.2-11.6z M70-59c2.5,2.5,4.6,5.3,6.2,8.5c8.4,16.3,2,36.5-14.3,44.9c-4,2.1-8.3,3.3-12.8,3.6
			c-1.4,0.1-2.5,1.3-2.5,2.7v0.1c0,1.6,1.4,2.8,2.9,2.7c5.2-0.4,10.3-1.8,14.9-4.2C83.4-10.5,90.9-34,81-53c-1.9-3.7-4.3-7-7.2-9.8
			L70-59z M26.1-21.1c0-1.5-1.2-2.8-2.7-2.8l0,0c-1.5,0-2.8,1.2-2.8,2.7l-0.3,10.1L8.9-12C7.4-12.1,6.1-11,6-9.5l0,0
			c-0.2,1.6,1,2.9,2.5,3l17.2,1.2L26.1-21.1z M72.1-49l1.2-10l11.1,1.8c1.5,0.2,2.9-0.8,3.1-2.3l0,0c0.2-1.5-0.8-2.9-2.3-3.1
			l-16.7-2.7l-1.9,15.7c-0.2,1.5,0.9,2.9,2.4,3l0,0C70.5-46.4,71.9-47.5,72.1-49z"/>
	</g>
	<g id="Regular-S" transform="matrix(1 0 0 1 1403.58 696)">
		<path d="M34.8,1.2c-1.4,0-2.5-1.1-2.5-2.5s1.1-2.5,2.5-2.5s2.5,1.1,2.5,2.5S36.2,1.2,34.8,1.2z M61.4-69.3c0-1.4-1.1-2.5-2.5-2.5
			s-2.5,1.1-2.5,2.5s1.1,2.5,2.5,2.5C60.2-66.8,61.4-67.9,61.4-69.3z M45.4-16.5c4.3-0.3,7.7-2.3,10.2-4.6c1.8,2.1,2.9,3.4,3,3.5
			c0.8,1,2.3,1.1,3.3,0.3c1-0.8,1.1-2.3,0.3-3.3c0-0.1-1.4-1.6-3.4-3.9c2.2-3,3.2-5.7,3.3-5.9c0.5-1.2-0.1-2.6-1.4-3
			c-1.2-0.5-2.6,0.1-3,1.4c0,0-0.7,1.8-2.1,3.9c-2.7-3.1-5.8-6.8-8.5-9.9c1-0.7,2.1-1.5,3.2-2.3c3.7-2.9,5.2-6.7,4-10.2
			s-4.8-5.8-9.1-5.8s-7.6,1.8-9.1,5c-1.4,3-0.9,6.5,1.4,9.2c0.6,0.7,1.5,1.8,2.7,3.2c-2.9,2-5.5,4.1-7.3,7.4
			c-1.8,3.2-1.7,7,0.2,10.1c2.1,3.4,6,5.2,10.8,5.2C44.4-16.4,44.9-16.5,45.4-16.5z M52.5-24.7c-1.9,1.8-4.4,3.2-7.5,3.5
			c-3.7,0.3-6.6-0.8-8-3c-1-1.6-1.1-3.6-0.1-5.2c1.5-2.6,3.6-4.2,6.3-6.1C46.2-32.1,49.7-28.1,52.5-24.7z M49.9-49.2
			c0.5,1.5-0.4,3.3-2.4,5c-1.2,0.9-2.3,1.7-3.3,2.4c-1.3-1.5-2.4-2.8-3-3.5c-1.1-1.3-1.3-2.9-0.7-4.2c0.7-1.5,2.4-2.3,4.8-2.3
			C47.5-51.8,49.4-50.8,49.9-49.2z M48.6,3c5.3-0.3,10.5-1.8,15.2-4.2C82.6-11,90-34.2,80.2-53c-1.8-3.6-4.2-6.8-7-9.6l-3.3,3.3
			c2.5,2.5,4.6,5.3,6.2,8.4C84.6-34.4,78.2-14,61.7-5.5C57.4-3.2,53-2,48.3-1.7c-1.2,0.1-2.2,1.1-2.2,2.3c0,0,0,0,0,0.1
			C46.1,2,47.3,3.1,48.6,3z M44-73.6c-5.3,0.3-10.5,1.8-15.2,4.2C10-59.6,2.6-36.4,12.3-17.6c1.8,3.6,4.2,6.8,7,9.6l3.3-3.3
			c-2.5-2.5-4.6-5.3-6.2-8.4C8-36.3,14.5-56.7,31-65.2c4.2-2.2,8.7-3.4,13.3-3.7c1.2-0.1,2.2-1.1,2.2-2.3c0,0,0,0,0-0.1
			C46.4-72.6,45.3-73.7,44-73.6z M25.2-21.1c0-1.3-1-2.4-2.3-2.4l0,0c-1.3,0-2.4,1-2.4,2.3l-0.3,10.5L8.4-11.6
			C7.1-11.7,6-10.7,5.9-9.4l0,0C5.8-8.1,6.8-7,8-6.9l16.8,1.2L25.2-21.1z M71.2-49l1.2-10.4l11.5,1.9c1.3,0.2,2.5-0.7,2.7-1.9l0,0
			c0.2-1.3-0.7-2.5-1.9-2.7l-16.3-2.7l-1.8,15.3c-0.2,1.3,0.8,2.5,2.1,2.6l0,0C69.9-46.8,71.1-47.7,71.2-49z"/>
	</g>
	<g id="Light-S" transform="matrix(1 0 0 1 1107.6 696)">
		<path d="M34.1,0.8c-1.2,0-2.2-1-2.2-2.2s1-2.2,2.2-2.2s2.2,1,2.2,2.2S35.3,0.8,34.1,0.8z M60.3-69.3c0-1.2-1-2.2-2.2-2.2
			s-2.2,1-2.2,2.2s1,2.2,2.2,2.2S60.3-68.1,60.3-69.3z M44.6-16.9c4.4-0.3,7.8-2.4,10.3-4.7c1.9,2.2,3.2,3.7,3.2,3.8
			c0.7,0.8,1.9,0.9,2.8,0.2c0.8-0.7,0.9-1.9,0.2-2.8c0-0.1-1.5-1.7-3.6-4.2c2.3-3,3.4-5.8,3.5-6.1c0.4-1-0.1-2.1-1.1-2.5
			c-1-0.4-2.1,0.1-2.5,1.1c0,0-0.8,2.1-2.4,4.4c-2.8-3.3-6.2-7.3-9.1-10.6c1.1-0.8,2.3-1.6,3.5-2.5c3.6-2.8,5-6.4,3.9-9.8
			c-1.1-3.3-4.6-5.5-8.8-5.5c-4.1,0-7.3,1.7-8.7,4.8c-1.3,2.8-0.8,6.2,1.3,8.7c0.6,0.8,1.7,2,3,3.5c-3,2.1-5.7,4.2-7.6,7.5
			c-1.7,3-1.6,6.7,0.2,9.7c2.1,3.3,5.8,5.1,10.5,5.1C43.6-16.8,44.1-16.8,44.6-16.9z M52.4-24.6c-2,2-4.7,3.6-8,3.8
			c-3.8,0.3-6.9-0.9-8.3-3.2c-1.1-1.7-1.2-3.9-0.1-5.7c1.6-2.8,3.8-4.4,6.7-6.4C45.7-32.4,49.3-28.1,52.4-24.6z M49.5-49.3
			c0.6,1.7-0.4,3.7-2.6,5.4c-1.3,1-2.5,1.8-3.6,2.6c-1.4-1.7-2.5-3-3.2-3.8c-1.2-1.4-1.5-3.1-0.8-4.6c0.7-1.6,2.6-2.5,5.2-2.5
			C46.9-52.2,48.9-51,49.5-49.3z M21.5-11c-2.6-2.5-4.7-5.4-6.4-8.7C6.5-36.4,13-57,29.7-65.7c4.4-2.3,9-3.5,13.8-3.8
			c1-0.1,1.8-0.9,1.8-1.9c0,0,0,0,0-0.1c0-1.1-0.9-2-2-1.9C38-73,32.7-71.5,27.9-69.1C9.3-59.4,2-36.4,11.6-17.8
			c1.9,3.6,4.2,6.8,7.1,9.6L21.5-11z M47.4,2.7C52.8,2.4,58.1,1,62.9-1.5c18.6-9.6,25.9-32.6,16.3-51.3c-1.8-3.5-4.2-6.7-7-9.5
			l-2.8,2.8c2.5,2.5,4.6,5.4,6.3,8.5c8.6,16.7,2.1,37.3-14.6,46c-4.4,2.3-9,3.5-13.8,3.8c-1,0.1-1.8,0.9-1.8,1.9c0,0,0,0,0,0.1
			C45.4,1.9,46.3,2.7,47.4,2.7z M24.1-21.1c0-1.1-0.8-2-1.9-2l0,0c-1.1,0-2,0.8-2,1.9l-0.3,10.9L7.6-11.1c-1.1-0.1-2,0.7-2.1,1.8
			l0,0c-0.1,1.1,0.7,2,1.8,2.1l16.4,1.1L24.1-21.1z M70.1-49l1.3-10.8l11.9,1.9c1.1,0.2,2.1-0.5,2.2-1.6l0,0
			c0.2-1.1-0.5-2.1-1.6-2.2L68-64.4l-1.8,14.9c-0.1,1.1,0.6,2,1.7,2.2l0,0C69-47.2,70-47.9,70.1-49z"/>
	</g>
	<g id="Thin-S" transform="matrix(1 0 0 1 811.863 696)">
		<path d="M32.3,0.4c-1,0-1.8-0.8-1.8-1.8s0.8-1.8,1.8-1.8s1.8,0.8,1.8,1.8S33.3,0.4,32.3,0.4z M58.9-69.3c0-1-0.8-1.8-1.8-1.8
			s-1.8,0.8-1.8,1.8s0.8,1.8,1.8,1.8C58.1-67.6,58.9-68.4,58.9-69.3z M43.6-17.3c4.4-0.3,7.8-2.5,10.4-4.9c2.1,2.4,3.4,4,3.5,4.1
			c0.6,0.7,1.6,0.7,2.2,0.2c0.7-0.6,0.7-1.6,0.2-2.2c-0.1-0.1-1.6-1.8-3.8-4.4c2.4-3.1,3.5-6,3.6-6.2c0.3-0.8-0.1-1.7-0.9-2
			c-0.8-0.3-1.7,0.1-2,0.9c0,0-0.9,2.3-2.8,4.9c-3-3.5-6.6-7.8-9.7-11.3c1.2-0.8,2.5-1.7,3.8-2.8c3.4-2.7,4.8-6.2,3.7-9.3
			c-1.1-3.2-4.4-5.2-8.4-5.2s-7,1.7-8.4,4.5c-1.3,2.7-0.8,5.9,1.3,8.3c0.7,0.8,1.8,2.2,3.2,3.8c-3.2,2.1-5.9,4.2-7.8,7.6
			c-1.7,2.9-1.6,6.5,0.2,9.3c2,3.1,5.6,4.9,10.2,4.9C42.7-17.2,43.1-17.2,43.6-17.3z M51.9-24.6c-2.1,2.1-4.9,3.9-8.5,4.2
			c-4,0.3-7.1-0.9-8.7-3.4c-1.2-1.8-1.2-4.2-0.1-6.1c1.7-2.9,4.1-4.7,7.1-6.8C44.9-32.9,48.8-28.3,51.9-24.6z M48.9-49.5
			c0.6,1.9-0.3,4-2.7,5.8c-1.4,1.1-2.7,2-4,2.9c-1.5-1.8-2.7-3.2-3.5-4.1c-1.3-1.5-1.6-3.4-0.8-5c0.8-1.7,2.8-2.7,5.5-2.7
			C46.1-52.6,48.3-51.3,48.9-49.5z M46.1,2.3C51.5,2,56.9,0.6,61.7-1.9c18.4-9.5,25.7-32.3,16.1-50.7c-1.8-3.5-4.1-6.7-6.9-9.4
			l-2.2,2.2c2.5,2.5,4.7,5.4,6.3,8.6c8.7,16.9,2.1,37.8-14.8,46.5C55.7-2.3,50.9-1,45.9-0.8c-0.8,0-1.4,0.7-1.5,1.5l0,0
			C44.4,1.6,45.2,2.3,46.1,2.3z M42.7-72.9c-5.4,0.2-10.8,1.7-15.6,4.2C8.6-59.1,1.4-36.4,11-18c1.8,3.5,4.1,6.7,6.9,9.4l2.2-2.2
			c-2.5-2.5-4.7-5.4-6.3-8.6C5-36.3,11.6-57.2,28.5-65.9c4.5-2.3,9.4-3.6,14.4-3.8c0.8,0,1.4-0.7,1.5-1.5l0,0
			C44.4-72.2,43.6-72.9,42.7-72.9z M22.7-21.1c0.1-0.9-0.6-1.6-1.5-1.7l0,0c-0.9-0.1-1.6,0.6-1.7,1.5l-0.7,11L6.6-10.8
			C5.7-10.8,5-10.2,5-9.3l0,0c0,0.9,0.6,1.6,1.5,1.6l15.4,0.6L22.7-21.1z M68.7-49.1L70-60.4l12.3,2c0.9,0.1,1.7-0.4,1.8-1.3l0,0
			c0.1-0.9-0.4-1.7-1.3-1.8L67.3-64l-1.7,14.5c-0.1,0.9,0.5,1.6,1.4,1.7l0,0C67.8-47.6,68.6-48.2,68.7-49.1z"/>
	</g>
	<g id="Ultralight-S" transform="matrix(1 0 0 1 515.649 696)">
		<path d="M31.8,0.1c-0.8,0-1.4-0.6-1.4-1.4s0.6-1.4,1.4-1.4s1.4,0.6,1.4,1.4S32.6,0.1,31.8,0.1z M58-69.3c0-0.8-0.6-1.4-1.4-1.4
			c-0.8,0-1.4,0.6-1.4,1.4s0.6,1.4,1.4,1.4S58-68.5,58-69.3z M43.1-17.6c4.5-0.3,7.9-2.6,10.4-5.1c2.2,2.6,3.7,4.4,3.8,4.4
			c0.4,0.5,1.2,0.6,1.7,0.1c0.5-0.4,0.6-1.2,0.1-1.7c-0.1-0.1-1.7-1.9-4-4.7c2.5-3.1,3.7-6.1,3.7-6.4c0.2-0.6-0.1-1.3-0.7-1.5
			c-0.6-0.2-1.3,0.1-1.5,0.7c0,0.1-1,2.6-3.1,5.4c-3.1-3.7-7.1-8.3-10.3-12c1.3-0.9,2.7-1.9,4.2-3c3.3-2.6,4.6-5.9,3.6-8.9
			s-4.2-5-8-5s-6.7,1.6-8,4.3c-1.2,2.5-0.7,5.6,1.2,7.9c0.7,0.9,2,2.3,3.5,4.2c-3.3,2.2-6.1,4.3-8.1,7.7c-1.6,2.8-1.5,6.2,0.2,8.9
			c1.9,3,5.5,4.7,9.8,4.7C42.2-17.6,42.6-17.6,43.1-17.6z M51.9-24.6c-2.2,2.3-5.2,4.3-9,4.6c-4.1,0.3-7.4-1-9-3.6
			c-1.2-2-1.3-4.4-0.1-6.5c1.8-3.1,4.3-4.9,7.5-7.1C44.6-33.2,48.7-28.4,51.9-24.6z M48.8-49.6c0.7,2-0.3,4.3-2.8,6.3
			c-1.5,1.2-2.9,2.1-4.3,3.1c-1.6-1.9-2.9-3.5-3.7-4.4c-1.4-1.6-1.7-3.7-0.9-5.4c0.9-1.9,3-3,5.9-3C45.8-53,48.1-51.6,48.8-49.6z
			 M19.4-10.4c-2.6-2.6-4.8-5.6-6.5-8.8c-8.8-17.1-2.1-38.2,15-47c4.7-2.4,9.7-3.7,14.9-3.9c0.6,0,1.1-0.5,1.1-1.2l0,0
			c0-0.6-0.5-1.2-1.2-1.2c-5.5,0.2-11,1.6-15.9,4.2c-18.2,9.4-25.4,32-16,50.2c1.8,3.5,4.2,6.7,7,9.4L19.4-10.4z M45.1,1.9
			c5.5-0.2,11-1.6,15.9-4.2c18.2-9.4,25.4-32,16-50.2c-1.8-3.5-4.1-6.6-6.8-9.3l-1.7,1.7c2.6,2.5,4.7,5.5,6.4,8.7
			c8.8,17.1,2.1,38.2-15,47C55.2-2,50.2-0.7,45-0.5c-0.6,0-1.1,0.5-1.1,1.2l0,0C43.9,1.4,44.5,2,45.1,1.9z M21.5-21.5
			c0-0.6-0.5-1.2-1.1-1.2l0,0c-0.6,0-1.2,0.5-1.2,1.1l-0.6,11.5L6-10.4c-0.6,0-1.2,0.5-1.2,1.1l0,0C4.8-8.6,5.3-8,6-8l14.8,0.3
			L21.5-21.5z M67.8-49.1l1.4-11.7l12.7,2.1c0.6,0.1,1.2-0.3,1.3-1l0,0c0.1-0.6-0.3-1.2-1-1.3l-15.1-2.5l-1.7,14.1
			c-0.1,0.6,0.4,1.2,1,1.3l0,0C67.2-48,67.8-48.4,67.8-49.1z"/>
	</g>
</g>
</svg>
