<?xml version="1.0" encoding="utf-8"?>
<!-- Generator: Adobe Illustrator 24.1.1, SVG Export Plug-In . SVG Version: 6.00 Build 0)  -->
<svg version="1.1" id="Layer_1" xmlns="http://www.w3.org/2000/svg" xmlns:xlink="http://www.w3.org/1999/xlink" x="0px" y="0px"
	 viewBox="0 0 3300 2200" style="enable-background:new 0 0 3300 2200;" xml:space="preserve">
<style type="text/css">
	.st0{fill:#FFFFFF;}
	.st1{fill:none;stroke:#000000;stroke-width:0.5;}
	.st2{font-family:'Arial-BoldMT';}
	.st3{font-size:13px;}
	.st4{font-family:'ArialMT';}
	.st5{fill:none;stroke:#00AEEF;stroke-width:0.5;}
	.st6{fill:#27AAE1;}
	.st7{fill:none;stroke:#27AAE1;stroke-width:0.5;}
</style>
<g id="Notes">
	<rect id="artboard" class="st0" width="3300" height="2200"/>
	<line class="st1" x1="263" y1="292" x2="3036" y2="292"/>
	<text transform="matrix(1 0 0 1 263 322)" class="st2 st3">Weight/Scale Variations</text>
	<text transform="matrix(1 0 0 1 534.0633 322)" class="st4 st3">Ultralight</text>
	<text transform="matrix(1 0 0 1 843.7775 322)" class="st4 st3">Thin</text>
	<text transform="matrix(1 0 0 1 1139.035 322)" class="st4 st3">Light</text>
	<text transform="matrix(1 0 0 1 1427.0773 322)" class="st4 st3">Regular</text>
	<text transform="matrix(1 0 0 1 1723.4419 322)" class="st4 st3">Medium</text>
	<text transform="matrix(1 0 0 1 2016.1719 322)" class="st4 st3">Semibold</text>
	<text transform="matrix(1 0 0 1 2326.9705 322)" class="st4 st3">Bold</text>
	<text transform="matrix(1 0 0 1 2618.2659 322)" class="st4 st3">Heavy</text>
	<text transform="matrix(1 0 0 1 2917.5054 322)" class="st4 st3">Black</text>
	<line class="st1" x1="263" y1="1903" x2="3036" y2="1903"/>
	<g transform="matrix(1 0 0 1 263 1933)">
		<path d="M9.2,0.8c1.1,0,2.1-0.2,3-0.6c1-0.4,1.8-1,2.5-1.7S16-3.1,16.4-4C16.8-5,17-6,17-7s-0.2-2.1-0.6-3c-0.4-1-1-1.8-1.7-2.5
			s-1.6-1.3-2.5-1.7c-1-0.4-2-0.6-3-0.6c-1.1,0-2.1,0.2-3,0.6s-1.8,1-2.5,1.7C3-11.9,2.4-11,2-10.1c-0.4,1-0.6,2-0.6,3S1.6-5,2-4
			s1,1.8,1.7,2.5s1.6,1.3,2.5,1.7C7.2,0.6,8.2,0.8,9.2,0.8z M9.2-0.7c-0.9,0-1.7-0.2-2.5-0.5C6-1.5,5.3-1.9,4.7-2.5s-1-1.3-1.4-2
			C3-5.3,2.9-6.2,2.9-7.1s0.2-1.7,0.5-2.5s0.8-1.5,1.4-2c0.6-0.6,1.3-1,2-1.4c0.8-0.3,1.6-0.5,2.5-0.5s1.7,0.2,2.5,0.5
			s1.5,0.8,2,1.4c0.6,0.6,1,1.3,1.4,2c0.3,0.8,0.5,1.6,0.5,2.5s-0.2,1.7-0.5,2.5s-0.8,1.5-1.4,2c-0.6,0.6-1.3,1-2,1.4
			C11-0.8,10.1-0.7,9.2-0.7z M5.7-7.1c0,0.2,0.1,0.4,0.2,0.5C6-6.4,6.2-6.3,6.4-6.3h2.1v2.1c0,0.2,0.1,0.4,0.2,0.5
			C8.8-3.5,9-3.5,9.2-3.5s0.4-0.1,0.5-0.2C9.9-3.8,10-4,10-4.2v-2.1h2.1c0.2,0,0.4-0.1,0.5-0.2s0.2-0.3,0.2-0.5s-0.1-0.4-0.2-0.5
			c-0.1-0.1-0.3-0.2-0.5-0.2H10v-2.1c0-0.2-0.1-0.4-0.2-0.5c-0.1-0.1-0.3-0.2-0.5-0.2s-0.4,0.1-0.5,0.2C8.7-10.2,8.6-10,8.6-9.8v2.1
			H6.4C6.2-7.8,6-7.7,5.9-7.6C5.7-7.5,5.7-7.3,5.7-7.1z"/>
	</g>
	<g transform="matrix(1 0 0 1 281.867 1933)">
		<path d="M11.7,2.9c1.4,0,2.6-0.3,3.8-0.8s2.3-1.2,3.2-2.2c0.9-0.9,1.6-2,2.2-3.2c0.5-1.2,0.8-2.5,0.8-3.8c0-1.4-0.3-2.6-0.8-3.8
			s-1.2-2.3-2.2-3.2c-0.9-0.9-2-1.6-3.2-2.2c-1.2-0.5-2.5-0.8-3.8-0.8s-2.6,0.3-3.8,0.8s-2.3,1.2-3.2,2.2c-0.9,0.9-1.6,2-2.2,3.2
			C2-9.7,1.7-8.4,1.7-7.1c0,1.4,0.3,2.6,0.8,3.8S3.8-0.9,4.7,0s2,1.6,3.2,2.2S10.3,2.9,11.7,2.9z M11.7,1.3c-1.2,0-2.2-0.2-3.2-0.6
			s-1.9-1-2.6-1.8C5.1-1.9,4.5-2.8,4.1-3.8S3.4-5.9,3.4-7.1S3.6-9.3,4-10.3s1-1.9,1.8-2.6c0.8-0.8,1.6-1.4,2.6-1.8
			c1-0.4,2.1-0.6,3.2-0.6s2.2,0.2,3.2,0.6c1,0.4,1.9,1,2.6,1.8c0.8,0.8,1.4,1.6,1.8,2.6s0.6,2.1,0.6,3.2c0,1.2-0.2,2.2-0.6,3.2
			s-1,1.9-1.8,2.6c-0.8,0.8-1.6,1.4-2.6,1.8S12.9,1.3,11.7,1.3z M7.2-7.1c0,0.2,0.1,0.4,0.2,0.6C7.6-6.3,7.8-6.3,8-6.3h2.9v2.9
			c0,0.2,0.1,0.4,0.2,0.6c0.1,0.2,0.3,0.2,0.6,0.2c0.2,0,0.4-0.1,0.6-0.2c0.2-0.2,0.2-0.4,0.2-0.6v-2.9h2.9c0.2,0,0.4-0.1,0.6-0.2
			s0.2-0.3,0.2-0.6c0-0.2-0.1-0.4-0.2-0.6c-0.2-0.2-0.4-0.2-0.6-0.2h-2.9v-2.9c0-0.3-0.1-0.5-0.2-0.6s-0.4-0.2-0.6-0.2
			c-0.2,0-0.4,0.1-0.6,0.2c-0.1,0.2-0.2,0.4-0.2,0.6v2.9H8c-0.3,0-0.5,0.1-0.6,0.2C7.3-7.5,7.2-7.3,7.2-7.1z"/>
	</g>
	<g transform="matrix(1 0 0 1 305.646 1933)">
		<path d="M15,5.7c1.4,0,2.7-0.2,4-0.6s2.4-1,3.5-1.8s2-1.7,2.8-2.8C26-0.6,26.6-1.8,27-3.1s0.6-2.6,0.6-4s-0.2-2.7-0.6-4
			s-1-2.4-1.8-3.5s-1.7-2-2.8-2.8c-1.1-0.8-2.2-1.4-3.5-1.8s-2.6-0.6-4-0.6s-2.7,0.2-4,0.6s-2.4,1-3.5,1.8s-2,1.7-2.8,2.8
			s-1.4,2.2-1.8,3.5s-0.6,2.6-0.6,4s0.2,2.7,0.6,4s1,2.4,1.8,3.5s1.7,2,2.8,2.8C8.6,4,9.7,4.6,11,5C12.2,5.4,13.6,5.7,15,5.7z
			 M15,3.8c-1.2,0-2.4-0.2-3.4-0.6c-1.1-0.4-2.1-0.9-3-1.5c-1-0.6-1.8-1.4-2.4-2.3C5.5-1.5,5-2.5,4.6-3.6C4.3-4.7,4.1-5.8,4.1-7.1
			c0-1.2,0.2-2.4,0.5-3.5c0.4-1.1,0.9-2.1,1.5-3c0.7-0.9,1.4-1.7,2.4-2.4c0.9-0.7,1.9-1.2,3-1.5c1.1-0.4,2.2-0.5,3.4-0.5
			s2.4,0.2,3.5,0.5c1.1,0.4,2.1,0.9,3,1.5c0.9,0.7,1.7,1.5,2.4,2.4c0.7,0.9,1.2,1.9,1.5,3c0.4,1.1,0.6,2.2,0.6,3.5
			c0,1.2-0.2,2.4-0.5,3.4c-0.4,1.1-0.9,2.1-1.5,3c-0.7,0.9-1.5,1.7-2.4,2.4s-1.9,1.2-3,1.5C17.3,3.7,16.2,3.8,15,3.8z M9.2-7.1
			c0,0.3,0.1,0.5,0.3,0.6c0.2,0.2,0.4,0.2,0.7,0.2h3.9v4c0,0.3,0.1,0.5,0.2,0.7c0.2,0.2,0.4,0.3,0.6,0.3c0.3,0,0.5-0.1,0.7-0.3
			s0.3-0.4,0.3-0.7v-4h4c0.3,0,0.5-0.1,0.7-0.2c0.2-0.2,0.3-0.4,0.3-0.6c0-0.3-0.1-0.5-0.3-0.7C20.3-7.9,20.1-8,19.8-8h-4v-3.9
			c0-0.3-0.1-0.5-0.3-0.7s-0.4-0.3-0.7-0.3s-0.5,0.1-0.6,0.3C14-12.4,14-12.2,14-11.9V-8h-3.9C9.8-8,9.6-7.9,9.5-7.7
			C9.3-7.5,9.2-7.3,9.2-7.1z"/>
	</g>
	<text transform="matrix(1 0 0 1 263 1953)" class="st2 st3">Design Variations</text>
	<text transform="matrix(1 0 0 1 263 1971)" class="st4 st3">Symbols are supported in up to nine weights and three scales.</text>
	<text transform="matrix(1 0 0 1 263 1989)" class="st4 st3">For optimal layout with text and other symbols, vertically align</text>
	<text transform="matrix(1 0 0 1 263 2007)" class="st4 st3">symbols with the adjacent text.</text>
	<line class="st5" x1="776" y1="1919" x2="776" y2="1933"/>
	<g transform="matrix(1 0 0 1 776 1933)">
		<path d="M3.3,0.2c0.3,0,0.5-0.1,0.6-0.2C4-0.1,4.2-0.3,4.3-0.6L5.5-4h5.8l1.3,3.4C12.7-0.3,12.8-0.1,13,0c0.1,0.1,0.3,0.2,0.6,0.2
			s0.5-0.1,0.6-0.2c0.2-0.1,0.2-0.3,0.2-0.6c0-0.1,0-0.3-0.1-0.5L9.7-13.4c-0.1-0.3-0.3-0.5-0.5-0.7c-0.2-0.1-0.5-0.2-0.8-0.2
			c-0.6,0-1,0.3-1.2,0.9L2.6-1.2C2.5-1,2.5-0.8,2.5-0.6S2.6-0.2,2.7,0S3.1,0.2,3.3,0.2z M6-5.5l2.4-6.6l0,0l2.4,6.6
			C10.8-5.5,6-5.5,6-5.5z"/>
	</g>
	<line class="st5" x1="793.2" y1="1919" x2="793.2" y2="1933"/>
	<text transform="matrix(1 0 0 1 776 1953)" class="st2 st3">Margins</text>
	<text transform="matrix(1 0 0 1 776 1971)" class="st4 st3">Leading and trailing margins on the left and right side of each symbol</text>
	<text transform="matrix(1 0 0 1 776 1989)" class="st4 st3">can be adjusted by modifying the x-location of the margin guidelines.</text>
	<text transform="matrix(1 0 0 1 776 2007)" class="st4 st3">Modifications are automatically applied proportionally to all</text>
	<text transform="matrix(1 0 0 1 776 2025)" class="st4 st3">scales and weights.</text>
	<g transform="matrix(1 0 0 1 1289 1933)">
		<path d="M2.8,1.9l1.7,1.7C5,4,5.4,4.2,5.9,4.2s0.9-0.3,1.4-0.8L18-8.4l-1-1L6.4,2.3C6.3,2.5,6.1,2.6,5.9,2.6S5.5,2.5,5.3,2.3
			L4.1,1.1C3.9,0.9,3.8,0.7,3.8,0.5S3.9,0.1,4.1,0l11.5-10.8l-1-1L3-0.9C2.6-0.4,2.3,0,2.3,0.5C2.2,1,2.4,1.4,2.8,1.9z M9.3-16.3
			c-0.2,0.2-0.3,0.4-0.4,0.7c0,0.3,0,0.5,0.1,0.7s0.3,0.3,0.5,0.4c0.2,0.1,0.5,0.1,0.8,0c0.7-0.2,1.5-0.2,2.2-0.2s1.5,0.3,2.2,0.7
			l-0.6,1.5c-0.2,0.4-0.2,0.8-0.1,1.1c0.1,0.3,0.2,0.6,0.5,0.9l2.3,2.3C17-8,17.3-7.8,17.5-7.8s0.5,0,0.8,0L19.4-8l0.7,0.7v0.6
			c0,0.2,0,0.5,0.1,0.7s0.2,0.4,0.5,0.7l0.8,0.7c0.2,0.2,0.5,0.4,0.8,0.4s0.5-0.1,0.8-0.3L26-7.4c0.2-0.2,0.3-0.5,0.3-0.8
			c0-0.3-0.1-0.5-0.4-0.8L25-9.9c-0.2-0.2-0.5-0.4-0.7-0.5s-0.4-0.1-0.7-0.1H23l-0.6-0.6l0.2-1.1c0.1-0.3,0.1-0.5,0-0.8
			s-0.3-0.5-0.6-0.8L19.9-16c-0.8-0.8-1.7-1.4-2.7-1.9c-0.9-0.4-1.9-0.6-2.8-0.6c-1,0-1.9,0.2-2.8,0.5C10.8-17.6,10-17.1,9.3-16.3z
			 M10.8-16c0.6-0.4,1.3-0.8,1.9-0.9c0.7-0.2,1.4-0.2,2.1-0.2c0.7,0.1,1.4,0.3,2.1,0.6c0.7,0.3,1.3,0.7,1.8,1.3l2.4,2.4
			c0.1,0.1,0.2,0.2,0.2,0.3s0,0.3,0,0.4L21-10.5L22.5-9l1-0.1c0.1,0,0.2,0,0.3,0c0.1,0,0.1,0.1,0.2,0.2l0.6,0.6l-2.4,2.4l-0.6-0.6
			c-0.1-0.1-0.2-0.2-0.2-0.2c0-0.1,0-0.2,0-0.3l0.1-1L20-9.5l-1.5,0.3c-0.2,0-0.3,0-0.4,0s-0.2-0.1-0.3-0.2l-2-2
			c-0.1-0.1-0.2-0.2-0.2-0.3s0-0.3,0.1-0.4l0.9-2.1c-0.8-0.7-1.7-1.2-2.6-1.5c-1-0.3-2-0.3-3,0c-0.1,0-0.1,0-0.2,0
			C10.7-15.9,10.7-15.9,10.8-16z"/>
	</g>
	<text transform="matrix(1 0 0 1 1289 1953)" class="st2 st3">Exporting</text>
	<text transform="matrix(1 0 0 1 1289 1971)" class="st4 st3">Symbols should be outlined when exporting to ensure the</text>
	<text transform="matrix(1 0 0 1 1289 1989)" class="st4 st3">design is preserved when submitting to Xcode.</text>
	<text id="template-version" transform="matrix(1 0 0 1 2952.4204 1933)" class="st4 st3">Template v.3.0</text>
	<text transform="matrix(1 0 0 1 2865.4575 1951)" class="st4 st3">Requires Xcode 13 or greater</text>
	<text id="descriptive-name" transform="matrix(1 0 0 1 2916.7847 1969)" class="st4 st3">Generated from shirt</text>
	<text transform="matrix(1 0 0 1 2912.4175 1987)" class="st4 st3">Typeset at 100 points</text>
	<text transform="matrix(1 0 0 1 263 726)" class="st4 st3">Small</text>
	<text transform="matrix(1 0 0 1 263 1156)" class="st4 st3">Medium</text>
	<text transform="matrix(1 0 0 1 263 1586)" class="st4 st3">Large</text>
</g>
<g id="Guides">
	<g id="H-reference" transform="matrix(1 0 0 1 339 696)">
		<path class="st6" d="M1,0h2.6l25.7-67.1H30v-3.3h-1.9L1,0z M11.7-24.5H47l-0.8-2.2H12.4L11.7-24.5z M55.1,0h2.6L30.6-70.5h-1.2
			v3.3L55.1,0z"/>
	</g>
	<line id="Baseline-S" class="st7" x1="263" y1="696" x2="3036" y2="696"/>
	<line id="Capline-S" class="st7" x1="263" y1="625.5" x2="3036" y2="625.5"/>
	<g id="H-reference_1_" transform="matrix(1 0 0 1 339 1126)">
		<path class="st6" d="M1,0h2.6l25.7-67.1H30v-3.3h-1.9L1,0z M11.7-24.5H47l-0.8-2.2H12.4L11.7-24.5z M55.1,0h2.6L30.6-70.5h-1.2
			v3.3L55.1,0z"/>
	</g>
	<line id="Baseline-M" class="st7" x1="263" y1="1126" x2="3036" y2="1126"/>
	<line id="Capline-M" class="st7" x1="263" y1="1055.5" x2="3036" y2="1055.5"/>
	<g id="H-reference_2_" transform="matrix(1 0 0 1 339 1556)">
		<path class="st6" d="M1,0h2.6l25.7-67.1H30v-3.3h-1.9L1,0z M11.7-24.5H47l-0.8-2.2H12.4L11.7-24.5z M55.1,0h2.6L30.6-70.5h-1.2
			v3.3L55.1,0z"/>
	</g>
	<line id="Baseline-L" class="st7" x1="263" y1="1556" x2="3036" y2="1556"/>
	<line id="Capline-L" class="st7" x1="263" y1="1485.5" x2="3036" y2="1485.5"/>
	<line id="left-margin-Regular-M" class="st5" x1="1391.3" y1="1030.8" x2="1391.3" y2="1150.1"/>
	<line id="right-margin-Regular-M" class="st5" x1="1508.4" y1="1030.8" x2="1508.4" y2="1150.1"/>
</g>
<g id="Symbols">
	<g id="Black-L" transform="matrix(1 0 0 1 2854.19 1556)">
		<path d="M108.6-95.8c1.1-2.3,0.1-4.9-2.2-6l-0.2-0.1c-0.6-0.3-1.3-0.4-1.9-0.4H55.1c-2.5,0-4.5,2-4.5,4.5s2,4.5,4.5,4.5h48.4
			c0.3,0.1,0.7,0.1,1,0.1C106.2-93.2,107.9-94.1,108.6-95.8z M104.5-97.7v1.2c-2.1,11.7-12.4,20.6-24.7,20.6
			c-12.4,0-22.6-8.9-24.7-20.7v-1.3h-1l-42.6,20L22.8-44h18.8v71.4h75.2V-44h18.8l11.3-33.8L104.5-97.7z M121.4,27.4v-66.9h14.3
			c1.9,0,3.7-1.2,4.3-3.1l11.3-33.8c0.7-2.2-0.3-4.5-2.4-5.5l-42.4-19.9c-1.4-0.7-3-0.6-4.3,0.3c-1.3,0.8-2.1,2.3-2.1,3.8v0.8
			c-1.9,9.6-10.3,16.5-20.2,16.5c-9.9,0-18.3-6.9-20.2-16.6v-0.8c0-2.5-2-4.5-4.5-4.5h-1c-0.7,0-1.3,0.1-1.9,0.4l-42.6,20
			c-2.1,1-3.1,3.3-2.4,5.5l11.3,33.8c0.6,1.8,2.3,3.1,4.3,3.1h14.3v66.9c0,2.5,2,4.5,4.5,4.5h75.2C119.3,31.9,121.4,29.9,121.4,27.4
			z M46.1-44c0-2.5-2-4.5-4.5-4.5H26l-9-26.9l34.7-16.3c3.9,12,15.2,20.3,28.1,20.3c12.8,0,23.9-8.1,28-19.8l33.6,15.8l-9,26.9
			h-15.6c-2.5,0-4.5,2-4.5,4.5v66.9H46.1V-44z"/>
	</g>
	<g id="Heavy-L" transform="matrix(1 0 0 1 2558.42 1556)">
		<path d="M107-94.9c1-2.1,0.1-4.6-2-5.6l-0.2-0.1c-0.6-0.3-1.2-0.4-1.8-0.4H54.5c-2.3,0-4.2,1.9-4.2,4.2c0,2.3,1.9,4.2,4.2,4.2
			h47.7c0.3,0.1,0.6,0.1,1,0.1C104.8-92.5,106.3-93.4,107-94.9z M103.2-96.7v1.2C101.2-84,91.1-75.3,78.9-75.3
			c-12.2,0-22.3-8.8-24.3-20.3v-1.2h-1l-42,19.7l11.1,33.3h18.5v70.3h74.2v-70.3h18.5L145-77.1L103.2-96.7z M119.6,26.4v-66.1h14.4
			c1.8,0,3.4-1.2,4-2.9L149-75.8c0.7-2-0.3-4.2-2.2-5.1L105-100.5c-1.3-0.6-2.8-0.5-4,0.3c-1.2,0.8-1.9,2.1-1.9,3.5v0.8
			c-1.9,9.6-10.3,16.5-20.1,16.5c-9.9,0-18.3-6.9-20.2-16.5v-0.8c0-2.3-1.9-4.2-4.2-4.2h-1c-0.6,0-1.2,0.1-1.8,0.4l-42,19.7
			c-1.9,0.9-2.9,3.1-2.2,5.1l11.1,33.3c0.6,1.7,2.2,2.9,4,2.9H37v66.1c0,2.3,1.9,4.2,4.2,4.2h74.2C117.7,30.6,119.6,28.7,119.6,26.4
			z M45.4-43.8c0-2.3-1.9-4.2-4.2-4.2H25.7l-9-26.9l34.7-16.3c3.8,11.8,14.8,20.1,27.6,20.1c12.6,0,23.5-8,27.4-19.6l33.6,15.8
			l-9,26.9h-15.5c-2.3,0-4.2,1.9-4.2,4.2v66.1H45.4V-43.8z"/>
	</g>
	<g id="Bold-L" transform="matrix(1 0 0 1 2262.89 1556)">
		<path d="M105.2-94.1c0.9-1.9,0.1-4.2-1.9-5.1l-0.2-0.1c-0.5-0.2-1.1-0.4-1.6-0.4H53.7c-2.1,0-3.9,1.7-3.9,3.9s1.7,3.9,3.9,3.9
			h47.1c0.3,0.1,0.6,0.1,0.9,0.1C103.1-91.9,104.5-92.7,105.2-94.1z M101.7-95.8v1.1c-2,11.4-12,20-24,20c-12,0-22-8.6-24-20v-1.2
			h-1L11.3-76.5l11,32.8h18.3v69.2h73.1v-69.2h18.3l11-32.8L101.7-95.8z M117.5,25.5v-65.3h14.4c1.7,0,3.1-1.1,3.7-2.6l11-32.8
			c0.6-1.9-0.2-3.9-2-4.7l-41.2-19.3c-1.2-0.6-2.6-0.5-3.7,0.2c-1.1,0.7-1.8,1.9-1.8,3.3v0.8c-1.9,9.6-10.3,16.5-20.1,16.5
			c-9.9,0-18.3-6.9-20.1-16.5v-0.9c0-2.1-1.7-3.9-3.9-3.9h-1c-0.6,0-1.1,0.1-1.6,0.4L9.7-80c-1.8,0.8-2.7,2.9-2,4.7l11,32.8
			c0.5,1.6,2,2.6,3.7,2.6h14.4v65.3c0,2.1,1.7,3.9,3.9,3.9h73.1C115.8,29.3,117.5,27.6,117.5,25.5z M44.4-43.7
			c0-2.1-1.7-3.9-3.9-3.9H25l-9-26.8l34.6-16.2c3.6,11.7,14.4,19.9,27,19.9c12.4,0,23.1-7.9,26.8-19.4l33.6,15.7l-9,26.8h-15.5
			c-2.1,0-3.9,1.7-3.9,3.9v65.3H44.4V-43.7z"/>
	</g>
	<g id="Semibold-L" transform="matrix(1 0 0 1 1966.99 1556)">
		<path d="M103.7-93.3c0.8-1.8,0.1-3.9-1.7-4.7l-0.2-0.1c-0.5-0.2-1-0.3-1.5-0.3H53.2c-2,0-3.5,1.6-3.5,3.5c0,2,1.6,3.5,3.5,3.5
			h46.4c0.3,0.1,0.6,0.1,0.9,0.1C101.8-91.3,103.1-92,103.7-93.3z M100.5-94.8v1.1C98.5-82.5,88.7-74,76.9-74
			C65-74,55.2-82.5,53.2-93.7v-1.2h-1L11.4-75.8l10.8,32.2h18v68.1h72v-68.1h18l10.8-32.2L100.5-94.8z M115.8,24.5V-40h14.5
			c1.5,0,2.9-1,3.4-2.4l10.8-32.2c0.6-1.7-0.2-3.6-1.9-4.3L102-98c-1.1-0.5-2.4-0.4-3.4,0.2c-1,0.7-1.6,1.8-1.6,3v0.8
			c-1.9,9.5-10.3,16.4-20.1,16.4c-9.8,0-18.3-6.9-20.1-16.5v-0.9c0-2-1.6-3.5-3.5-3.5h-1c-0.5,0-1,0.1-1.5,0.3L9.9-79
			c-1.6,0.8-2.4,2.6-1.9,4.3l10.8,32.2c0.5,1.4,1.8,2.4,3.4,2.4h14.5v64.5c0,2,1.6,3.5,3.5,3.5h72C114.2,28.1,115.8,26.5,115.8,24.5
			z M43.8-43.6c0-2-1.6-3.5-3.5-3.5H24.8l-9-26.8l34.6-16.2c3.4,11.6,14.1,19.7,26.4,19.7c12.2,0,22.7-7.9,26.3-19.2l33.6,15.7
			l-9,26.8h-15.5c-2,0-3.5,1.6-3.5,3.5V21H43.8V-43.6z"/>
	</g>
	<g id="Medium-L" transform="matrix(1 0 0 1 1670.9 1556)">
		<path d="M102.4-92.5c0.8-1.6,0.1-3.5-1.6-4.3l-0.2-0.1c-0.4-0.2-0.9-0.3-1.4-0.3H53c-1.8,0-3.2,1.4-3.2,3.2s1.4,3.2,3.2,3.2h45.8
			c0.3,0.1,0.5,0.1,0.8,0.1C100.7-90.6,101.9-91.3,102.4-92.5z M99.5-93.9v1.1c-2,11-11.6,19.3-23.3,19.3
			c-11.6,0-21.3-8.4-23.3-19.4V-94h-1L11.8-75.2l10.6,31.7h17.7v67h70.9v-67h17.7l10.6-31.7L99.5-93.9z M114.4,23.6v-63.8h14.5
			c1.4,0,2.6-0.9,3.1-2.2l10.6-31.7c0.5-1.6-0.2-3.3-1.7-3.9l-40-18.7c-1-0.5-2.2-0.4-3.1,0.2c-0.9,0.6-1.5,1.6-1.5,2.7v0.8
			c-1.8,9.5-10.2,16.4-20.1,16.4c-9.8,0-18.2-6.9-20.1-16.5V-94c0-1.8-1.4-3.2-3.2-3.2h-1c-0.5,0-0.9,0.1-1.4,0.3L10.4-78.1
			c-1.5,0.7-2.2,2.4-1.7,3.9l10.6,31.7c0.4,1.3,1.7,2.2,3.1,2.2H37v63.8c0,1.8,1.4,3.2,3.2,3.2h70.9
			C112.9,26.8,114.4,25.3,114.4,23.6z M43.4-43.4c0-1.8-1.4-3.2-3.2-3.2H24.8l-9-26.8l34.6-16.2c3.2,11.4,13.7,19.5,25.9,19.5
			c12,0,22.4-7.8,25.7-19l33.6,15.7l-9,26.8h-15.4c-1.8,0-3.2,1.4-3.2,3.2v63.8H43.4V-43.4z"/>
	</g>
	<g id="Regular-L" transform="matrix(1 0 0 1 1374.99 1556)">
		<path d="M101-91.7c0.7-1.5,0.1-3.2-1.4-3.9l-0.2-0.1c-0.4-0.2-0.8-0.3-1.2-0.3H52.5c-1.6,0-2.9,1.3-2.9,2.9s1.3,2.9,2.9,2.9h45.1
			c0.3,0.1,0.5,0.1,0.8,0.1C99.5-90,100.5-90.6,101-91.7z M98.4-92.9v1.1c-1.9,10.8-11.5,19-22.9,19c-11.5,0-21-8.2-22.9-19.1V-93
			h-0.9L12-74.5l10.5,31.2h17.5v65.9h69.9v-65.9h17.5l10.5-31.2L98.4-92.9z M112.7,22.6v-63h14.6c1.2,0,2.4-0.8,2.8-2l10.5-31.2
			c0.5-1.4-0.2-2.9-1.5-3.6L99.6-95.5c-0.9-0.4-2-0.4-2.8,0.2c-0.8,0.5-1.3,1.5-1.3,2.4v0.8c-1.8,9.5-10.2,16.4-20,16.4
			c-9.8,0-18.2-6.9-20-16.4V-93c0-1.6-1.3-2.9-2.9-2.9h-0.9c-0.4,0-0.8,0.1-1.2,0.3L10.7-77.1c-1.3,0.6-2,2.2-1.5,3.6l10.5,31.2
			c0.4,1.2,1.5,2,2.8,2H37v63c0,1.6,1.3,2.9,2.9,2.9h69.9C111.4,25.5,112.7,24.2,112.7,22.6z M42.8-43.3c0-1.6-1.3-2.9-2.9-2.9H24.5
			l-9-26.8l34.6-16.2c3,11.3,13.3,19.3,25.3,19.3c11.8,0,22-7.8,25.2-18.8L134.2-73l-9,26.8h-15.4c-1.6,0-2.9,1.3-2.9,2.9v63H42.8
			V-43.3z"/>
	</g>
	<g id="Light-L" transform="matrix(1 0 0 1 1079.2 1556)">
		<path d="M99.4-90.9c0.6-1.3,0-2.8-1.3-3.4L98-94.4c-0.3-0.2-0.7-0.2-1.1-0.2H51.9c-1.4,0-2.6,1.2-2.6,2.6c0,1.4,1.2,2.6,2.6,2.6
			h44.4c0.2,0.1,0.5,0.1,0.7,0.1C98.1-89.4,99-90,99.4-90.9z M97.1-92v1.1c-1.9,10.6-11.3,18.7-22.6,18.7
			c-11.3,0-20.7-8.1-22.6-18.8v-1.1H51L12-73.9l10.3,30.7h17.2v64.8h68.8v-64.8h17.2l10.3-30.7L97.1-92z M110.9,21.7v-62.3h14.6
			c1.1,0,2.1-0.7,2.4-1.8l10.3-30.7c0.4-1.2-0.2-2.6-1.4-3.2L98.2-94.3c-0.8-0.4-1.7-0.3-2.5,0.2c-0.7,0.5-1.2,1.3-1.2,2.2v0.8
			c-1.8,9.5-10.2,16.4-20,16.4c-9.8,0-18.2-6.9-20-16.4v-0.9c0-1.4-1.2-2.6-2.6-2.6H51c-0.4,0-0.7,0.1-1.1,0.2l-39,18.2
			c-1.2,0.6-1.8,1.9-1.4,3.2l10.3,30.7c0.4,1.1,1.3,1.8,2.4,1.8H37v62.3c0,1.4,1.2,2.6,2.6,2.6h68.8
			C109.8,24.3,110.9,23.1,110.9,21.7z M42.1-43.2c0-1.4-1.2-2.6-2.6-2.6H24.2l-9-26.8l34.6-16.1c2.8,11.2,13,19.1,24.7,19.1
			c11.6,0,21.6-7.7,24.6-18.6l33.6,15.7l-9,26.8h-15.3c-1.4,0-2.6,1.2-2.6,2.6v62.3H42.1V-43.2z"/>
	</g>
	<g id="Thin-L" transform="matrix(1 0 0 1 783.716 1556)">
		<path d="M97.5-90.1c0.5-1.1,0-2.5-1.1-3l-0.2-0.1c-0.3-0.1-0.6-0.2-1-0.2H51c-1.2,0-2.3,1-2.3,2.3c0,1.2,1,2.3,2.3,2.3h43.8
			c0.2,0.1,0.4,0.1,0.7,0.1C96.3-88.8,97.2-89.3,97.5-90.1z M95.5-91v1.1c-1.9,10.5-11.1,18.4-22.2,18.4c-11.1,0-20.4-8-22.2-18.5
			v-1.1h-0.9L11.8-73.2L21.9-43h16.9v63.8h67.7V-43h16.9l10.2-30.2L95.5-91z M108.8,20.7v-61.5h14.7c1,0,1.8-0.6,2.1-1.5l10.2-30.2
			c0.4-1.1-0.1-2.3-1.2-2.8L96.4-93.1c-0.7-0.3-1.5-0.3-2.2,0.1c-0.7,0.4-1,1.1-1,1.9v0.9c-1.8,9.5-10.2,16.4-20,16.4
			c-9.8,0-18.2-6.9-20-16.4v-0.9c0-1.2-1-2.3-2.3-2.3h-0.9c-0.3,0-0.7,0.1-1,0.2L10.8-75.3c-1,0.5-1.6,1.7-1.2,2.8l10.2,30.2
			c0.3,0.9,1.2,1.5,2.1,1.5h14.7v61.5c0,1.2,1,2.3,2.3,2.3h67.7C107.8,23,108.8,22,108.8,20.7z M41.1-43c0-1.2-1-2.3-2.3-2.3H23.5
			l-9-26.8l34.6-16.1c2.7,11,12.6,18.9,24.2,18.9c11.4,0,21.2-7.6,24-18.4L130.9-72l-9,26.8h-15.3c-1.2,0-2.3,1-2.3,2.3v61.5H41.1
			V-43z"/>
	</g>
	<g id="Ultralight-L" transform="matrix(1 0 0 1 487.631 1556)">
		<path d="M96.3-89.3c0.5-1,0-2.1-0.9-2.6L95.1-92c-0.3-0.1-0.5-0.2-0.8-0.2H50.8c-1.1,0-1.9,0.9-1.9,1.9c0,1.1,0.9,1.9,1.9,1.9
			h43.1c0.2,0.1,0.4,0.1,0.6,0.1C95.2-88.2,95.9-88.6,96.3-89.3z M94.5-90.2v1C92.7-78.8,83.6-71,72.6-71c-10.9,0-20-7.8-21.9-18.2
			v-1.1h-0.9L12.1-72.6l10,29.7h16.7v62.8h66.6v-62.8h16.7l10-29.7L94.5-90.2z M107.3,19.9V-41h14.7c0.8,0,1.6-0.5,1.8-1.3l10-29.7
			c0.3-0.9-0.1-2-1-2.4L95.3-91.9c-0.6-0.3-1.3-0.2-1.9,0.1c-0.6,0.4-0.9,1-0.9,1.6v0.9c-1.8,9.5-10.1,16.4-19.9,16.4
			c-9.8,0-18.2-6.9-19.9-16.4v-0.9c0-1.1-0.9-1.9-1.9-1.9h-0.9c-0.3,0-0.6,0.1-0.8,0.2L11.3-74.4c-0.9,0.4-1.3,1.4-1,2.4l10,29.7
			c0.3,0.8,1,1.3,1.8,1.3h14.7v60.8c0,1.1,0.9,1.9,1.9,1.9h66.7C106.5,21.8,107.3,20.9,107.3,19.9z M40.7-42.9
			c0-1.1-0.9-1.9-1.9-1.9H23.5l-9-26.8l34.6-16.1c2.5,10.9,12.2,18.7,23.6,18.7c11.2,0,20.8-7.6,23.5-18.2l33.6,15.7l-9,26.8h-15.3
			c-1.1,0-1.9,0.9-1.9,1.9v60.8H40.7V-42.9z"/>
	</g>
	<g id="Black-M" transform="matrix(1 0 0 1 2871.36 1126)">
		<path d="M84.8-82.2c0.8-1.7,0.1-3.8-1.7-4.7L83-87c-0.5-0.2-1-0.3-1.5-0.3H43.4c-1.9,0-3.5,1.6-3.5,3.5s1.6,3.5,3.5,3.5h37.5
			c0.3,0.1,0.5,0.1,0.8,0.1C83-80.2,84.2-81,84.8-82.2z M81.7-83.7v0.9c-1.6,9.1-9.6,16-19.1,16c-9.6,0-17.5-6.9-19.1-16v-1h-0.8
			L9.5-68.3l8.8,26.2h14.6v55.3h58.3v-55.3h14.6l8.8-26.2L81.7-83.7z M94.7,13.3v-51.8h11.1c1.5,0,2.8-1,3.3-2.4l8.8-26.2
			c0.6-1.7-0.2-3.5-1.8-4.3L83.2-86.9c-1.1-0.5-2.4-0.4-3.4,0.2c-1,0.6-1.6,1.8-1.6,3v0.6c-1.5,7.4-8,12.8-15.6,12.8
			c-7.7,0-14.2-5.4-15.6-12.8v-0.6c0-1.9-1.6-3.5-3.5-3.5h-0.8c-0.5,0-1,0.1-1.5,0.3L8.1-71.4c-1.6,0.8-2.4,2.6-1.8,4.3L15-40.9
			c0.5,1.4,1.8,2.4,3.3,2.4h11.1v51.8c0,1.9,1.6,3.5,3.5,3.5h58.3C93.1,16.8,94.7,15.2,94.7,13.3z M36.4-42.1c0-1.9-1.6-3.5-3.5-3.5
			H20.8l-7-20.9l26.9-12.6c3,9.3,11.8,15.7,21.8,15.7c9.9,0,18.5-6.3,21.7-15.3l26,12.2l-7,20.9H91.2c-1.9,0-3.5,1.6-3.5,3.5V9.8
			H36.4V-42.1z"/>
	</g>
	<g id="Heavy-M" transform="matrix(1 0 0 1 2575.48 1126)">
		<path d="M83.5-81.6c0.8-1.6,0.1-3.6-1.6-4.3L81.8-86c-0.4-0.2-0.9-0.3-1.4-0.3H42.8c-1.8,0-3.3,1.5-3.3,3.3s1.5,3.3,3.3,3.3h37
			c0.2,0.1,0.5,0.1,0.7,0.1C81.8-79.7,82.9-80.4,83.5-81.6z M80.6-83v0.9c-1.6,8.9-9.4,15.7-18.9,15.7c-9.4,0-17.3-6.8-18.9-15.8v-1
			H42L9.5-67.7l8.6,25.8h14.4v54.5H90v-54.5h14.4l8.6-25.8L80.6-83z M93.2,12.5v-51.2h11.1c1.4,0,2.6-0.9,3.1-2.2l8.6-25.8
			c0.5-1.6-0.2-3.3-1.7-4L81.9-85.9c-1-0.5-2.2-0.4-3.1,0.2c-0.9,0.6-1.5,1.6-1.5,2.7v0.6c-1.5,7.4-8,12.8-15.6,12.8
			c-7.6,0-14.2-5.4-15.6-12.8V-83c0-1.8-1.5-3.3-3.3-3.3H42c-0.5,0-0.9,0.1-1.4,0.3L8.1-70.7c-1.5,0.7-2.2,2.4-1.7,4L15-40.9
			c0.4,1.3,1.7,2.2,3.1,2.2h11.1v51.2c0,1.8,1.5,3.3,3.3,3.3H90C91.8,15.8,93.2,14.3,93.2,12.5z M35.7-41.9c0-1.8-1.5-3.3-3.3-3.3
			h-12l-7-20.8l26.9-12.6c2.9,9.2,11.5,15.6,21.4,15.6c9.7,0,18.2-6.2,21.2-15.2L109-66l-7,20.8H90c-1.8,0-3.3,1.5-3.3,3.3V9.3h-51
			V-41.9z"/>
	</g>
	<g id="Bold-M" transform="matrix(1 0 0 1 2279.69 1126)">
		<path d="M82.1-80.9c0.7-1.5,0.1-3.3-1.4-4L80.4-85c-0.4-0.2-0.8-0.3-1.3-0.3h-37c-1.7,0-3,1.3-3,3s1.3,3,3,3h36.5
			c0.2,0.1,0.5,0.1,0.7,0.1C80.5-79.2,81.6-79.8,82.1-80.9z M79.4-82.2v0.9c-1.6,8.8-9.3,15.5-18.6,15.5c-9.3,0-17-6.7-18.6-15.5
			v-0.9h-0.8l-32.1,15l8.5,25.4H32v53.6h56.7v-53.6h14.2l8.5-25.4L79.4-82.2z M91.6,11.8v-50.6h11.2c1.3,0,2.4-0.8,2.8-2l8.5-25.4
			c0.5-1.4-0.2-3-1.6-3.7l-31.9-15c-0.9-0.4-2-0.4-2.9,0.2c-0.9,0.6-1.4,1.5-1.4,2.5v0.6c-1.4,7.4-8,12.8-15.6,12.8
			c-7.6,0-14.2-5.4-15.6-12.8v-0.7c0-1.7-1.3-3-3-3h-0.8c-0.4,0-0.9,0.1-1.3,0.3L8-70c-1.4,0.6-2.1,2.2-1.6,3.7l8.5,25.4
			c0.4,1.2,1.6,2,2.8,2h11.2v50.6c0,1.7,1.3,3,3,3h56.7C90.3,14.8,91.6,13.4,91.6,11.8z M34.9-41.8c0-1.7-1.3-3-3-3h-12l-7-20.8
			l26.8-12.6c2.8,9.1,11.2,15.4,20.9,15.4c9.6,0,17.9-6.2,20.8-15l26,12.2l-7,20.8h-12c-1.7,0-3,1.3-3,3V8.8H34.9V-41.8z"/>
	</g>
	<g id="Semibold-M" transform="matrix(1 0 0 1 1983.62 1126)">
		<path d="M80.9-80.3c0.6-1.4,0.1-3-1.3-3.7L79.4-84c-0.4-0.2-0.8-0.3-1.2-0.3H41.8c-1.5,0-2.8,1.2-2.8,2.8s1.2,2.8,2.8,2.8h36
			c0.2,0.1,0.4,0.1,0.7,0.1C79.5-78.7,80.4-79.3,80.9-80.3z M78.4-81.5v0.9c-1.6,8.7-9.2,15.2-18.3,15.2c-9.2,0-16.8-6.6-18.3-15.3
			v-0.9H41L9.4-66.7l8.4,25h14V11h55.8v-52.8h14l8.4-25L78.4-81.5z M90.3,11v-50h11.2c1.2,0,2.2-0.8,2.6-1.9l8.4-25
			c0.4-1.3-0.2-2.8-1.4-3.4L79.6-84c-0.9-0.4-1.8-0.3-2.6,0.2c-0.8,0.5-1.3,1.4-1.3,2.3v0.6c-1.4,7.4-8,12.7-15.6,12.7
			c-7.6,0-14.1-5.4-15.6-12.8v-0.7c0-1.5-1.2-2.8-2.8-2.8H41c-0.4,0-0.8,0.1-1.2,0.3L8.2-69.2c-1.3,0.6-1.9,2-1.4,3.4l8.4,25
			c0.4,1.1,1.4,1.9,2.6,1.9H29v50c0,1.5,1.2,2.8,2.8,2.8h55.8C89.1,13.8,90.3,12.5,90.3,11z M34.5-41.7c0-1.5-1.2-2.8-2.8-2.8h-12
			l-7-20.8l26.8-12.6c2.6,9,10.9,15.2,20.5,15.2c9.4,0,17.6-6.1,20.4-14.9l26,12.2l-7,20.8h-12c-1.5,0-2.8,1.2-2.8,2.8v50H34.5
			V-41.7z"/>
	</g>
	<g id="Medium-M" transform="matrix(1 0 0 1 1687.4 1126)">
		<path d="M79.9-79.7c0.6-1.3,0-2.7-1.2-3.3l-0.2-0.1c-0.3-0.2-0.7-0.2-1.1-0.2H41.6c-1.4,0-2.5,1.1-2.5,2.5s1.1,2.5,2.5,2.5H77
			c0.2,0.1,0.4,0.1,0.6,0.1C78.6-78.2,79.5-78.8,79.9-79.7z M77.7-80.7v0.9c-1.5,8.5-9,15-18,15c-9,0-16.5-6.5-18.1-15v-0.9h-0.7
			L9.7-66.2l8.3,24.6h13.8v51.9h55v-51.9h13.7l8.3-24.6L77.7-80.7z M89.2,10.3v-49.4h11.3c1.1,0,2-0.7,2.4-1.7l8.3-24.6
			c0.4-1.2-0.2-2.5-1.3-3.1L78.7-83c-0.8-0.4-1.7-0.3-2.4,0.2c-0.7,0.5-1.2,1.3-1.2,2.1v0.6c-1.4,7.4-7.9,12.7-15.5,12.7
			c-7.6,0-14.1-5.4-15.6-12.8v-0.7c0-1.4-1.1-2.5-2.5-2.5h-0.7c-0.4,0-0.7,0.1-1.1,0.2L8.6-68.5c-1.2,0.5-1.7,1.9-1.3,3.1l8.3,24.6
			c0.3,1,1.3,1.7,2.4,1.7h11.3v49.4c0,1.4,1.1,2.5,2.5,2.5h55C88,12.8,89.2,11.7,89.2,10.3z M34.2-41.6c0-1.4-1.1-2.5-2.5-2.5h-12
			l-7-20.8l26.8-12.5c2.5,8.9,10.6,15.1,20.1,15.1c9.3,0,17.3-6.1,19.9-14.7l26,12.2l-7,20.8h-12c-1.4,0-2.5,1.1-2.5,2.5V7.8h-50
			V-41.6z"/>
	</g>
	<g id="Regular-M" transform="matrix(1 0 0 1 1391.32 1126)">
		<path d="M78.8-79c0.5-1.1,0-2.5-1.1-3l-0.2-0.1c-0.3-0.1-0.6-0.2-1-0.2H41.2c-1.2,0-2.3,1-2.3,2.3s1,2.3,2.3,2.3h35
			c0.2,0.1,0.4,0.1,0.6,0.1C77.6-77.8,78.4-78.2,78.8-79z M76.7-80v0.8c-1.5,8.4-8.9,14.8-17.8,14.8c-8.9,0-16.3-6.4-17.8-14.8v-0.9
			h-0.7L9.8-65.7l8.1,24.2h13.5V9.6h54.2v-51.1h13.5l8.1-24.2L76.7-80z M87.9,9.6v-48.8h11.3c1,0,1.8-0.6,2.1-1.5l8.1-24.2
			c0.4-1.1-0.1-2.3-1.2-2.8L77.7-82c-0.7-0.3-1.5-0.3-2.2,0.1c-0.6,0.4-1,1.1-1,1.9v0.6C73.1-72,66.6-66.6,59-66.6
			c-7.6,0-14.1-5.3-15.5-12.7v-0.7c0-1.2-1-2.3-2.3-2.3h-0.7c-0.3,0-0.7,0.1-1,0.2L8.8-67.8c-1,0.5-1.5,1.7-1.2,2.8l8.1,24.2
			c0.3,0.9,1.2,1.5,2.1,1.5h11.3V9.6c0,1.2,1,2.3,2.3,2.3h54.2C86.8,11.8,87.9,10.8,87.9,9.6z M33.7-41.5c0-1.2-1-2.3-2.3-2.3H19.5
			l-7-20.8l26.8-12.5c2.4,8.8,10.3,14.9,19.6,14.9c9.1,0,17-6,19.5-14.6l26,12.2l-7,20.8H85.6c-1.2,0-2.3,1-2.3,2.3V7.3H33.7V-41.5z
			"/>
	</g>
	<g id="Light-M" transform="matrix(1 0 0 1 1095.44 1126)">
		<path d="M77.5-78.4c0.5-1,0-2.2-1-2.7l-0.2-0.1c-0.3-0.1-0.6-0.2-0.8-0.2H40.6c-1.1,0-2,0.9-2,2s0.9,2,2,2h34.5
			c0.2,0.1,0.4,0.1,0.6,0.1C76.4-77.3,77.1-77.7,77.5-78.4z M75.6-79.3v0.8c-1.5,8.3-8.8,14.5-17.5,14.5c-8.8,0-16-6.3-17.5-14.6
			v-0.9h-0.7L9.7-65.2l8,23.8H31V8.8h53.3v-50.3h13.3l8-23.8L75.6-79.3z M86.4,8.8v-48.3h11.3c0.9,0,1.6-0.5,1.9-1.4l8-23.8
			c0.3-1-0.1-2-1-2.4l-30.1-14c-0.6-0.3-1.3-0.2-1.9,0.1c-0.6,0.4-0.9,1-0.9,1.7v0.6c-1.4,7.4-7.9,12.7-15.5,12.7
			c-7.6,0-14.1-5.3-15.5-12.7v-0.7c0-1.1-0.9-2-2-2h-0.7c-0.3,0-0.6,0.1-0.8,0.2L8.8-67.1c-0.9,0.4-1.4,1.5-1,2.4l8,23.8
			c0.3,0.8,1,1.4,1.9,1.4H29V8.8c0,1.1,0.9,2,2,2h53.3C85.5,10.8,86.4,9.9,86.4,8.8z M33-41.4c0-1.1-0.9-2-2-2H19.1l-7-20.8L39-76.7
			c2.2,8.6,10,14.8,19.2,14.8c9,0,16.7-6,19.1-14.4l26,12.1l-7,20.8H84.4c-1.1,0-2,0.9-2,2V6.8H33V-41.4z"/>
	</g>
	<g id="Thin-M" transform="matrix(1 0 0 1 799.828 1126)">
		<path d="M75.8-77.8c0.4-0.9,0-1.9-0.8-2.3l-0.2-0.1c-0.2-0.1-0.5-0.2-0.7-0.2H39.8c-1,0-1.8,0.8-1.8,1.8s0.8,1.8,1.8,1.8h33.9
			c0.2,0.1,0.3,0.1,0.5,0.1C74.9-76.8,75.5-77.2,75.8-77.8z M74.3-78.5v0.8c-1.5,8.1-8.6,14.3-17.2,14.3c-8.6,0-15.8-6.2-17.2-14.3
			v-0.9h-0.7L9.3-64.7l7.9,23.4h13.1V8.1h52.5v-49.4H96l7.9-23.4L74.3-78.5z M84.6,8.1v-47.7H96c0.8,0,1.4-0.5,1.7-1.2l7.9-23.4
			c0.3-0.8-0.1-1.8-0.9-2.1L75-80.1c-0.5-0.3-1.2-0.2-1.7,0.1c-0.5,0.3-0.8,0.9-0.8,1.5v0.7c-1.4,7.4-7.9,12.7-15.5,12.7
			c-7.6,0-14.1-5.3-15.5-12.7v-0.7c0-1-0.8-1.8-1.8-1.8h-0.7c-0.3,0-0.5,0.1-0.7,0.2L8.6-66.3C7.8-66,7.4-65,7.7-64.2l7.9,23.4
			c0.2,0.7,0.9,1.2,1.7,1.2h11.4V8.1c0,1,0.8,1.8,1.8,1.8h52.5C83.8,9.9,84.6,9.1,84.6,8.1z M32.1-41.3c0-1-0.8-1.8-1.8-1.8H18.5
			l-7-20.7l26.8-12.5c2.1,8.5,9.8,14.6,18.7,14.6c8.8,0,16.4-5.9,18.6-14.3l26,12.1l-7,20.7H82.8c-1,0-1.8,0.8-1.8,1.8V6.4h-49
			V-41.3z"/>
	</g>
	<g id="Ultralight-M" transform="matrix(1 0 0 1 503.679 1126)">
		<path d="M74.8-77.2c0.4-0.8,0-1.6-0.7-2l-0.2-0.1c-0.2-0.1-0.4-0.1-0.6-0.1H39.5c-0.8,0-1.5,0.7-1.5,1.5s0.7,1.5,1.5,1.5h33.4
			c0.2,0.1,0.3,0.1,0.5,0.1C74-76.4,74.5-76.7,74.8-77.2z M73.4-77.9v0.8c-1.4,8-8.5,14.1-17,14.1c-8.5,0-15.5-6.1-17-14.1v-0.9
			h-0.7L9.5-64.3l7.8,23h12.9V7.4h51.7v-48.7h12.9l7.8-23L73.4-77.9z M83.4,7.4v-47.2h11.4c0.6,0,1.2-0.4,1.4-1l7.8-23
			c0.2-0.7-0.1-1.5-0.8-1.8L74.1-79.2c-0.5-0.2-1-0.2-1.4,0.1s-0.7,0.8-0.7,1.3v0.7c-1.4,7.4-7.9,12.7-15.5,12.7
			c-7.6,0-14.1-5.3-15.5-12.7v-0.7c0-0.8-0.7-1.5-1.5-1.5h-0.7c-0.2,0-0.4,0-0.6,0.1L8.9-65.6c-0.7,0.3-1,1.1-0.8,1.8l7.8,23
			c0.2,0.6,0.8,1,1.4,1h11.4V7.4c0,0.8,0.7,1.5,1.5,1.5h51.7C82.7,8.9,83.4,8.2,83.4,7.4z M31.7-41.2c0-0.8-0.7-1.5-1.5-1.5H18.4
			l-7-20.8L38.2-76c1.9,8.4,9.5,14.5,18.3,14.5c8.7,0,16.2-5.9,18.2-14.1l26,12.1l-7,20.8H81.9c-0.8,0-1.5,0.7-1.5,1.5V5.9H31.7
			V-41.2z"/>
	</g>
	<g id="Black-S" transform="matrix(1 0 0 1 2884.57 696)">
		<path d="M66.7-71.9c0.6-1.4,0.1-3-1.3-3.6l-0.1-0.1c-0.4-0.2-0.8-0.3-1.2-0.3H34.2c-1.5,0-2.7,1.2-2.7,2.7c0,1.5,1.2,2.7,2.7,2.7
			h29.4c0.2,0,0.4,0.1,0.6,0.1C65.2-70.3,66.2-70.9,66.7-71.9z M64.2-73.1v0.7c-1.3,7.1-7.5,12.5-15,12.5c-7.5,0-13.7-5.4-15-12.5
			v-0.8h-0.6L7.7-61l6.9,20.5H26V2.9h45.7v-43.3h11.4L89.9-61L64.2-73.1z M74.4,2.9v-40.6h8.7c1.2,0,2.2-0.8,2.6-1.9l6.9-20.5
			c0.4-1.3-0.2-2.8-1.4-3.3L65.4-75.6c-0.8-0.4-1.8-0.3-2.6,0.2c-0.8,0.5-1.3,1.4-1.3,2.3v0.5c-1.2,5.8-6.3,10-12.2,10
			c-6,0-11.1-4.2-12.3-10.1v-0.5c0-1.5-1.2-2.7-2.7-2.7h-0.6c-0.4,0-0.8,0.1-1.2,0.3L6.6-63.5c-1.3,0.6-1.9,2-1.4,3.3L12-39.6
			c0.4,1.1,1.4,1.9,2.6,1.9h8.7V2.9c0,1.5,1.2,2.7,2.7,2.7h45.7C73.2,5.6,74.4,4.4,74.4,2.9z M28.7-40.5c0-1.5-1.2-2.7-2.7-2.7h-9.4
			l-5.5-16.3l21-9.9c2.4,7.3,9.2,12.3,17.1,12.3c7.8,0,14.5-4.9,17-12l20.4,9.6l-5.5,16.3h-9.4c-1.5,0-2.7,1.2-2.7,2.7V0.1H28.7
			V-40.5z"/>
	</g>
	<g id="Heavy-S" transform="matrix(1 0 0 1 2588.47 696)">
		<path d="M65.7-71.4c0.6-1.3,0.1-2.8-1.2-3.4l-0.1-0.1c-0.3-0.2-0.7-0.2-1.1-0.2H33.8c-1.4,0-2.5,1.1-2.5,2.5s1.1,2.5,2.5,2.5h29
			c0.2,0,0.4,0.1,0.6,0.1C64.3-69.9,65.2-70.5,65.7-71.4z M63.4-72.5v0.7c-1.3,7-7.4,12.3-14.8,12.3c-7.4,0-13.5-5.3-14.8-12.3v-0.7
			h-0.6l-25.5,12l6.8,20.2h11.3V2.3h45v-42.6H82l6.8-20.2L63.4-72.5z M73.3,2.3v-40.1H82c1.1,0,2.1-0.7,2.4-1.7l6.8-20.2
			c0.4-1.2-0.2-2.6-1.3-3.1L64.5-74.8c-0.8-0.4-1.7-0.3-2.4,0.2c-0.7,0.5-1.2,1.3-1.2,2.1v0.5c-1.1,5.8-6.3,10-12.2,10
			c-6,0-11.1-4.2-12.2-10v-0.5c0-1.4-1.1-2.5-2.5-2.5h-0.6c-0.4,0-0.7,0.1-1.1,0.2l-25.5,12c-1.2,0.5-1.7,1.9-1.3,3.1L12-39.6
			c0.3,1,1.3,1.7,2.4,1.7h8.7V2.3c0,1.4,1.1,2.5,2.5,2.5h45C72.1,4.8,73.3,3.7,73.3,2.3z M28.3-40.4c0-1.4-1.1-2.5-2.5-2.5h-9.4
			l-5.5-16.3l21-9.9c2.3,7.2,9,12.2,16.7,12.2c7.6,0,14.3-4.9,16.6-11.9l20.4,9.6l-5.5,16.3h-9.4c-1.4,0-2.5,1.1-2.5,2.5v40.1H28.3
			V-40.4z"/>
	</g>
	<g id="Bold-S" transform="matrix(1 0 0 1 2292.43 696)">
		<path d="M64.6-70.9c0.5-1.2,0-2.6-1.1-3.1l-0.1-0.1c-0.3-0.1-0.7-0.2-1-0.2h-29c-1.3,0-2.3,1.1-2.3,2.3c0,1.3,1.1,2.3,2.3,2.3
			h28.6c0.2,0,0.4,0.1,0.6,0.1C63.4-69.6,64.2-70.1,64.6-70.9z M62.5-71.9v0.7c-1.2,6.9-7.3,12.1-14.6,12.1
			c-7.3,0-13.3-5.2-14.6-12.2V-72h-0.6L7.6-60.2l6.7,19.9h11.1v42h44.4v-42h11.1l6.7-19.9L62.5-71.9z M72.1,1.7V-38h8.7
			c1,0,1.9-0.6,2.2-1.6l6.7-19.9c0.4-1.1-0.2-2.4-1.2-2.9L63.5-74c-0.7-0.3-1.6-0.3-2.3,0.1c-0.7,0.4-1.1,1.2-1.1,2v0.5
			c-1.1,5.8-6.2,10-12.2,10c-6,0-11.1-4.2-12.2-10V-72c0-1.3-1.1-2.3-2.3-2.3h-0.6c-0.3,0-0.7,0.1-1,0.2L6.6-62.3
			c-1.1,0.5-1.6,1.7-1.2,2.9L12-39.6c0.3,1,1.2,1.6,2.2,1.6H23V1.7C23,3,24.1,4,25.4,4h44.4C71,4,72.1,3,72.1,1.7z M27.7-40.3
			c0-1.3-1.1-2.3-2.3-2.3H16l-5.5-16.3l21-9.9c2.2,7.1,8.8,12.1,16.4,12.1c7.5,0,14-4.8,16.3-11.8l20.4,9.5l-5.5,16.3h-9.4
			c-1.3,0-2.3,1.1-2.3,2.3v39.6H27.7V-40.3z"/>
	</g>
	<g id="Semibold-S" transform="matrix(1 0 0 1 1996.19 696)">
		<path d="M63.7-70.4c0.5-1.1,0-2.4-1-2.9l-0.1-0.1c-0.3-0.1-0.6-0.2-0.9-0.2H33.1c-1.2,0-2.2,1-2.2,2.2c0,1.2,1,2.2,2.2,2.2h28.2
			c0.2,0,0.3,0.1,0.5,0.1C62.6-69.2,63.4-69.6,63.7-70.4z M61.8-71.3v0.7c-1.2,6.8-7.2,11.9-14.3,11.9c-7.2,0-13.1-5.2-14.3-12v-0.7
			h-0.6L7.7-59.8l6.6,19.6h10.9V1.1h43.7v-41.3h10.9l6.6-19.6L61.8-71.3z M71.1,1.1v-39.2h8.8c0.9,0,1.7-0.6,2-1.5l6.6-19.6
			c0.3-1-0.1-2.2-1.1-2.6L62.7-73.3c-0.7-0.3-1.4-0.3-2.1,0.1c-0.6,0.4-1,1.1-1,1.8v0.5c-1.1,5.8-6.2,10-12.2,10
			c-6,0-11.1-4.2-12.2-10v-0.5c0-1.2-1-2.2-2.2-2.2h-0.6c-0.3,0-0.6,0.1-0.9,0.2L6.8-61.7c-1,0.5-1.5,1.6-1.1,2.6l6.6,19.6
			c0.3,0.9,1.1,1.5,2,1.5h8.8V1.1c0,1.2,1,2.2,2.2,2.2h43.7C70.1,3.2,71.1,2.3,71.1,1.1z M27.4-40.2c0-1.2-1-2.2-2.2-2.2h-9.4
			l-5.5-16.3l21-9.8c2.1,7,8.5,11.9,16,11.9c7.4,0,13.8-4.8,16-11.6l20.4,9.5l-5.5,16.3h-9.4c-1.2,0-2.2,1-2.2,2.2v39.2H27.4V-40.2z
			"/>
	</g>
	<g id="Medium-S" transform="matrix(1 0 0 1 1699.83 696)">
		<path d="M63-69.9c0.5-1,0-2.1-0.9-2.6l-0.1-0.1c-0.3-0.1-0.5-0.2-0.8-0.2H32.9c-1.1,0-2,0.9-2,2s0.9,2,2,2h27.8
			c0.2,0,0.3,0.1,0.5,0.1C62-68.8,62.7-69.2,63-69.9z M61.2-70.8v0.7c-1.2,6.7-7.1,11.7-14.1,11.7c-7.1,0-12.9-5.1-14.1-11.8v-0.7
			h-0.6L8-59.4l6.5,19.3h10.8V0.5h43.1v-40.7H79l6.5-19.3L61.2-70.8z M70.2,0.5v-38.7H79c0.8,0,1.6-0.5,1.9-1.3l6.5-19.3
			c0.3-0.9-0.1-2-1-2.4L62-72.5c-0.6-0.3-1.3-0.2-1.9,0.1c-0.6,0.4-0.9,1-0.9,1.7v0.5c-1.1,5.8-6.2,10-12.2,10
			c-6,0-11.1-4.2-12.2-10v-0.5c0-1.1-0.9-2-2-2h-0.6c-0.3,0-0.6,0.1-0.8,0.2L7.1-61.2c-0.9,0.4-1.3,1.5-1,2.4l6.5,19.3
			c0.3,0.8,1,1.3,1.9,1.3h8.8V0.5c0,1.1,0.9,2,2,2h43.1C69.3,2.5,70.2,1.6,70.2,0.5z M27.2-40.1c0-1.1-0.9-2-2-2h-9.4l-5.5-16.3
			l21-9.8c2,6.9,8.3,11.8,15.7,11.8c7.3,0,13.6-4.7,15.6-11.5l20.4,9.5l-5.5,16.3h-9.4c-1.1,0-2,0.9-2,2v38.7H27.2V-40.1z"/>
	</g>
	<g id="Regular-S" transform="matrix(1 0 0 1 1403.58 696)">
		<path d="M62.1-69.4c0.4-0.9,0-1.9-0.9-2.3l-0.1-0.1c-0.2-0.1-0.5-0.2-0.7-0.2H32.7c-1,0-1.8,0.8-1.8,1.8s0.8,1.8,1.8,1.8h27.4
			c0.2,0,0.3,0.1,0.5,0.1C61.2-68.4,61.8-68.8,62.1-69.4z M60.5-70.2v0.7c-1.2,6.6-7,11.6-13.9,11.6c-7,0-12.8-5-13.9-11.6v-0.7
			h-0.6L8.1-59l6.4,19h10.6v40h42.4v-40h10.6l6.4-19L60.5-70.2z M69.2-0.1v-38.2h8.8c0.8,0,1.4-0.5,1.7-1.2l6.4-19
			c0.3-0.8-0.1-1.8-0.9-2.2L61.3-71.8c-0.5-0.3-1.2-0.2-1.7,0.1c-0.5,0.3-0.8,0.9-0.8,1.5v0.5c-1.1,5.8-6.2,10-12.2,10
			c-6,0-11.1-4.2-12.2-10v-0.5c0-1-0.8-1.8-1.8-1.8h-0.6c-0.3,0-0.5,0.1-0.7,0.2l-24,11.2c-0.8,0.4-1.2,1.3-0.9,2.2l6.4,19
			c0.2,0.7,0.9,1.2,1.7,1.2h8.8v38.2c0,1,0.8,1.8,1.8,1.8h42.4C68.4,1.7,69.2,0.9,69.2-0.1z M26.8-40.1c0-1-0.8-1.8-1.8-1.8h-9.3
			l-5.5-16.3l21-9.8c1.8,6.9,8.1,11.7,15.4,11.7c7.2,0,13.3-4.7,15.3-11.4l20.4,9.5l-5.5,16.3h-9.3c-1,0-1.8,0.8-1.8,1.8v38.2H26.8
			V-40.1z"/>
	</g>
	<g id="Light-S" transform="matrix(1 0 0 1 1107.6 696)">
		<path d="M61-69c0.4-0.8,0-1.7-0.8-2.1l-0.1-0.1c-0.2-0.1-0.4-0.1-0.7-0.1H32.2c-0.9,0-1.6,0.7-1.6,1.6c0,0.9,0.7,1.6,1.6,1.6h27
			c0.1,0,0.3,0.1,0.4,0.1C60.2-68,60.7-68.4,61-69z M59.6-69.6v0.7c-1.2,6.5-6.9,11.4-13.7,11.4c-6.9,0-12.6-4.9-13.7-11.4v-0.7
			h-0.6l-23.7,11L14.2-40h10.4v39.4h41.8V-40h10.4l6.3-18.6L59.6-69.6z M68-0.6v-37.8h8.9c0.7,0,1.3-0.4,1.5-1.1l6.3-18.6
			c0.3-0.8-0.1-1.6-0.8-1.9L60.2-71c-0.5-0.2-1.1-0.2-1.5,0.1c-0.5,0.3-0.7,0.8-0.7,1.3v0.5c-1.1,5.8-6.2,9.9-12.1,9.9
			c-6,0-11-4.2-12.1-10v-0.5c0-0.9-0.7-1.6-1.6-1.6h-0.6c-0.2,0-0.5,0.1-0.7,0.1L7.3-60c-0.7,0.3-1.1,1.2-0.8,1.9l6.3,18.6
			c0.2,0.6,0.8,1.1,1.5,1.1h8.9v37.8c0,0.9,0.7,1.6,1.6,1.6h41.8C67.3,0.9,68,0.2,68-0.6z M26.2-40c0-0.9-0.7-1.6-1.6-1.6h-9.3
			L9.9-57.8l21-9.8c1.7,6.8,7.9,11.6,15,11.6c7,0,13.1-4.7,14.9-11.3l20.4,9.5l-5.5,16.3h-9.3c-0.9,0-1.6,0.7-1.6,1.6v37.8H26.2V-40
			z"/>
	</g>
	<g id="Thin-S" transform="matrix(1 0 0 1 811.863 696)">
		<path d="M59.6-68.5c0.3-0.7,0-1.5-0.7-1.8l-0.1-0.1c-0.2-0.1-0.4-0.1-0.6-0.1H31.4c-0.8,0-1.4,0.6-1.4,1.4c0,0.8,0.6,1.4,1.4,1.4
			H58c0.1,0,0.3,0.1,0.4,0.1C58.9-67.7,59.4-68,59.6-68.5z M58.4-69v0.6c-1.1,6.4-6.7,11.2-13.5,11.2c-6.7,0-12.4-4.8-13.5-11.2
			v-0.7h-0.6L7.6-58.2l6.2,18.3H24v38.7h41.1v-38.7h10.3l6.2-18.3L58.4-69z M66.5-1.2v-37.3h8.9c0.6,0,1.1-0.4,1.3-0.9l6.2-18.3
			c0.2-0.7-0.1-1.4-0.7-1.7L59-70.3c-0.4-0.2-0.9-0.2-1.3,0.1C57.3-69.9,57-69.5,57-69v0.5c-1.1,5.8-6.2,9.9-12.1,9.9
			c-6,0-11-4.2-12.1-10v-0.6c0-0.8-0.6-1.4-1.4-1.4h-0.6c-0.2,0-0.4,0-0.6,0.1L7-59.5c-0.6,0.3-0.9,1-0.7,1.7l6.2,18.3
			c0.2,0.6,0.7,0.9,1.3,0.9h8.9v37.3c0,0.8,0.6,1.4,1.4,1.4h41.1C65.9,0.2,66.5-0.4,66.5-1.2z M25.4-39.9c0-0.8-0.6-1.4-1.4-1.4
			h-9.3L9.3-57.5l21-9.8c1.6,6.7,7.6,11.5,14.7,11.5c6.9,0,12.9-4.6,14.6-11.2l20.4,9.5l-5.5,16.2h-9.3c-0.8,0-1.4,0.6-1.4,1.4v37.3
			H25.4V-39.9z"/>
	</g>
	<g id="Ultralight-S" transform="matrix(1 0 0 1 515.649 696)">
		<path d="M58.7-68c0.3-0.6,0-1.3-0.6-1.6L58-69.6c-0.2-0.1-0.3-0.1-0.5-0.1H31.1c-0.6,0-1.2,0.5-1.2,1.2c0,0.6,0.5,1.2,1.2,1.2
			h26.2c0.1,0,0.2,0.1,0.4,0.1C58.1-67.3,58.5-67.6,58.7-68z M57.7-68.5v0.6c-1.1,6.3-6.6,11-13.3,11c-6.6,0-12.2-4.8-13.3-11v-0.7
			h-0.5L7.7-57.9l6.1,18h10.1v38.1h40.5v-38.1h10.1l6.1-18L57.7-68.5z M65.5-1.7v-36.9h8.9c0.5,0,1-0.3,1.1-0.8l6.1-18
			c0.2-0.6-0.1-1.2-0.6-1.4L58.2-69.6c-0.4-0.2-0.8-0.1-1.1,0.1c-0.3,0.2-0.5,0.6-0.5,1v0.5c-1.1,5.8-6.2,9.9-12.1,9.9
			c-6,0-11-4.2-12.1-10v-0.6c0-0.6-0.5-1.2-1.2-1.2h-0.5c-0.2,0-0.3,0-0.5,0.1L7.2-58.9c-0.5,0.3-0.8,0.9-0.6,1.4l6.1,18
			c0.2,0.5,0.6,0.8,1.1,0.8h8.9v36.9c0,0.6,0.5,1.2,1.2,1.2h40.5C64.9-0.6,65.5-1.1,65.5-1.7z M25-39.8c0-0.6-0.5-1.2-1.2-1.2h-9.3
			L9.1-57.3l21-9.8c1.5,6.6,7.4,11.4,14.3,11.4c6.8,0,12.6-4.6,14.2-11.1L79-57.3L73.6-41h-9.3c-0.6,0-1.2,0.5-1.2,1.2v36.9H25
			V-39.8z"/>
	</g>
</g>
</svg>
