<?xml version="1.0" encoding="utf-8"?>
<!-- Generator: Adobe Illustrator 24.1.1, SVG Export Plug-In . SVG Version: 6.00 Build 0)  -->
<svg version="1.1" id="Layer_1" xmlns="http://www.w3.org/2000/svg" xmlns:xlink="http://www.w3.org/1999/xlink" x="0px" y="0px"
	 viewBox="0 0 3300 2200" style="enable-background:new 0 0 3300 2200;" xml:space="preserve">
<style type="text/css">
	.st0{fill:#FFFFFF;}
	.st1{fill:none;stroke:#000000;stroke-width:0.5;}
	.st2{font-family:'Arial-BoldMT';}
	.st3{font-size:13px;}
	.st4{font-family:'ArialMT';}
	.st5{fill:none;stroke:#00AEEF;stroke-width:0.5;}
	.st6{fill:#27AAE1;}
	.st7{fill:none;stroke:#27AAE1;stroke-width:0.5;}
</style>
<g id="Notes">
	<rect id="artboard" class="st0" width="3300" height="2200"/>
	<line class="st1" x1="263" y1="292" x2="3036" y2="292"/>
	<text transform="matrix(1 0 0 1 263 322)" class="st2 st3">Weight/Scale Variations</text>
	<text transform="matrix(1 0 0 1 534.0633 322)" class="st4 st3">Ultralight</text>
	<text transform="matrix(1 0 0 1 843.7775 322)" class="st4 st3">Thin</text>
	<text transform="matrix(1 0 0 1 1139.035 322)" class="st4 st3">Light</text>
	<text transform="matrix(1 0 0 1 1427.0773 322)" class="st4 st3">Regular</text>
	<text transform="matrix(1 0 0 1 1723.4419 322)" class="st4 st3">Medium</text>
	<text transform="matrix(1 0 0 1 2016.1719 322)" class="st4 st3">Semibold</text>
	<text transform="matrix(1 0 0 1 2326.9705 322)" class="st4 st3">Bold</text>
	<text transform="matrix(1 0 0 1 2618.2659 322)" class="st4 st3">Heavy</text>
	<text transform="matrix(1 0 0 1 2917.5054 322)" class="st4 st3">Black</text>
	<line class="st1" x1="263" y1="1903" x2="3036" y2="1903"/>
	<g transform="matrix(1 0 0 1 263 1933)">
		<path d="M9.2,0.8c1.1,0,2.1-0.2,3-0.6c1-0.4,1.8-1,2.5-1.7c0.7-0.7,1.3-1.6,1.7-2.5c0.4-1,0.6-2,0.6-3s-0.2-2.1-0.6-3
			c-0.4-1-1-1.8-1.7-2.5c-0.7-0.7-1.6-1.3-2.5-1.7c-1-0.4-2-0.6-3-0.6c-1.1,0-2.1,0.2-3,0.6s-1.8,1-2.5,1.7C3-11.9,2.4-11,2-10.1
			c-0.4,1-0.6,2-0.6,3S1.6-5,2-4c0.4,1,1,1.8,1.7,2.5s1.6,1.3,2.5,1.7C7.2,0.6,8.2,0.8,9.2,0.8z M9.2-0.7c-0.9,0-1.7-0.2-2.5-0.5
			C6-1.5,5.3-1.9,4.7-2.5c-0.6-0.6-1-1.3-1.4-2C3-5.3,2.9-6.2,2.9-7.1c0-0.9,0.2-1.7,0.5-2.5c0.3-0.8,0.8-1.5,1.4-2
			c0.6-0.6,1.3-1,2-1.4c0.8-0.3,1.6-0.5,2.5-0.5c0.9,0,1.7,0.2,2.5,0.5c0.8,0.3,1.5,0.8,2,1.4c0.6,0.6,1,1.3,1.4,2
			c0.3,0.8,0.5,1.6,0.5,2.5c0,0.9-0.2,1.7-0.5,2.5c-0.3,0.8-0.8,1.5-1.4,2c-0.6,0.6-1.3,1-2,1.4C11-0.8,10.1-0.7,9.2-0.7z M5.7-7.1
			c0,0.2,0.1,0.4,0.2,0.5C6-6.4,6.2-6.3,6.4-6.3h2.1v2.1c0,0.2,0.1,0.4,0.2,0.5C8.8-3.5,9-3.5,9.2-3.5c0.2,0,0.4-0.1,0.5-0.2
			C9.9-3.8,10-4,10-4.2v-2.1h2.1c0.2,0,0.4-0.1,0.5-0.2c0.1-0.1,0.2-0.3,0.2-0.5c0-0.2-0.1-0.4-0.2-0.5c-0.1-0.1-0.3-0.2-0.5-0.2H10
			v-2.1c0-0.2-0.1-0.4-0.2-0.5c-0.1-0.1-0.3-0.2-0.5-0.2c-0.2,0-0.4,0.1-0.5,0.2c-0.1,0.1-0.2,0.3-0.2,0.5v2.1H6.4
			C6.2-7.8,6-7.7,5.9-7.6C5.7-7.5,5.7-7.3,5.7-7.1z"/>
	</g>
	<g transform="matrix(1 0 0 1 281.867 1933)">
		<path d="M11.7,2.9c1.4,0,2.6-0.3,3.8-0.8c1.2-0.5,2.3-1.2,3.2-2.2c0.9-0.9,1.6-2,2.2-3.2c0.5-1.2,0.8-2.5,0.8-3.8
			c0-1.4-0.3-2.6-0.8-3.8c-0.5-1.2-1.2-2.3-2.2-3.2c-0.9-0.9-2-1.6-3.2-2.2c-1.2-0.5-2.5-0.8-3.8-0.8s-2.6,0.3-3.8,0.8
			c-1.2,0.5-2.3,1.2-3.2,2.2c-0.9,0.9-1.6,2-2.2,3.2C2-9.7,1.7-8.4,1.7-7.1c0,1.4,0.3,2.6,0.8,3.8S3.8-0.9,4.7,0
			c0.9,0.9,2,1.6,3.2,2.2S10.3,2.9,11.7,2.9z M11.7,1.3c-1.2,0-2.2-0.2-3.2-0.6c-1-0.4-1.9-1-2.6-1.8C5.1-1.9,4.5-2.8,4.1-3.8
			S3.4-5.9,3.4-7.1c0-1.2,0.2-2.2,0.6-3.2s1-1.9,1.8-2.6c0.8-0.8,1.6-1.4,2.6-1.8c1-0.4,2.1-0.6,3.2-0.6s2.2,0.2,3.2,0.6
			c1,0.4,1.9,1,2.6,1.8c0.8,0.8,1.4,1.6,1.8,2.6c0.4,1,0.6,2.1,0.6,3.2c0,1.2-0.2,2.2-0.6,3.2c-0.4,1-1,1.9-1.8,2.6
			c-0.8,0.8-1.6,1.4-2.6,1.8S12.9,1.3,11.7,1.3z M7.2-7.1c0,0.2,0.1,0.4,0.2,0.6C7.6-6.3,7.8-6.3,8-6.3h2.9v2.9
			c0,0.2,0.1,0.4,0.2,0.6c0.1,0.2,0.3,0.2,0.6,0.2c0.2,0,0.4-0.1,0.6-0.2c0.2-0.2,0.2-0.4,0.2-0.6v-2.9h2.9c0.2,0,0.4-0.1,0.6-0.2
			s0.2-0.3,0.2-0.6c0-0.2-0.1-0.4-0.2-0.6c-0.2-0.2-0.4-0.2-0.6-0.2h-2.9v-2.9c0-0.3-0.1-0.5-0.2-0.6s-0.4-0.2-0.6-0.2
			c-0.2,0-0.4,0.1-0.6,0.2c-0.1,0.2-0.2,0.4-0.2,0.6v2.9H8c-0.3,0-0.5,0.1-0.6,0.2C7.3-7.5,7.2-7.3,7.2-7.1z"/>
	</g>
	<g transform="matrix(1 0 0 1 305.646 1933)">
		<path d="M15,5.7c1.4,0,2.7-0.2,4-0.6c1.3-0.4,2.4-1,3.5-1.8c1.1-0.8,2-1.7,2.8-2.8C26-0.6,26.6-1.8,27-3.1c0.4-1.3,0.6-2.6,0.6-4
			c0-1.4-0.2-2.7-0.6-4c-0.4-1.3-1-2.4-1.8-3.5c-0.8-1.1-1.7-2-2.8-2.8c-1.1-0.8-2.2-1.4-3.5-1.8c-1.3-0.4-2.6-0.6-4-0.6
			c-1.4,0-2.7,0.2-4,0.6c-1.3,0.4-2.4,1-3.5,1.8c-1.1,0.8-2,1.7-2.8,2.8c-0.8,1.1-1.4,2.2-1.8,3.5c-0.4,1.3-0.6,2.6-0.6,4
			c0,1.4,0.2,2.7,0.6,4c0.4,1.3,1,2.4,1.8,3.5c0.8,1.1,1.7,2,2.8,2.8C8.6,4,9.7,4.6,11,5C12.2,5.4,13.6,5.7,15,5.7z M15,3.8
			c-1.2,0-2.4-0.2-3.4-0.6c-1.1-0.4-2.1-0.9-3-1.5C7.6,1.1,6.8,0.3,6.2-0.6C5.5-1.5,5-2.5,4.6-3.6C4.3-4.7,4.1-5.8,4.1-7.1
			c0-1.2,0.2-2.4,0.5-3.5c0.4-1.1,0.9-2.1,1.5-3c0.7-0.9,1.4-1.7,2.4-2.4c0.9-0.7,1.9-1.2,3-1.5c1.1-0.4,2.2-0.5,3.4-0.5
			c1.2,0,2.4,0.2,3.5,0.5c1.1,0.4,2.1,0.9,3,1.5c0.9,0.7,1.7,1.5,2.4,2.4c0.7,0.9,1.2,1.9,1.5,3c0.4,1.1,0.6,2.2,0.6,3.5
			c0,1.2-0.2,2.4-0.5,3.4c-0.4,1.1-0.9,2.1-1.5,3c-0.7,0.9-1.5,1.7-2.4,2.4c-0.9,0.7-1.9,1.2-3,1.5C17.3,3.7,16.2,3.8,15,3.8z
			 M9.2-7.1c0,0.3,0.1,0.5,0.3,0.6c0.2,0.2,0.4,0.2,0.7,0.2h3.9v4c0,0.3,0.1,0.5,0.2,0.7c0.2,0.2,0.4,0.3,0.6,0.3
			c0.3,0,0.5-0.1,0.7-0.3c0.2-0.2,0.3-0.4,0.3-0.7v-4h4c0.3,0,0.5-0.1,0.7-0.2c0.2-0.2,0.3-0.4,0.3-0.6c0-0.3-0.1-0.5-0.3-0.7
			C20.3-7.9,20.1-8,19.8-8h-4v-3.9c0-0.3-0.1-0.5-0.3-0.7c-0.2-0.2-0.4-0.3-0.7-0.3c-0.3,0-0.5,0.1-0.6,0.3
			c-0.2,0.2-0.2,0.4-0.2,0.7V-8h-3.9C9.8-8,9.6-7.9,9.5-7.7C9.3-7.5,9.2-7.3,9.2-7.1z"/>
	</g>
	<text transform="matrix(1 0 0 1 263 1953)" class="st2 st3">Design Variations</text>
	<text transform="matrix(1 0 0 1 263 1971)" class="st4 st3">Symbols are supported in up to nine weights and three scales.</text>
	<text transform="matrix(1 0 0 1 263 1989)" class="st4 st3">For optimal layout with text and other symbols, vertically align</text>
	<text transform="matrix(1 0 0 1 263 2007)" class="st4 st3">symbols with the adjacent text.</text>
	<line class="st5" x1="776" y1="1919" x2="776" y2="1933"/>
	<g transform="matrix(1 0 0 1 776 1933)">
		<path d="M3.3,0.2c0.3,0,0.5-0.1,0.6-0.2c0.1-0.1,0.3-0.3,0.4-0.6L5.5-4h5.8l1.3,3.4c0.1,0.3,0.2,0.5,0.4,0.6
			c0.1,0.1,0.3,0.2,0.6,0.2c0.3,0,0.5-0.1,0.6-0.2c0.2-0.1,0.2-0.3,0.2-0.6c0-0.1,0-0.3-0.1-0.5L9.7-13.4c-0.1-0.3-0.3-0.5-0.5-0.7
			c-0.2-0.1-0.5-0.2-0.8-0.2c-0.6,0-1,0.3-1.2,0.9L2.6-1.2C2.5-1,2.5-0.8,2.5-0.6c0,0.2,0.1,0.4,0.2,0.6S3.1,0.2,3.3,0.2z M6-5.5
			l2.4-6.6h0l2.4,6.6H6z"/>
	</g>
	<line class="st5" x1="793.2" y1="1919" x2="793.2" y2="1933"/>
	<text transform="matrix(1 0 0 1 776 1953)" class="st2 st3">Margins</text>
	<text transform="matrix(1 0 0 1 776 1971)" class="st4 st3">Leading and trailing margins on the left and right side of each symbol</text>
	<text transform="matrix(1 0 0 1 776 1989)" class="st4 st3">can be adjusted by modifying the x-location of the margin guidelines.</text>
	<text transform="matrix(1 0 0 1 776 2007)" class="st4 st3">Modifications are automatically applied proportionally to all</text>
	<text transform="matrix(1 0 0 1 776 2025)" class="st4 st3">scales and weights.</text>
	<g transform="matrix(1 0 0 1 1289 1933)">
		<path d="M2.8,1.9l1.7,1.7C5,4,5.4,4.2,5.9,4.2c0.5,0,0.9-0.3,1.4-0.8L18-8.4l-1-1L6.4,2.3C6.3,2.5,6.1,2.6,5.9,2.6
			c-0.2,0-0.4-0.1-0.6-0.3L4.1,1.1C3.9,0.9,3.8,0.7,3.8,0.5c0-0.2,0.1-0.4,0.3-0.5l11.5-10.8l-1-1L3-0.9C2.6-0.4,2.3,0,2.3,0.5
			C2.2,1,2.4,1.4,2.8,1.9z M9.3-16.3c-0.2,0.2-0.3,0.4-0.4,0.7c0,0.3,0,0.5,0.1,0.7c0.1,0.2,0.3,0.3,0.5,0.4c0.2,0.1,0.5,0.1,0.8,0
			c0.7-0.2,1.5-0.2,2.2-0.2c0.7,0,1.5,0.3,2.2,0.7l-0.6,1.5c-0.2,0.4-0.2,0.8-0.1,1.1c0.1,0.3,0.2,0.6,0.5,0.9l2.3,2.3
			c0.2,0.2,0.5,0.4,0.7,0.4c0.2,0,0.5,0,0.8,0L19.4-8l0.7,0.7l0,0.6c0,0.2,0,0.5,0.1,0.7c0.1,0.2,0.2,0.4,0.5,0.7l0.8,0.7
			c0.2,0.2,0.5,0.4,0.8,0.4c0.3,0,0.5-0.1,0.8-0.3l2.9-2.9c0.2-0.2,0.3-0.5,0.3-0.8c0-0.3-0.1-0.5-0.4-0.8L25-9.9
			c-0.2-0.2-0.5-0.4-0.7-0.5c-0.2-0.1-0.4-0.1-0.7-0.1l-0.6,0l-0.6-0.6l0.2-1.1c0.1-0.3,0.1-0.5,0-0.8s-0.3-0.5-0.6-0.8L19.9-16
			c-0.8-0.8-1.7-1.4-2.7-1.9c-0.9-0.4-1.9-0.6-2.8-0.6c-1,0-1.9,0.2-2.8,0.5C10.8-17.6,10-17.1,9.3-16.3z M10.8-16
			c0.6-0.4,1.3-0.8,1.9-0.9c0.7-0.2,1.4-0.2,2.1-0.2c0.7,0.1,1.4,0.3,2.1,0.6c0.7,0.3,1.3,0.7,1.8,1.3l2.4,2.4
			c0.1,0.1,0.2,0.2,0.2,0.3c0,0.1,0,0.3,0,0.4L21-10.5l1.5,1.5l1-0.1c0.1,0,0.2,0,0.3,0c0.1,0,0.1,0.1,0.2,0.2l0.6,0.6l-2.4,2.4
			l-0.6-0.6c-0.1-0.1-0.2-0.2-0.2-0.2c0-0.1,0-0.2,0-0.3l0.1-1L20-9.5l-1.5,0.3c-0.2,0-0.3,0-0.4,0c-0.1,0-0.2-0.1-0.3-0.2l-2-2
			c-0.1-0.1-0.2-0.2-0.2-0.3c0-0.1,0-0.3,0.1-0.4l0.9-2.1c-0.8-0.7-1.7-1.2-2.6-1.5c-1-0.3-2-0.3-3,0c-0.1,0-0.1,0-0.2,0
			C10.7-15.9,10.7-15.9,10.8-16z"/>
	</g>
	<text transform="matrix(1 0 0 1 1289 1953)" class="st2 st3">Exporting</text>
	<text transform="matrix(1 0 0 1 1289 1971)" class="st4 st3">Symbols should be outlined when exporting to ensure the</text>
	<text transform="matrix(1 0 0 1 1289 1989)" class="st4 st3">design is preserved when submitting to Xcode.</text>
	<text id="template-version" transform="matrix(1 0 0 1 2952.4204 1933)" class="st4 st3">Template v.3.0</text>
	<text transform="matrix(1 0 0 1 2865.4575 1951)" class="st4 st3">Requires Xcode 13 or greater</text>
	<text id="descriptive-name" transform="matrix(1 0 0 1 2909.5415 1969)" class="st4 st3">Generated from pants</text>
	<text transform="matrix(1 0 0 1 2912.4175 1987)" class="st4 st3">Typeset at 100 points</text>
	<text transform="matrix(1 0 0 1 263 726)" class="st4 st3">Small</text>
	<text transform="matrix(1 0 0 1 263 1156)" class="st4 st3">Medium</text>
	<text transform="matrix(1 0 0 1 263 1586)" class="st4 st3">Large</text>
</g>
<g id="Guides">
	<g id="H-reference" transform="matrix(1 0 0 1 339 696)">
		<path class="st6" d="M1,0h2.6l25.7-67.1H30v-3.3h-1.9L1,0z M11.7-24.5H47l-0.8-2.2H12.4L11.7-24.5z M55.1,0h2.6L30.6-70.5h-1.2
			v3.3L55.1,0z"/>
	</g>
	<line id="Baseline-S" class="st7" x1="263" y1="696" x2="3036" y2="696"/>
	<line id="Capline-S" class="st7" x1="263" y1="625.5" x2="3036" y2="625.5"/>
	<g id="H-reference_1_" transform="matrix(1 0 0 1 339 1126)">
		<path class="st6" d="M1,0h2.6l25.7-67.1H30v-3.3h-1.9L1,0z M11.7-24.5H47l-0.8-2.2H12.4L11.7-24.5z M55.1,0h2.6L30.6-70.5h-1.2
			v3.3L55.1,0z"/>
	</g>
	<line id="Baseline-M" class="st7" x1="263" y1="1126" x2="3036" y2="1126"/>
	<line id="Capline-M" class="st7" x1="263" y1="1055.5" x2="3036" y2="1055.5"/>
	<g id="H-reference_2_" transform="matrix(1 0 0 1 339 1556)">
		<path class="st6" d="M1,0h2.6l25.7-67.1H30v-3.3h-1.9L1,0z M11.7-24.5H47l-0.8-2.2H12.4L11.7-24.5z M55.1,0h2.6L30.6-70.5h-1.2
			v3.3L55.1,0z"/>
	</g>
	<line id="Baseline-L" class="st7" x1="263" y1="1556" x2="3036" y2="1556"/>
	<line id="Capline-L" class="st7" x1="263" y1="1485.5" x2="3036" y2="1485.5"/>
	<line id="left-margin-Regular-M" class="st5" x1="1391.3" y1="1030.8" x2="1391.3" y2="1150.1"/>
	<line id="right-margin-Regular-M" class="st5" x1="1508.4" y1="1030.8" x2="1508.4" y2="1150.1"/>
</g>
<g id="Symbols">
	<g id="Black-L" transform="matrix(1 0 0 1 2854.19 1556)">
		<path d="M71.9-111.7H36.4v-9.2h35.4V-111.7z M88.7,50.4H122v-8.1H88.1L88.7,50.4z M122-111.7v-9.2H86.6v9.2H122z M82.7-111.7v-9.2
			h-3.5h-3.5v9.2H82.7z M79.2-74.5l8.2,107.7H122V-76.6l-15.5-11.5c-2-1.5-2.4-4.3-0.9-6.3c1.5-2,4.3-2.4,6.3-0.9l10.1,7.5v-14.8
			H36.4v14.8l10.1-7.5c2-1.5,4.8-1.1,6.3,0.9c1.5,2,1.1,4.8-0.9,6.3L36.4-76.6V33.2H71C73,7.7,79.2-74.5,79.2-74.5z M36.4,50.4h33.3
			c0,0,0.5-7.1,0.6-8.1H36.4V50.4z"/>
	</g>
	<g id="Heavy-L" transform="matrix(1 0 0 1 2558.42 1556)">
		<path d="M70.2,32H36.4V-76l15-11.1c1.9-1.4,2.2-4,0.9-5.9c-1.4-1.9-4-2.3-5.9-0.9l-10,7.4v-15h83.8v15l-10-7.4
			c-1.9-1.4-4.5-1-5.9,0.9c-1.4,1.9-1,4.5,0.9,5.9l15,11.1V32H86.3l-8-105.6C78.3-73.6,72.1,7.2,70.2,32z M36.4,48.5H69
			c0,0,0.5-7.2,0.6-8.2H36.4V48.5z M87.6,48.5h32.6v-8.2H87L87.6,48.5z M81.8-109.8v-9.2h-3.5h-3.5v9.2H81.8z M120.2-109.8v-9.2
			H85.6v9.2H120.2z M70.9-119H36.4v9.2h34.5V-119z"/>
	</g>
	<g id="Bold-L" transform="matrix(1 0 0 1 2262.89 1556)">
		<path d="M84.4-108v-9.2h33.6v9.2H84.4z M86.2,46.7h31.9v-8.2H85.6L86.2,46.7z M36.1,46.7H68c0,0,0.5-7.2,0.6-8.2H36.1V46.7z
			 M77.1-72.8L85,30.7h33.1V-75.4l-14.5-10.8c-1.7-1.3-2.1-3.7-0.8-5.4c1.3-1.7,3.7-2.1,5.4-0.8l9.9,7.4v-15.2h-82V-85l9.9-7.4
			c1.7-1.3,4.1-0.9,5.4,0.8c1.3,1.7,0.9,4.1-0.8,5.4L36.1-75.4V30.7h33.1C71,6.8,77.1-72.8,77.1-72.8z M80.6-108v-9.2h-3.5h-3.5v9.2
			H80.6z M69.7-117.2H36.1v9.2h33.6V-117.2z"/>
	</g>
	<g id="Semibold-L" transform="matrix(1 0 0 1 1966.99 1556)">
		<path d="M72.8-106.1v-9.3h3.5h3.5v9.3H72.8z M116.3-106.1v-9.3H83.6v9.3H116.3z M68.9-115.4H36.2v9.3h32.7V-115.4z M76.3-72
			L84,29.5h32.3V-74.8l-14.1-10.4c-1.6-1.2-1.9-3.4-0.7-5c1.2-1.6,3.4-1.9,5-0.7l9.9,7.3V-99H36.2v15.4l9.9-7.3
			c1.6-1.2,3.8-0.8,5,0.7c1.2,1.6,0.8,3.8-0.7,5L36.2-74.8V29.5h32.3C70.3,6.3,76.3-72,76.3-72z M36.2,44.9h31.2
			c0,0,0.5-7.2,0.6-8.3H36.2V44.9z M85.2,44.9h31.2v-8.3H84.5L85.2,44.9z"/>
	</g>
	<g id="Medium-L" transform="matrix(1 0 0 1 1670.9 1556)">
		<path d="M36.5,34.7h31.1c-0.1,1.1-0.6,8.3-0.6,8.3H36.5V34.7z M68.3-113.5H36.5v9.3h31.8V-113.5z M75.7-71.1l7.6,99.4h31.6V-74.2
			l-13.6-10.1c-1.4-1.1-1.7-3.1-0.7-4.5c1.1-1.4,3.1-1.7,4.5-0.7l9.8,7.2v-15.6H36.5v15.6l9.8-7.2c1.4-1.1,3.5-0.8,4.5,0.7
			c1.1,1.4,0.8,3.5-0.7,4.5L36.5-74.2V28.3h31.6C69.8,5.9,75.7-71.1,75.7-71.1z M84.4,43.1h30.5v-8.3H83.7L84.4,43.1z M114.8-104.3
			v-9.3H83v9.3H114.8z M79.1-104.3v-9.3h-3.5h-3.5v9.3H79.1z"/>
	</g>
	<g id="Regular-L" transform="matrix(1 0 0 1 1374.99 1556)">
		<path d="M36.6,32.9H67c-0.1,1.2-0.6,8.4-0.6,8.4H36.6V32.9z M113.1-102.4v-9.3H82.2v9.3H113.1z M78.3-102.4v-9.3h-3.5h-3.5v9.3
			H78.3z M74.9-70.3l7.4,97.3h30.8V-73.6l-13.1-9.8c-1.3-1-1.6-2.8-0.6-4.1c1-1.3,2.8-1.6,4.1-0.6l9.7,7.2v-15.8H36.6v15.8l9.7-7.2
			c1.3-1,3.1-0.7,4.1,0.6c1,1.3,0.7,3.1-0.6,4.1l-13.2,9.8V27.1h30.8C69.1,5.4,74.9-70.3,74.9-70.3z M67.5-111.7H36.6v9.3h30.9
			V-111.7z M83.4,41.3h29.7v-8.4H82.7L83.4,41.3z"/>
	</g>
	<g id="Light-L" transform="matrix(1 0 0 1 1079.2 1556)">
		<path d="M70.4-100.6v-9.3h3.5h3.5v9.3H70.4z M111.3-100.6v-9.3h-30v9.3H111.3z M66.6-109.9h-30v9.3h30V-109.9z M36.6,39.4h29
			c0,0,0.6-7.2,0.6-8.5H36.6V39.4z M73.9-69.5l7.3,95.3h30.1V-73l-12.7-9.4c-1.1-0.8-1.4-2.5-0.5-3.6c0.8-1.1,2.5-1.4,3.6-0.5
			l9.6,7.1v-16H36.6v16l9.6-7.1c1.1-0.9,2.8-0.6,3.6,0.5c0.8,1.1,0.6,2.8-0.5,3.6L36.6-73v98.8h30.1C68.3,5,73.9-69.5,73.9-69.5z
			 M82.2,39.4h29V31H81.6L82.2,39.4z"/>
	</g>
	<g id="Thin-L" transform="matrix(1 0 0 1 783.716 1556)">
		<path d="M80.1-98.7v-9.4h29.1v9.4H80.1z M36.3,37.6h28.3c0,0,0.6-7.3,0.6-8.5h-29V37.6z M72.7-68.6l7.1,93.2h29.3v-97l-12.2-9.1
			c-1-0.7-1.2-2.2-0.5-3.2c0.7-1,2.2-1.2,3.2-0.5l9.5,7.1v-16.2H36.3V-78l9.5-7.1c1-0.7,2.4-0.5,3.2,0.5c0.7,1,0.5,2.4-0.5,3.2
			l-12.2,9.1v97h29.3C67.1,4.5,72.7-68.6,72.7-68.6z M65.3-108.1H36.3v9.4h29.1V-108.1z M76.2-98.7v-9.4h-3.5h-3.5v9.4H76.2z
			 M80.8,37.6h28.3v-8.5h-29L80.8,37.6z"/>
	</g>
	<g id="Ultralight-L" transform="matrix(1 0 0 1 487.631 1556)">
		<path d="M79.4-96.8v-9.4h28.2v9.4H79.4z M80,35.8h27.6v-8.6H79.3L80,35.8z M36.6,35.8h27.6c0,0,0.6-7.3,0.7-8.6H36.6V35.8z
			 M64.7-106.3H36.6v9.4h28.2V-106.3z M72.1-67.8L79,23.4h28.6v-95.2l-11.8-8.7c-0.9-0.6-1-1.8-0.4-2.7c0.6-0.9,1.8-1,2.7-0.4l9.5,7
			V-93h-71v16.3l9.5-7c0.9-0.6,2.1-0.5,2.7,0.4c0.6,0.9,0.5,2.1-0.4,2.7l-11.8,8.7v95.2h28.6C66.6,4.1,72.1-67.8,72.1-67.8z
			 M75.6-96.8v-9.4h-3.5h-3.5v9.4H75.6z"/>
	</g>
	<g id="Black-M" transform="matrix(1 0 0 1 2871.36 1126)">
		<path d="M56.3-94.5H28.9v-7.1h27.5V-94.5z M69.4,31.1h25.8v-6.3H68.9L69.4,31.1z M95.2-94.5v-7.1H67.8v7.1H95.2z M64.8-94.5v-7.1
			H62h-2.7v7.1H64.8z M62-65.7l6.4,83.5h26.8v-85.1l-12-8.9c-1.6-1.2-1.9-3.3-0.7-4.9c1.2-1.6,3.3-1.9,4.9-0.7l7.8,5.8v-11.5H28.9
			V-76l7.8-5.8c1.6-1.2,3.7-0.8,4.9,0.7c1.2,1.6,0.8,3.7-0.7,4.9l-12,8.9v85.1h26.8C57.2-2,62-65.7,62-65.7z M28.9,31.1h25.8
			c0,0,0.4-5.5,0.5-6.3H28.9V31.1z"/>
	</g>
	<g id="Heavy-M" transform="matrix(1 0 0 1 2575.48 1126)">
		<path d="M55,16.8H28.7v-83.7l11.6-8.6c1.4-1.1,1.7-3.1,0.7-4.5c-1.1-1.4-3.1-1.7-4.5-0.7L28.7-75v-11.6h64.9V-75l-7.8-5.8
			c-1.4-1.1-3.5-0.8-4.5,0.7c-1.1,1.4-0.8,3.5,0.7,4.5l11.6,8.6v83.7H67.5L61.2-65C61.2-65,56.4-2.4,55,16.8z M28.7,29.7H54
			c0,0,0.4-5.6,0.5-6.3H28.7V29.7z M68.4,29.7h25.3v-6.3H67.9L68.4,29.7z M63.9-93.1v-7.1h-2.7h-2.7v7.1H63.9z M93.7-93.1v-7.1H66.9
			v7.1H93.7z M55.5-100.2H28.7v7.1h26.8V-100.2z"/>
	</g>
	<g id="Bold-M" transform="matrix(1 0 0 1 2279.69 1126)">
		<path d="M66-91.6v-7.1H92v7.1H66z M67.3,28.3H92v-6.4H66.9L67.3,28.3z M28.5,28.3h24.7c0,0,0.4-5.6,0.5-6.4H28.5V28.3z M60.3-64.4
			l6.1,80.3H92v-82.3l-11.3-8.4c-1.3-1-1.6-2.9-0.6-4.2c1-1.3,2.9-1.6,4.2-0.6l7.7,5.7v-11.8H28.5v11.8l7.7-5.7
			c1.3-1,3.2-0.7,4.2,0.6c1,1.3,0.7,3.2-0.6,4.2l-11.3,8.4v82.3h25.6C55.6-2.7,60.3-64.4,60.3-64.4z M63-91.6v-7.1h-2.7h-2.7v7.1H63
			z M54.6-98.8H28.5v7.1h26.1V-98.8z"/>
	</g>
	<g id="Semibold-M" transform="matrix(1 0 0 1 1983.62 1126)">
		<path d="M56.9-90.2v-7.2h2.7h2.7v7.2H56.9z M90.7-90.2v-7.2H65.3v7.2H90.7z M53.9-97.4H28.6v7.2h25.4V-97.4z M59.6-63.7l6,78.7
			h25.1v-80.9L79.8-74c-1.2-0.9-1.5-2.6-0.6-3.8c0.9-1.2,2.6-1.5,3.8-0.6l7.6,5.7v-11.9H28.6v11.9l7.6-5.7c1.2-0.9,2.9-0.6,3.8,0.6
			c0.9,1.2,0.6,2.9-0.6,3.8l-10.9,8.1v80.9h25.1C55-3.1,59.6-63.7,59.6-63.7z M28.6,26.9h24.2c0,0,0.4-5.6,0.5-6.4H28.6V26.9z
			 M66.5,26.9h24.2v-6.4H66.1L66.5,26.9z"/>
	</g>
	<g id="Medium-M" transform="matrix(1 0 0 1 1687.4 1126)">
		<path d="M28.8,19h24.1c-0.1,0.9-0.5,6.5-0.5,6.5H28.8V19z M53.5-96H28.8v7.2h24.6V-96z M59.2-63.1L65,14h24.5v-79.4L79-73.3
			c-1.1-0.8-1.3-2.4-0.5-3.5c0.8-1.1,2.4-1.3,3.5-0.5l7.6,5.6v-12.1H28.8v12.1l7.6-5.6c1.1-0.8,2.7-0.6,3.5,0.5
			c0.8,1.1,0.6,2.7-0.5,3.5l-10.6,7.8V14h24.5C54.6-3.4,59.2-63.1,59.2-63.1z M65.9,25.4h23.6V19H65.4L65.9,25.4z M89.5-88.8V-96
			H64.9v7.2H89.5z M61.9-88.8V-96h-2.7h-2.7v7.2H61.9z"/>
	</g>
	<g id="Regular-M" transform="matrix(1 0 0 1 1391.32 1126)">
		<path d="M28.9,17.5h23.6c-0.1,0.9-0.5,6.5-0.5,6.5H28.9V17.5z M88.2-87.3v-7.2H64.2v7.2H88.2z M61.2-87.3v-7.2h-2.7h-2.7v7.2H61.2
			z M58.5-62.4L64.3,13h23.9v-78L78-72.6c-1-0.7-1.2-2.1-0.5-3.1c0.7-1,2.1-1.2,3.1-0.5l7.5,5.6v-12.2H28.9v12.2l7.5-5.6
			c1-0.7,2.4-0.5,3.1,0.5c0.7,1,0.5,2.4-0.5,3.1L28.9-65v78h23.9C54.1-3.7,58.5-62.4,58.5-62.4z M52.8-94.6H28.9v7.2h23.9V-94.6z
			 M65.1,24h23.1v-6.5H64.6L65.1,24z"/>
	</g>
	<g id="Light-M" transform="matrix(1 0 0 1 1095.44 1126)">
		<path d="M55-85.9v-7.2h2.7h2.7v7.2H55z M86.6-85.9v-7.2H63.4v7.2H86.6z M52-93.1H28.8v7.2H52V-93.1z M28.8,22.6h22.5
			c0,0,0.4-5.6,0.5-6.6h-23V22.6z M57.7-61.8l5.6,73.9h23.3v-76.6l-9.8-7.3c-0.9-0.7-1.1-1.9-0.4-2.8c0.7-0.9,1.9-1.1,2.8-0.4
			l7.5,5.5v-12.4H28.8v12.4l7.4-5.5c0.9-0.7,2.1-0.5,2.8,0.4c0.7,0.9,0.5,2.1-0.4,2.8l-9.8,7.3v76.6h23.3
			C53.3-4.1,57.7-61.8,57.7-61.8z M64.1,22.6h22.5v-6.6h-23L64.1,22.6z"/>
	</g>
	<g id="Thin-M" transform="matrix(1 0 0 1 799.828 1126)">
		<path d="M62.3-84.5v-7.3h22.5v7.3H62.3z M28.4,21.2h22c0,0,0.4-5.6,0.5-6.6H28.4V21.2z M56.6-61.1l5.5,72.3h22.7v-75.2l-9.5-7
			c-0.8-0.6-0.9-1.7-0.4-2.4c0.6-0.8,1.7-0.9,2.4-0.4l7.4,5.5V-81H28.4v12.5l7.4-5.5c0.8-0.6,1.9-0.4,2.4,0.4
			c0.6,0.8,0.4,1.9-0.4,2.4l-9.5,7v75.2h22.7C52.3-4.4,56.6-61.1,56.6-61.1z M50.9-91.7H28.4v7.3h22.5V-91.7z M59.3-84.5v-7.3h-2.7
			h-2.7v7.3H59.3z M62.9,21.2h22v-6.6H62.4L62.9,21.2z"/>
	</g>
	<g id="Ultralight-M" transform="matrix(1 0 0 1 503.679 1126)">
		<path d="M61.7-83v-7.3h21.8v7.3H61.7z M62.1,19.8h21.4v-6.6H61.6L62.1,19.8z M28.5,19.8h21.4c0,0,0.4-5.6,0.5-6.6H28.5V19.8z
			 M50.3-90.3H28.5v7.3h21.8V-90.3z M56-60.5l5.4,70.7h22.1v-73.8l-9.1-6.8c-0.7-0.5-0.8-1.4-0.3-2.1c0.5-0.7,1.4-0.8,2.1-0.3
			l7.3,5.4V-80H28.5v12.7l7.3-5.4c0.7-0.5,1.6-0.4,2.1,0.3c0.5,0.7,0.4,1.6-0.3,2.1l-9.1,6.8v73.8h22.1C51.8-4.8,56-60.5,56-60.5z
			 M58.7-83v-7.3H56h-2.7v7.3H58.7z"/>
	</g>
	<g id="Black-S" transform="matrix(1 0 0 1 2884.57 696)">
		<path d="M44.4-81.6H22.9v-5.6h21.5V-81.6z M54.6,16.7h20.2v-4.9H54.2L54.6,16.7z M74.8-81.6v-5.6H53.3v5.6H74.8z M51-81.6v-5.6
			h-2.1h-2.1v5.6H51z M48.8-59l5,65.4h21v-66.6l-9.4-7c-1.2-0.9-1.5-2.6-0.6-3.8c0.9-1.2,2.6-1.5,3.8-0.6l6.1,4.5v-9h-52v9l6.1-4.5
			c1.2-0.9,2.9-0.6,3.8,0.6c0.9,1.2,0.6,2.9-0.6,3.8l-9.4,7V6.3h21C45-9.2,48.8-59,48.8-59z M22.9,16.7h20.2c0,0,0.3-4.3,0.4-4.9
			H22.9V16.7z"/>
	</g>
	<g id="Heavy-S" transform="matrix(1 0 0 1 2588.47 696)">
		<path d="M43.3,5.6H22.8V-60l9.1-6.8c1.1-0.8,1.4-2.4,0.5-3.6c-0.8-1.1-2.4-1.4-3.6-0.5l-6.1,4.5v-9.1h50.8v9.1l-6.1-4.5
			c-1.1-0.8-2.7-0.6-3.6,0.5c-0.8,1.1-0.6,2.7,0.5,3.6l9.1,6.8V5.6H53.1l-4.9-64.1C48.2-58.5,44.5-9.5,43.3,5.6z M22.8,15.6h19.8
			c0,0,0.3-4.3,0.4-5H22.8V15.6z M53.9,15.6h19.8v-5H53.5L53.9,15.6z M50.3-80.5v-5.6h-2.1h-2.1v5.6H50.3z M73.6-80.5v-5.6h-21v5.6
			H73.6z M43.8-86.1h-21v5.6h21V-86.1z"/>
	</g>
	<g id="Bold-S" transform="matrix(1 0 0 1 2292.43 696)">
		<path d="M52-79.4V-85h20.4v5.6H52z M53.1,14.5h19.3v-5H52.7L53.1,14.5z M22.7,14.5H42c0,0,0.3-4.4,0.4-5H22.7V14.5z M47.5-58
			l4.8,62.8h20.1v-64.4l-8.8-6.5c-1-0.8-1.3-2.2-0.5-3.3c0.8-1,2.2-1.3,3.3-0.5l6,4.5v-9.2H22.7v9.2l6-4.5c1-0.8,2.5-0.6,3.3,0.5
			c0.8,1,0.6,2.5-0.5,3.3l-8.8,6.5V4.8h20.1C43.9-9.7,47.5-58,47.5-58z M49.7-79.4V-85h-2.1h-2.1v5.6H49.7z M43.1-85H22.7v5.6h20.4
			V-85z"/>
	</g>
	<g id="Semibold-S" transform="matrix(1 0 0 1 1996.19 696)">
		<path d="M45-78.3v-5.6h2.1h2.1v5.6H45z M71.4-78.3v-5.6H51.5v5.6H71.4z M42.6-83.9H22.8v5.6h19.9V-83.9z M47.1-57.5l4.7,61.6h19.6
			v-63.3l-8.5-6.3c-1-0.7-1.2-2.1-0.4-3c0.7-1,2.1-1.2,3-0.4l6,4.4v-9.3H22.8v9.3l6-4.4c1-0.7,2.3-0.5,3,0.4c0.7,1,0.5,2.3-0.4,3
			l-8.5,6.3V4.1h19.6C43.5-10,47.1-57.5,47.1-57.5z M22.8,13.4h18.9c0,0,0.3-4.4,0.4-5H22.8V13.4z M52.5,13.4h18.9v-5H52.1
			L52.5,13.4z"/>
	</g>
	<g id="Medium-S" transform="matrix(1 0 0 1 1699.83 696)">
		<path d="M23,7.2h18.9c-0.1,0.7-0.4,5.1-0.4,5.1H23V7.2z M42.3-82.8H23v5.6h19.3V-82.8z M46.7-57l4.6,60.3h19.2v-62.2L62.2-65
			c-0.9-0.6-1-1.9-0.4-2.7c0.6-0.9,1.9-1,2.7-0.4l5.9,4.4v-9.5H23v9.5l5.9-4.4c0.9-0.6,2.1-0.5,2.7,0.4c0.6,0.9,0.5,2.1-0.4,2.7
			L23-58.9V3.3h19.2C43.2-10.3,46.7-57,46.7-57z M52,12.3h18.5V7.2H51.6L52,12.3z M70.5-77.1v-5.6H51.2v5.6H70.5z M48.8-77.1v-5.6
			h-2.1h-2.1v5.6H48.8z"/>
	</g>
	<g id="Regular-S" transform="matrix(1 0 0 1 1403.58 696)">
		<path d="M23,6.1h18.4c-0.1,0.7-0.4,5.1-0.4,5.1H23V6.1z M69.5-76v-5.7H50.7v5.7H69.5z M48.4-76v-5.7h-2.1h-2.1v5.7H48.4z
			 M46.3-56.5l4.5,59.1h18.7v-61.1l-8-5.9c-0.8-0.6-0.9-1.7-0.4-2.5c0.6-0.8,1.7-0.9,2.5-0.4l5.9,4.4v-9.6H23v9.6l5.9-4.4
			c0.8-0.6,1.9-0.4,2.5,0.4c0.6,0.8,0.4,1.9-0.4,2.5l-8,5.9V2.6h18.7C42.8-10.6,46.3-56.5,46.3-56.5z M41.8-81.7H23v5.7h18.7V-81.7z
			 M51.4,11.2h18.1V6.1H51L51.4,11.2z"/>
	</g>
	<g id="Light-S" transform="matrix(1 0 0 1 1107.6 696)">
		<path d="M43.4-74.9v-5.7h2.1h2.1v5.7H43.4z M68.2-74.9v-5.7H50v5.7H68.2z M41.1-80.6H22.9v5.7h18.2V-80.6z M22.9,10.1h17.6
			c0,0,0.3-4.4,0.4-5.1h-18V10.1z M45.5-56l4.4,57.8h18.3v-60l-7.7-5.7c-0.7-0.5-0.8-1.5-0.3-2.2c0.5-0.7,1.5-0.8,2.2-0.3l5.8,4.3
			v-9.7H22.9v9.7l5.8-4.3c0.7-0.5,1.7-0.4,2.2,0.3c0.5,0.7,0.4,1.7-0.3,2.2l-7.7,5.7v60h18.3C42.1-10.8,45.5-56,45.5-56z M50.6,10.1
			h17.6V5h-18L50.6,10.1z"/>
	</g>
	<g id="Thin-S" transform="matrix(1 0 0 1 811.863 696)">
		<path d="M49-73.8v-5.7h17.6v5.7H49z M22.5,9h17.2c0,0,0.3-4.4,0.4-5.2H22.5V9z M44.6-55.5l4.3,56.6h17.8v-58.9l-7.4-5.5
			c-0.6-0.5-0.7-1.3-0.3-1.9c0.5-0.6,1.3-0.7,1.9-0.3l5.8,4.3V-71H22.5v9.8l5.8-4.3c0.6-0.5,1.5-0.3,1.9,0.3
			c0.5,0.6,0.3,1.5-0.3,1.9l-7.4,5.5V1.1h17.8C41.2-11.1,44.6-55.5,44.6-55.5z M40.1-79.4H22.5v5.7h17.6V-79.4z M46.7-73.8v-5.7
			h-2.1h-2.1v5.7H46.7z M49.5,9h17.2V3.8H49.1L49.5,9z"/>
	</g>
	<g id="Ultralight-S" transform="matrix(1 0 0 1 515.649 696)">
		<path d="M48.5-72.6v-5.7h17.1v5.7H48.5z M48.9,7.9h16.8V2.7H48.5L48.9,7.9z M22.5,7.9h16.8c0,0,0.3-4.4,0.4-5.2H22.5V7.9z
			 M39.6-78.3H22.5v5.7h17.1V-78.3z M44.1-55l4.2,55.3h17.3v-57.8l-7.1-5.3c-0.5-0.4-0.6-1.1-0.2-1.6c0.4-0.5,1.1-0.6,1.6-0.2
			l5.7,4.3v-9.9H22.5v9.9l5.7-4.3c0.5-0.4,1.3-0.3,1.6,0.2c0.4,0.5,0.3,1.3-0.2,1.6l-7.1,5.3V0.3h17.3C40.7-11.3,44.1-55,44.1-55z
			 M46.2-72.6v-5.7h-2.1h-2.1v5.7H46.2z"/>
	</g>
</g>
</svg>
