<?xml version="1.0" encoding="utf-8"?>
<!-- Generator: Adobe Illustrator 24.1.1, SVG Export Plug-In . SVG Version: 6.00 Build 0)  -->
<svg version="1.1" id="Layer_1" xmlns="http://www.w3.org/2000/svg" xmlns:xlink="http://www.w3.org/1999/xlink" x="0px" y="0px"
	 viewBox="0 0 3300 2200" style="enable-background:new 0 0 3300 2200;" xml:space="preserve">
<style type="text/css">
	.st0{fill:#FFFFFF;}
	.st1{fill:none;stroke:#000000;stroke-width:0.5;}
	.st2{font-family:'Arial-BoldMT';}
	.st3{font-size:13px;}
	.st4{font-family:'ArialMT';}
	.st5{fill:none;stroke:#00AEEF;stroke-width:0.5;}
	.st6{fill:#27AAE1;}
	.st7{fill:none;stroke:#27AAE1;stroke-width:0.5;}
</style>
<g id="Notes">
	<rect id="artboard" class="st0" width="3300" height="2200"/>
	<line class="st1" x1="263" y1="292" x2="3036" y2="292"/>
	<text transform="matrix(1 0 0 1 263 322)" class="st2 st3">Weight/Scale Variations</text>
	<text transform="matrix(1 0 0 1 534.0633 322)" class="st4 st3">Ultralight</text>
	<text transform="matrix(1 0 0 1 843.7775 322)" class="st4 st3">Thin</text>
	<text transform="matrix(1 0 0 1 1139.035 322)" class="st4 st3">Light</text>
	<text transform="matrix(1 0 0 1 1427.0773 322)" class="st4 st3">Regular</text>
	<text transform="matrix(1 0 0 1 1723.4419 322)" class="st4 st3">Medium</text>
	<text transform="matrix(1 0 0 1 2016.1719 322)" class="st4 st3">Semibold</text>
	<text transform="matrix(1 0 0 1 2326.9705 322)" class="st4 st3">Bold</text>
	<text transform="matrix(1 0 0 1 2618.2659 322)" class="st4 st3">Heavy</text>
	<text transform="matrix(1 0 0 1 2917.5054 322)" class="st4 st3">Black</text>
	<line class="st1" x1="263" y1="1903" x2="3036" y2="1903"/>
	<g transform="matrix(1 0 0 1 263 1933)">
		<path d="M9.2,0.8c1.1,0,2.1-0.2,3-0.6c1-0.4,1.8-1,2.5-1.7c0.7-0.7,1.3-1.6,1.7-2.5c0.4-1,0.6-2,0.6-3s-0.2-2.1-0.6-3
			c-0.4-1-1-1.8-1.7-2.5c-0.7-0.7-1.6-1.3-2.5-1.7c-1-0.4-2-0.6-3-0.6c-1.1,0-2.1,0.2-3,0.6s-1.8,1-2.5,1.7C3-11.9,2.4-11,2-10.1
			c-0.4,1-0.6,2-0.6,3S1.6-5,2-4c0.4,1,1,1.8,1.7,2.5s1.6,1.3,2.5,1.7C7.2,0.6,8.2,0.8,9.2,0.8z M9.2-0.7c-0.9,0-1.7-0.2-2.5-0.5
			C6-1.5,5.3-1.9,4.7-2.5c-0.6-0.6-1-1.3-1.4-2C3-5.3,2.9-6.2,2.9-7.1c0-0.9,0.2-1.7,0.5-2.5c0.3-0.8,0.8-1.5,1.4-2
			c0.6-0.6,1.3-1,2-1.4c0.8-0.3,1.6-0.5,2.5-0.5c0.9,0,1.7,0.2,2.5,0.5c0.8,0.3,1.5,0.8,2,1.4c0.6,0.6,1,1.3,1.4,2
			c0.3,0.8,0.5,1.6,0.5,2.5c0,0.9-0.2,1.7-0.5,2.5c-0.3,0.8-0.8,1.5-1.4,2c-0.6,0.6-1.3,1-2,1.4C11-0.8,10.1-0.7,9.2-0.7z M5.7-7.1
			c0,0.2,0.1,0.4,0.2,0.5C6-6.4,6.2-6.3,6.4-6.3h2.1v2.1c0,0.2,0.1,0.4,0.2,0.5C8.8-3.5,9-3.5,9.2-3.5c0.2,0,0.4-0.1,0.5-0.2
			C9.9-3.8,10-4,10-4.2v-2.1h2.1c0.2,0,0.4-0.1,0.5-0.2c0.1-0.1,0.2-0.3,0.2-0.5c0-0.2-0.1-0.4-0.2-0.5c-0.1-0.1-0.3-0.2-0.5-0.2H10
			v-2.1c0-0.2-0.1-0.4-0.2-0.5c-0.1-0.1-0.3-0.2-0.5-0.2c-0.2,0-0.4,0.1-0.5,0.2c-0.1,0.1-0.2,0.3-0.2,0.5v2.1H6.4
			C6.2-7.8,6-7.7,5.9-7.6C5.7-7.5,5.7-7.3,5.7-7.1z"/>
	</g>
	<g transform="matrix(1 0 0 1 281.867 1933)">
		<path d="M11.7,2.9c1.4,0,2.6-0.3,3.8-0.8c1.2-0.5,2.3-1.2,3.2-2.2c0.9-0.9,1.6-2,2.2-3.2c0.5-1.2,0.8-2.5,0.8-3.8
			c0-1.4-0.3-2.6-0.8-3.8c-0.5-1.2-1.2-2.3-2.2-3.2c-0.9-0.9-2-1.6-3.2-2.2c-1.2-0.5-2.5-0.8-3.8-0.8s-2.6,0.3-3.8,0.8
			c-1.2,0.5-2.3,1.2-3.2,2.2c-0.9,0.9-1.6,2-2.2,3.2C2-9.7,1.7-8.4,1.7-7.1c0,1.4,0.3,2.6,0.8,3.8S3.8-0.9,4.7,0
			c0.9,0.9,2,1.6,3.2,2.2S10.3,2.9,11.7,2.9z M11.7,1.3c-1.2,0-2.2-0.2-3.2-0.6c-1-0.4-1.9-1-2.6-1.8C5.1-1.9,4.5-2.8,4.1-3.8
			S3.4-5.9,3.4-7.1c0-1.2,0.2-2.2,0.6-3.2s1-1.9,1.8-2.6c0.8-0.8,1.6-1.4,2.6-1.8c1-0.4,2.1-0.6,3.2-0.6s2.2,0.2,3.2,0.6
			c1,0.4,1.9,1,2.6,1.8c0.8,0.8,1.4,1.6,1.8,2.6c0.4,1,0.6,2.1,0.6,3.2c0,1.2-0.2,2.2-0.6,3.2c-0.4,1-1,1.9-1.8,2.6
			c-0.8,0.8-1.6,1.4-2.6,1.8S12.9,1.3,11.7,1.3z M7.2-7.1c0,0.2,0.1,0.4,0.2,0.6C7.6-6.3,7.8-6.3,8-6.3h2.9v2.9
			c0,0.2,0.1,0.4,0.2,0.6c0.1,0.2,0.3,0.2,0.6,0.2c0.2,0,0.4-0.1,0.6-0.2c0.2-0.2,0.2-0.4,0.2-0.6v-2.9h2.9c0.2,0,0.4-0.1,0.6-0.2
			s0.2-0.3,0.2-0.6c0-0.2-0.1-0.4-0.2-0.6c-0.2-0.2-0.4-0.2-0.6-0.2h-2.9v-2.9c0-0.3-0.1-0.5-0.2-0.6s-0.4-0.2-0.6-0.2
			c-0.2,0-0.4,0.1-0.6,0.2c-0.1,0.2-0.2,0.4-0.2,0.6v2.9H8c-0.3,0-0.5,0.1-0.6,0.2C7.3-7.5,7.2-7.3,7.2-7.1z"/>
	</g>
	<g transform="matrix(1 0 0 1 305.646 1933)">
		<path d="M15,5.7c1.4,0,2.7-0.2,4-0.6c1.3-0.4,2.4-1,3.5-1.8c1.1-0.8,2-1.7,2.8-2.8C26-0.6,26.6-1.8,27-3.1c0.4-1.3,0.6-2.6,0.6-4
			c0-1.4-0.2-2.7-0.6-4c-0.4-1.3-1-2.4-1.8-3.5c-0.8-1.1-1.7-2-2.8-2.8c-1.1-0.8-2.2-1.4-3.5-1.8c-1.3-0.4-2.6-0.6-4-0.6
			c-1.4,0-2.7,0.2-4,0.6c-1.3,0.4-2.4,1-3.5,1.8c-1.1,0.8-2,1.7-2.8,2.8c-0.8,1.1-1.4,2.2-1.8,3.5c-0.4,1.3-0.6,2.6-0.6,4
			c0,1.4,0.2,2.7,0.6,4c0.4,1.3,1,2.4,1.8,3.5c0.8,1.1,1.7,2,2.8,2.8C8.6,4,9.7,4.6,11,5C12.2,5.4,13.6,5.7,15,5.7z M15,3.8
			c-1.2,0-2.4-0.2-3.4-0.6c-1.1-0.4-2.1-0.9-3-1.5C7.6,1.1,6.8,0.3,6.2-0.6C5.5-1.5,5-2.5,4.6-3.6C4.3-4.7,4.1-5.8,4.1-7.1
			c0-1.2,0.2-2.4,0.5-3.5c0.4-1.1,0.9-2.1,1.5-3c0.7-0.9,1.4-1.7,2.4-2.4c0.9-0.7,1.9-1.2,3-1.5c1.1-0.4,2.2-0.5,3.4-0.5
			c1.2,0,2.4,0.2,3.5,0.5c1.1,0.4,2.1,0.9,3,1.5c0.9,0.7,1.7,1.5,2.4,2.4c0.7,0.9,1.2,1.9,1.5,3c0.4,1.1,0.6,2.2,0.6,3.5
			c0,1.2-0.2,2.4-0.5,3.4c-0.4,1.1-0.9,2.1-1.5,3c-0.7,0.9-1.5,1.7-2.4,2.4c-0.9,0.7-1.9,1.2-3,1.5C17.3,3.7,16.2,3.8,15,3.8z
			 M9.2-7.1c0,0.3,0.1,0.5,0.3,0.6c0.2,0.2,0.4,0.2,0.7,0.2h3.9v4c0,0.3,0.1,0.5,0.2,0.7c0.2,0.2,0.4,0.3,0.6,0.3
			c0.3,0,0.5-0.1,0.7-0.3c0.2-0.2,0.3-0.4,0.3-0.7v-4h4c0.3,0,0.5-0.1,0.7-0.2c0.2-0.2,0.3-0.4,0.3-0.6c0-0.3-0.1-0.5-0.3-0.7
			C20.3-7.9,20.1-8,19.8-8h-4v-3.9c0-0.3-0.1-0.5-0.3-0.7c-0.2-0.2-0.4-0.3-0.7-0.3c-0.3,0-0.5,0.1-0.6,0.3
			c-0.2,0.2-0.2,0.4-0.2,0.7V-8h-3.9C9.8-8,9.6-7.9,9.5-7.7C9.3-7.5,9.2-7.3,9.2-7.1z"/>
	</g>
	<text transform="matrix(1 0 0 1 263 1953)" class="st2 st3">Design Variations</text>
	<text transform="matrix(1 0 0 1 263 1971)" class="st4 st3">Symbols are supported in up to nine weights and three scales.</text>
	<text transform="matrix(1 0 0 1 263 1989)" class="st4 st3">For optimal layout with text and other symbols, vertically align</text>
	<text transform="matrix(1 0 0 1 263 2007)" class="st4 st3">symbols with the adjacent text.</text>
	<line class="st5" x1="776" y1="1919" x2="776" y2="1933"/>
	<g transform="matrix(1 0 0 1 776 1933)">
		<path d="M3.3,0.2c0.3,0,0.5-0.1,0.6-0.2c0.1-0.1,0.3-0.3,0.4-0.6L5.5-4h5.8l1.3,3.4c0.1,0.3,0.2,0.5,0.4,0.6
			c0.1,0.1,0.3,0.2,0.6,0.2c0.3,0,0.5-0.1,0.6-0.2c0.2-0.1,0.2-0.3,0.2-0.6c0-0.1,0-0.3-0.1-0.5L9.7-13.4c-0.1-0.3-0.3-0.5-0.5-0.7
			c-0.2-0.1-0.5-0.2-0.8-0.2c-0.6,0-1,0.3-1.2,0.9L2.6-1.2C2.5-1,2.5-0.8,2.5-0.6c0,0.2,0.1,0.4,0.2,0.6S3.1,0.2,3.3,0.2z M6-5.5
			l2.4-6.6h0l2.4,6.6H6z"/>
	</g>
	<line class="st5" x1="793.2" y1="1919" x2="793.2" y2="1933"/>
	<text transform="matrix(1 0 0 1 776 1953)" class="st2 st3">Margins</text>
	<text transform="matrix(1 0 0 1 776 1971)" class="st4 st3">Leading and trailing margins on the left and right side of each symbol</text>
	<text transform="matrix(1 0 0 1 776 1989)" class="st4 st3">can be adjusted by modifying the x-location of the margin guidelines.</text>
	<text transform="matrix(1 0 0 1 776 2007)" class="st4 st3">Modifications are automatically applied proportionally to all</text>
	<text transform="matrix(1 0 0 1 776 2025)" class="st4 st3">scales and weights.</text>
	<g transform="matrix(1 0 0 1 1289 1933)">
		<path d="M2.8,1.9l1.7,1.7C5,4,5.4,4.2,5.9,4.2c0.5,0,0.9-0.3,1.4-0.8L18-8.4l-1-1L6.4,2.3C6.3,2.5,6.1,2.6,5.9,2.6
			c-0.2,0-0.4-0.1-0.6-0.3L4.1,1.1C3.9,0.9,3.8,0.7,3.8,0.5c0-0.2,0.1-0.4,0.3-0.5l11.5-10.8l-1-1L3-0.9C2.6-0.4,2.3,0,2.3,0.5
			C2.2,1,2.4,1.4,2.8,1.9z M9.3-16.3c-0.2,0.2-0.3,0.4-0.4,0.7c0,0.3,0,0.5,0.1,0.7c0.1,0.2,0.3,0.3,0.5,0.4c0.2,0.1,0.5,0.1,0.8,0
			c0.7-0.2,1.5-0.2,2.2-0.2c0.7,0,1.5,0.3,2.2,0.7l-0.6,1.5c-0.2,0.4-0.2,0.8-0.1,1.1c0.1,0.3,0.2,0.6,0.5,0.9l2.3,2.3
			c0.2,0.2,0.5,0.4,0.7,0.4c0.2,0,0.5,0,0.8,0L19.4-8l0.7,0.7l0,0.6c0,0.2,0,0.5,0.1,0.7c0.1,0.2,0.2,0.4,0.5,0.7l0.8,0.7
			c0.2,0.2,0.5,0.4,0.8,0.4c0.3,0,0.5-0.1,0.8-0.3l2.9-2.9c0.2-0.2,0.3-0.5,0.3-0.8c0-0.3-0.1-0.5-0.4-0.8L25-9.9
			c-0.2-0.2-0.5-0.4-0.7-0.5c-0.2-0.1-0.4-0.1-0.7-0.1l-0.6,0l-0.6-0.6l0.2-1.1c0.1-0.3,0.1-0.5,0-0.8s-0.3-0.5-0.6-0.8L19.9-16
			c-0.8-0.8-1.7-1.4-2.7-1.9c-0.9-0.4-1.9-0.6-2.8-0.6c-1,0-1.9,0.2-2.8,0.5C10.8-17.6,10-17.1,9.3-16.3z M10.8-16
			c0.6-0.4,1.3-0.8,1.9-0.9c0.7-0.2,1.4-0.2,2.1-0.2c0.7,0.1,1.4,0.3,2.1,0.6c0.7,0.3,1.3,0.7,1.8,1.3l2.4,2.4
			c0.1,0.1,0.2,0.2,0.2,0.3c0,0.1,0,0.3,0,0.4L21-10.5l1.5,1.5l1-0.1c0.1,0,0.2,0,0.3,0c0.1,0,0.1,0.1,0.2,0.2l0.6,0.6l-2.4,2.4
			l-0.6-0.6c-0.1-0.1-0.2-0.2-0.2-0.2c0-0.1,0-0.2,0-0.3l0.1-1L20-9.5l-1.5,0.3c-0.2,0-0.3,0-0.4,0c-0.1,0-0.2-0.1-0.3-0.2l-2-2
			c-0.1-0.1-0.2-0.2-0.2-0.3c0-0.1,0-0.3,0.1-0.4l0.9-2.1c-0.8-0.7-1.7-1.2-2.6-1.5c-1-0.3-2-0.3-3,0c-0.1,0-0.1,0-0.2,0
			C10.7-15.9,10.7-15.9,10.8-16z"/>
	</g>
	<text transform="matrix(1 0 0 1 1289 1953)" class="st2 st3">Exporting</text>
	<text transform="matrix(1 0 0 1 1289 1971)" class="st4 st3">Symbols should be outlined when exporting to ensure the</text>
	<text transform="matrix(1 0 0 1 1289 1989)" class="st4 st3">design is preserved when submitting to Xcode.</text>
	<text id="template-version" transform="matrix(1 0 0 1 2952.4204 1933)" class="st4 st3">Template v.3.0</text>
	<text transform="matrix(1 0 0 1 2865.4575 1951)" class="st4 st3">Requires Xcode 13 or greater</text>
	<text id="descriptive-name" transform="matrix(1 0 0 1 2914.6265 1969)" class="st4 st3">Generated from misc</text>
	<text transform="matrix(1 0 0 1 2912.4175 1987)" class="st4 st3">Typeset at 100 points</text>
	<text transform="matrix(1 0 0 1 263 726)" class="st4 st3">Small</text>
	<text transform="matrix(1 0 0 1 263 1156)" class="st4 st3">Medium</text>
	<text transform="matrix(1 0 0 1 263 1586)" class="st4 st3">Large</text>
</g>
<g id="Guides">
	<g id="H-reference" transform="matrix(1 0 0 1 339 696)">
		<path class="st6" d="M1,0h2.6l25.7-67.1H30v-3.3h-1.9L1,0z M11.7-24.5H47l-0.8-2.2H12.4L11.7-24.5z M55.1,0h2.6L30.6-70.5h-1.2
			v3.3L55.1,0z"/>
	</g>
	<line id="Baseline-S" class="st7" x1="263" y1="696" x2="3036" y2="696"/>
	<line id="Capline-S" class="st7" x1="263" y1="625.5" x2="3036" y2="625.5"/>
	<g id="H-reference_1_" transform="matrix(1 0 0 1 339 1126)">
		<path class="st6" d="M1,0h2.6l25.7-67.1H30v-3.3h-1.9L1,0z M11.7-24.5H47l-0.8-2.2H12.4L11.7-24.5z M55.1,0h2.6L30.6-70.5h-1.2
			v3.3L55.1,0z"/>
	</g>
	<line id="Baseline-M" class="st7" x1="263" y1="1126" x2="3036" y2="1126"/>
	<line id="Capline-M" class="st7" x1="263" y1="1055.5" x2="3036" y2="1055.5"/>
	<g id="H-reference_2_" transform="matrix(1 0 0 1 339 1556)">
		<path class="st6" d="M1,0h2.6l25.7-67.1H30v-3.3h-1.9L1,0z M11.7-24.5H47l-0.8-2.2H12.4L11.7-24.5z M55.1,0h2.6L30.6-70.5h-1.2
			v3.3L55.1,0z"/>
	</g>
	<line id="Baseline-L" class="st7" x1="263" y1="1556" x2="3036" y2="1556"/>
	<line id="Capline-L" class="st7" x1="263" y1="1485.5" x2="3036" y2="1485.5"/>
	<line id="left-margin-Regular-M" class="st5" x1="1391.3" y1="1030.8" x2="1391.3" y2="1150.1"/>
	<line id="right-margin-Regular-M" class="st5" x1="1508.4" y1="1030.8" x2="1508.4" y2="1150.1"/>
</g>
<g id="Symbols">
	<g id="Black-L" transform="matrix(1 0 0 1 2854.19 1556)">
		<path d="M23.6-25.3c-9.8,0-17.7-7.9-17.7-17.7s7.9-17.7,17.7-17.7S41.3-52.7,41.3-43S33.4-25.3,23.6-25.3z M32.5-43
			c0,4.9-4,8.9-8.9,8.9s-8.9-4-8.9-8.9s4-8.9,8.9-8.9S32.5-47.9,32.5-43z M85.2,37C73.5,37,64,27.5,64,15.8S73.5-5.4,85.2-5.4
			s21.2,9.5,21.2,21.2S96.8,37,85.2,37z M97.5,15.8c0,6.8-5.6,12.4-12.4,12.4s-12.4-5.6-12.4-12.4S78.3,3.4,85.2,3.4
			S97.5,9,97.5,15.8z M124.3-51.2c-15.5,0-28.2-12.6-28.2-28.2s12.6-28.2,28.2-28.2s28.2,12.6,28.2,28.2S139.9-51.2,124.3-51.2z
			 M143.7-79.3c0,10.7-8.7,19.4-19.4,19.4s-19.4-8.7-19.4-19.4s8.7-19.4,19.4-19.4S143.7-90,143.7-79.3z M57.9-50.7l25.3-8.9
			c2.3-0.8,3.5-3.3,2.7-5.6c-0.8-2.3-3.3-3.5-5.6-2.7L55-59c-2.3,0.8-3.5,3.3-2.7,5.6c0.6,1.8,2.3,2.9,4.2,2.9
			C57-50.5,57.5-50.5,57.9-50.7z M102.5-14l9.6-22.8c0.9-2.2-0.1-4.8-2.3-5.8c-2.2-0.9-4.8,0.1-5.8,2.3l-9.6,22.8
			c-0.9,2.2,0.1,4.8,2.3,5.8c0.6,0.2,1.1,0.3,1.7,0.3C100.2-11.3,101.8-12.3,102.5-14z M63.5-4c1.7-1.8,1.6-4.5-0.2-6.2L48.2-24.6
			c-1.8-1.7-4.5-1.6-6.2,0.2c-1.7,1.8-1.6,4.5,0.2,6.2L57.2-3.9c0.9,0.8,1.9,1.2,3,1.2C61.4-2.7,62.6-3.1,63.5-4z"/>
	</g>
	<g id="Heavy-L" transform="matrix(1 0 0 1 2558.42 1556)">
		<path d="M23.4-25.7c-9.5,0-17.1-7.7-17.1-17.1S14-60,23.4-60s17.1,7.7,17.1,17.1S32.9-25.7,23.4-25.7z M32.5-42.9
			c0,5-4.1,9.1-9.1,9.1s-9.1-4.1-9.1-9.1s4.1-9.1,9.1-9.1S32.5-47.9,32.5-42.9z M84.1,35.7c-11.4,0-20.6-9.2-20.6-20.6
			S72.8-5.5,84.1-5.5s20.6,9.2,20.6,20.6S95.5,35.7,84.1,35.7z M96.7,15.1c0,6.9-5.6,12.5-12.5,12.5S71.6,22,71.6,15.1
			S77.2,2.6,84.1,2.6S96.7,8.2,96.7,15.1z M122.8-51.2c-15.2,0-27.5-12.3-27.5-27.5s12.3-27.5,27.5-27.5s27.5,12.3,27.5,27.5
			S137.9-51.2,122.8-51.2z M142.2-78.7c0,10.7-8.7,19.4-19.4,19.4s-19.4-8.7-19.4-19.4s8.7-19.4,19.4-19.4S142.2-89.4,142.2-78.7z
			 M57.2-50.8l25-8.7c2.1-0.7,3.2-3,2.5-5.1c-0.7-2.1-3-3.2-5.1-2.5l-25,8.7c-2.1,0.7-3.2,3-2.5,5.1c0.6,1.7,2.1,2.7,3.8,2.7
			C56.3-50.6,56.7-50.6,57.2-50.8z M101-14.4l9.5-22.5c0.9-2.1-0.1-4.4-2.2-5.3c-2-0.9-4.4,0.1-5.3,2.2l-9.5,22.5
			c-0.9,2.1,0.1,4.4,2.2,5.3c0.5,0.2,1,0.3,1.6,0.3C98.8-11.9,100.3-12.8,101-14.4z M62.5-4.7c1.5-1.6,1.5-4.2-0.1-5.7L47.4-24.5
			c-1.6-1.5-4.2-1.5-5.7,0.1c-1.5,1.6-1.5,4.2,0.1,5.7L56.8-4.5c0.8,0.7,1.8,1.1,2.8,1.1C60.6-3.4,61.7-3.8,62.5-4.7z"/>
	</g>
	<g id="Bold-L" transform="matrix(1 0 0 1 2262.89 1556)">
		<path d="M23-26.2c-9.1,0-16.6-7.4-16.6-16.6S13.8-59.3,23-59.3s16.6,7.4,16.6,16.6S32.1-26.2,23-26.2z M32.3-42.8
			c0,5.1-4.2,9.3-9.3,9.3s-9.3-4.2-9.3-9.3S17.9-52,23-52S32.3-47.9,32.3-42.8z M82.9,34.4c-11,0-20-9-20-20s9-20,20-20s20,9,20,20
			S93.9,34.4,82.9,34.4z M95.5,14.4c0,7-5.7,12.7-12.7,12.7c-7,0-12.7-5.7-12.7-12.7S75.9,1.7,82.9,1.7C89.8,1.7,95.5,7.4,95.5,14.4
			z M121-51.3c-14.8,0-26.8-12-26.8-26.8s12-26.8,26.8-26.8s26.8,12,26.8,26.8S135.7-51.3,121-51.3z M140.4-78.1
			c0,10.7-8.7,19.5-19.5,19.5s-19.5-8.7-19.5-19.5s8.7-19.5,19.5-19.5S140.4-88.9,140.4-78.1z M56.2-50.9l24.6-8.6
			c1.9-0.7,2.9-2.8,2.3-4.7c-0.7-1.9-2.8-2.9-4.7-2.3l-24.6,8.6c-1.9,0.7-2.9,2.8-2.3,4.7c0.5,1.5,1.9,2.5,3.5,2.5
			C55.4-50.6,55.8-50.7,56.2-50.9z M99.2-14.8l9.3-22.2c0.8-1.9-0.1-4-2-4.8c-1.9-0.8-4,0.1-4.8,2l-9.3,22.2c-0.8,1.9,0.1,4,2,4.8
			c0.5,0.2,0.9,0.3,1.4,0.3C97.2-12.6,98.6-13.4,99.2-14.8z M61.3-5.3c1.4-1.5,1.3-3.8-0.1-5.2l-14.7-14c-1.5-1.4-3.8-1.3-5.2,0.1
			c-1.4,1.5-1.3,3.8,0.1,5.2l14.7,14c0.7,0.7,1.6,1,2.5,1C59.6-4.2,60.6-4.6,61.3-5.3z"/>
	</g>
	<g id="Semibold-L" transform="matrix(1 0 0 1 1966.99 1556)">
		<path d="M23-26.6c-8.9,0-16.1-7.2-16.1-16.1S14.1-58.7,23-58.7S39-51.5,39-42.6S31.8-26.6,23-26.6z M32.4-42.6
			c0,5.2-4.2,9.4-9.4,9.4s-9.4-4.2-9.4-9.4s4.2-9.4,9.4-9.4S32.4-47.8,32.4-42.6z M82,33.1c-10.7,0-19.4-8.7-19.4-19.4
			S71.3-5.7,82-5.7s19.4,8.7,19.4,19.4S92.7,33.1,82,33.1z M94.8,13.7c0,7-5.7,12.8-12.8,12.8s-12.8-5.7-12.8-12.8S74.9,0.9,82,0.9
			S94.8,6.6,94.8,13.7z M119.5-51.4c-14.4,0-26.1-11.7-26.1-26.1s11.7-26.1,26.1-26.1s26.1,11.7,26.1,26.1S133.9-51.4,119.5-51.4z
			 M139-77.5c0,10.7-8.7,19.5-19.5,19.5S100-66.8,100-77.5S108.8-97,119.5-97S139-88.3,139-77.5z M55.6-50.9l24.3-8.5
			c1.7-0.6,2.6-2.5,2-4.2s-2.5-2.6-4.2-2l-24.3,8.5c-1.7,0.6-2.6,2.5-2,4.2c0.5,1.4,1.8,2.2,3.1,2.2C54.8-50.7,55.2-50.8,55.6-50.9z
			 M97.8-15.2l9.2-21.9c0.7-1.7-0.1-3.6-1.8-4.3c-1.7-0.7-3.6,0.1-4.3,1.8l-9.2,21.9c-0.7,1.7,0.1,3.6,1.8,4.3
			c0.4,0.2,0.9,0.3,1.3,0.3C96-13.2,97.2-13.9,97.8-15.2z M60.5-5.9c1.3-1.3,1.2-3.4-0.1-4.7L45.9-24.4c-1.3-1.3-3.4-1.2-4.7,0.1
			c-1.3,1.3-1.2,3.4,0.1,4.7L55.8-5.8c0.6,0.6,1.5,0.9,2.3,0.9C59-4.9,59.8-5.3,60.5-5.9z"/>
	</g>
	<g id="Medium-L" transform="matrix(1 0 0 1 1670.9 1556)">
		<path d="M23.1-27c-8.6,0-15.5-7-15.5-15.5s7-15.5,15.5-15.5s15.5,7,15.5,15.5S31.7-27,23.1-27z M32.7-42.5c0,5.3-4.3,9.6-9.6,9.6
			s-9.6-4.3-9.6-9.6s4.3-9.6,9.6-9.6S32.7-47.8,32.7-42.5z M81.3,31.8c-10.4,0-18.8-8.4-18.8-18.8S70.9-5.9,81.3-5.9
			s18.8,8.4,18.8,18.8S91.7,31.8,81.3,31.8z M94.2,13c0,7.1-5.8,12.9-12.9,12.9c-7.1,0-12.9-5.8-12.9-12.9S74.2,0.1,81.3,0.1
			C88.4,0.1,94.2,5.9,94.2,13z M118.3-51.5c-14,0-25.4-11.4-25.4-25.4s11.4-25.4,25.4-25.4s25.4,11.4,25.4,25.4
			S132.3-51.5,118.3-51.5z M137.8-76.9c0,10.8-8.7,19.5-19.5,19.5c-10.8,0-19.5-8.7-19.5-19.5s8.7-19.5,19.5-19.5
			C129-96.4,137.8-87.7,137.8-76.9z M55.2-51l23.9-8.4c1.5-0.5,2.4-2.2,1.8-3.8c-0.5-1.5-2.2-2.4-3.8-1.8l-23.9,8.4
			c-1.5,0.5-2.4,2.2-1.8,3.8c0.4,1.2,1.6,2,2.8,2C54.5-50.8,54.8-50.9,55.2-51z M96.6-15.6l9.1-21.6c0.6-1.5-0.1-3.3-1.6-3.9
			c-1.5-0.6-3.3,0.1-3.9,1.6l-9.1,21.6c-0.6,1.5,0.1,3.3,1.6,3.9c0.4,0.2,0.8,0.2,1.2,0.2C95-13.8,96.1-14.5,96.6-15.6z M59.9-6.6
			c1.1-1.2,1.1-3.1-0.1-4.2L45.5-24.3c-1.2-1.1-3.1-1.1-4.2,0.1c-1.1,1.2-1.1,3.1,0.1,4.2L55.7-6.5c0.6,0.5,1.3,0.8,2,0.8
			C58.5-5.6,59.3-6,59.9-6.6z"/>
	</g>
	<g id="Regular-L" transform="matrix(1 0 0 1 1374.99 1556)">
		<path d="M23.1-27.4c-8.3,0-15-6.7-15-15s6.7-15,15-15s15,6.7,15,15S31.4-27.4,23.1-27.4z M32.8-42.4c0,5.4-4.4,9.7-9.7,9.7
			s-9.7-4.4-9.7-9.7s4.4-9.7,9.7-9.7S32.8-47.8,32.8-42.4z M80.4,30.5c-10.1,0-18.3-8.2-18.3-18.3S70.3-6,80.4-6s18.3,8.2,18.3,18.3
			S90.5,30.5,80.4,30.5z M93.4,12.3c0,7.2-5.8,13-13,13s-13-5.8-13-13s5.8-13,13-13S93.4,5.1,93.4,12.3z M116.8-51.5
			c-13.7,0-24.8-11.1-24.8-24.8s11.1-24.8,24.8-24.8s24.8,11.1,24.8,24.8S130.5-51.5,116.8-51.5z M136.4-76.3
			c0,10.8-8.7,19.5-19.5,19.5s-19.5-8.7-19.5-19.5s8.7-19.5,19.5-19.5S136.4-87,136.4-76.3z M54.6-51l23.6-8.3
			c1.4-0.5,2.1-2,1.6-3.4c-0.5-1.4-2-2.1-3.4-1.6L52.8-56c-1.4,0.5-2.1,2-1.6,3.4c0.4,1.1,1.4,1.8,2.5,1.8
			C54-50.9,54.3-50.9,54.6-51z M95.2-16l8.9-21.2c0.6-1.3-0.1-2.9-1.4-3.4c-1.3-0.6-2.9,0.1-3.4,1.4l-8.9,21.2
			c-0.6,1.3,0.1,2.9,1.4,3.4c0.3,0.1,0.7,0.2,1,0.2C93.8-14.4,94.8-15,95.2-16z M59.1-7.2c1-1.1,1-2.7-0.1-3.7L44.9-24.3
			c-1.1-1-2.7-1-3.7,0.1c-1,1.1-1,2.7,0.1,3.7L55.4-7.1c0.5,0.5,1.2,0.7,1.8,0.7C57.9-6.4,58.6-6.7,59.1-7.2z"/>
	</g>
	<g id="Light-L" transform="matrix(1 0 0 1 1079.2 1556)">
		<path d="M23-27.8c-8,0-14.5-6.5-14.5-14.5S15-56.8,23-56.8s14.5,6.5,14.5,14.5S30.9-27.8,23-27.8z M32.8-42.3
			c0,5.4-4.4,9.9-9.9,9.9s-9.9-4.4-9.9-9.9s4.4-9.9,9.9-9.9S32.8-47.8,32.8-42.3z M79.4,29.2c-9.8,0-17.7-7.9-17.7-17.7
			S69.6-6.2,79.4-6.2s17.7,7.9,17.7,17.7S89.1,29.2,79.4,29.2z M92.5,11.5c0,7.2-5.9,13.1-13.1,13.1c-7.2,0-13.1-5.9-13.1-13.1
			S72.2-1.5,79.4-1.5C86.6-1.5,92.5,4.3,92.5,11.5z M115.3-51.6c-13.3,0-24.1-10.8-24.1-24.1s10.8-24.1,24.1-24.1
			s24.1,10.8,24.1,24.1S128.6-51.6,115.3-51.6z M134.8-75.7c0,10.8-8.7,19.5-19.5,19.5s-19.5-8.7-19.5-19.5s8.7-19.5,19.5-19.5
			S134.8-86.4,134.8-75.7z M53.9-51l23.2-8.1c1.2-0.4,1.8-1.7,1.4-2.9c-0.4-1.2-1.7-1.8-2.9-1.4l-23.2,8.1c-1.2,0.4-1.8,1.7-1.4,2.9
			c0.3,0.9,1.2,1.5,2.2,1.5C53.3-50.9,53.6-51,53.9-51z M93.7-16.4l8.8-20.9c0.5-1.2-0.1-2.5-1.2-3c-1.2-0.5-2.5,0.1-3,1.2
			l-8.8,20.9c-0.5,1.2,0.1,2.5,1.2,3c0.3,0.1,0.6,0.2,0.9,0.2C92.5-15,93.3-15.5,93.7-16.4z M58.2-7.8c0.9-0.9,0.8-2.4-0.1-3.3
			L44.3-24.2c-0.9-0.9-2.4-0.8-3.3,0.1c-0.9,0.9-0.8,2.4,0.1,3.3L55-7.7c0.4,0.4,1,0.6,1.6,0.6C57.2-7.1,57.8-7.3,58.2-7.8z"/>
	</g>
	<g id="Thin-L" transform="matrix(1 0 0 1 783.716 1556)">
		<path d="M22.5-28.2c-7.7,0-14-6.3-14-14s6.3-14,14-14s14,6.3,14,14S30.2-28.2,22.5-28.2z M32.5-42.2c0,5.5-4.5,10-10,10
			s-10-4.5-10-10s4.5-10,10-10S32.5-47.7,32.5-42.2z M78.1,27.9c-9.4,0-17.1-7.7-17.1-17.1S68.6-6.3,78.1-6.3s17.1,7.7,17.1,17.1
			S87.5,27.9,78.1,27.9z M91.2,10.8c0,7.3-5.9,13.2-13.2,13.2s-13.2-5.9-13.2-13.2S70.8-2.4,78.1-2.4S91.2,3.5,91.2,10.8z
			 M113.4-51.6C100.5-51.6,90-62.1,90-75s10.5-23.4,23.4-23.4S136.9-88,136.9-75S126.3-51.6,113.4-51.6z M132.9-75
			c0,10.7-8.7,19.5-19.5,19.5S93.9-64.3,93.9-75s8.7-19.5,19.5-19.5S132.9-85.8,132.9-75z M52.8-51.1l22.9-8c1-0.4,1.6-1.5,1.2-2.5
			c-0.4-1-1.5-1.6-2.5-1.2l-22.9,8c-1,0.4-1.6,1.5-1.2,2.5c0.3,0.8,1.1,1.3,1.9,1.3C52.4-51,52.6-51,52.8-51.1z M91.9-16.8l8.7-20.6
			c0.4-1,0-2.2-1.1-2.6c-1-0.4-2.2,0-2.6,1.1l-8.7,20.6c-0.4,1,0,2.2,1.1,2.6c0.3,0.1,0.5,0.2,0.8,0.2
			C90.8-15.6,91.6-16.1,91.9-16.8z M57-8.5c0.8-0.8,0.7-2.1-0.1-2.8l-13.6-13c-0.8-0.8-2.1-0.7-2.8,0.1c-0.8,0.8-0.7,2.1,0.1,2.8
			l13.6,13c0.4,0.4,0.9,0.5,1.4,0.5C56.1-7.8,56.7-8,57-8.5z"/>
	</g>
	<g id="Ultralight-L" transform="matrix(1 0 0 1 487.631 1556)">
		<path d="M22.7-28.6c-7.4,0-13.5-6-13.5-13.5s6-13.5,13.5-13.5s13.5,6,13.5,13.5S30.1-28.6,22.7-28.6z M32.8-42.1
			c0,5.6-4.5,10.1-10.1,10.1s-10.1-4.5-10.1-10.1s4.5-10.1,10.1-10.1S32.8-47.7,32.8-42.1z M77.4,26.7c-9.1,0-16.6-7.4-16.6-16.6
			S68.2-6.5,77.4-6.5s16.6,7.4,16.6,16.6S86.5,26.7,77.4,26.7z M90.6,10.1c0,7.3-5.9,13.2-13.2,13.2s-13.2-5.9-13.2-13.2
			S70.1-3.2,77.4-3.2S90.6,2.8,90.6,10.1z M112.1-51.6c-12.6,0-22.8-10.2-22.8-22.8s10.2-22.8,22.8-22.8s22.8,10.2,22.8,22.8
			S124.7-51.6,112.1-51.6z M131.6-74.4c0,10.7-8.7,19.4-19.4,19.4s-19.4-8.7-19.4-19.4s8.7-19.4,19.4-19.4S131.6-85.1,131.6-74.4z
			 M52.4-51.1L74.9-59c0.9-0.3,1.3-1.3,1-2.1c-0.3-0.9-1.3-1.3-2.1-1l-22.5,7.9c-0.9,0.3-1.3,1.3-1,2.1c0.2,0.7,0.9,1.1,1.6,1.1
			C52.1-51,52.3-51,52.4-51.1z M90.7-17.2l8.5-20.3c0.4-0.9,0-1.8-0.9-2.2c-0.9-0.4-1.8,0-2.2,0.9l-8.5,20.3c-0.4,0.9,0,1.8,0.9,2.2
			c0.2,0.1,0.4,0.1,0.6,0.1C89.8-16.2,90.4-16.6,90.7-17.2z M56.5-9.1c0.6-0.7,0.6-1.7-0.1-2.4L43-24.2c-0.7-0.6-1.7-0.6-2.4,0.1
			c-0.6,0.7-0.6,1.7,0.1,2.4L54.1-9c0.3,0.3,0.7,0.5,1.2,0.5C55.7-8.5,56.1-8.7,56.5-9.1z"/>
	</g>
	<g id="Black-M" transform="matrix(1 0 0 1 2871.36 1126)">
		<path d="M18.9-27.5c-7.6,0-13.7-6.2-13.7-13.7s6.2-13.7,13.7-13.7s13.7,6.2,13.7,13.7S26.5-27.5,18.9-27.5z M25.8-41.2
			c0,3.8-3.1,6.9-6.9,6.9s-6.9-3.1-6.9-6.9c0-3.8,3.1-6.9,6.9-6.9S25.8-45,25.8-41.2z M66.7,20.7c-9.1,0-16.4-7.4-16.4-16.4
			s7.4-16.4,16.4-16.4S83.1-4.7,83.1,4.3S75.7,20.7,66.7,20.7z M76.3,4.3c0,5.3-4.3,9.6-9.6,9.6c-5.3,0-9.6-4.3-9.6-9.6
			s4.3-9.6,9.6-9.6C71.9-5.3,76.3-1,76.3,4.3z M97-47.6c-12,0-21.8-9.8-21.8-21.8S85-91.3,97-91.3s21.8,9.8,21.8,21.8
			S109.1-47.6,97-47.6z M112-69.4c0,8.3-6.7,15-15,15s-15-6.7-15-15s6.7-15,15-15S112-77.7,112-69.4z M45.6-47.2l19.6-6.9
			c1.8-0.6,2.7-2.6,2.1-4.3c-0.6-1.8-2.6-2.7-4.3-2.1l-19.6,6.9c-1.8,0.6-2.7,2.6-2.1,4.3c0.5,1.4,1.8,2.3,3.2,2.3
			C44.8-47,45.2-47.1,45.6-47.2z M80.1-18.8l7.4-17.7c0.7-1.7-0.1-3.7-1.8-4.5c-1.7-0.7-3.7,0.1-4.5,1.8l-7.4,17.7
			c-0.7,1.7,0.1,3.7,1.8,4.5c0.4,0.2,0.9,0.3,1.3,0.3C78.3-16.7,79.5-17.5,80.1-18.8z M49.8-11c1.3-1.4,1.2-3.5-0.1-4.8L38-27
			c-1.4-1.3-3.5-1.2-4.8,0.1c-1.3,1.4-1.2,3.5,0.1,4.8L45-10.9c0.7,0.6,1.5,0.9,2.3,0.9C48.3-10,49.2-10.3,49.8-11z"/>
	</g>
	<g id="Heavy-M" transform="matrix(1 0 0 1 2575.48 1126)">
		<path d="M18.7-27.9c-7.3,0-13.3-6-13.3-13.3s6-13.3,13.3-13.3S32-48.5,32-41.1S26-27.9,18.7-27.9z M25.7-41.1c0,3.9-3.2,7-7,7
			s-7-3.2-7-7s3.2-7,7-7S25.7-45,25.7-41.1z M65.8,19.7c-8.8,0-16-7.2-16-16s7.2-16,16-16c8.8,0,16,7.2,16,16S74.6,19.7,65.8,19.7z
			 M75.5,3.8c0,5.4-4.4,9.7-9.7,9.7c-5.4,0-9.7-4.4-9.7-9.7s4.4-9.7,9.7-9.7C71.1-5.9,75.5-1.6,75.5,3.8z M95.7-47.6
			C84-47.6,74.4-57.2,74.4-69S84-90.3,95.7-90.3S117-80.7,117-69S107.5-47.6,95.7-47.6z M110.8-69c0,8.3-6.8,15.1-15.1,15.1
			S80.6-60.6,80.6-69S87.4-84,95.7-84S110.8-77.3,110.8-69z M44.9-47.3l19.4-6.8c1.6-0.6,2.5-2.4,1.9-4c-0.6-1.6-2.4-2.5-4-1.9
			l-19.4,6.8c-1.6,0.6-2.5,2.4-1.9,4c0.5,1.3,1.7,2.1,2.9,2.1C44.2-47.1,44.5-47.2,44.9-47.3z M78.8-19.1l7.3-17.5
			c0.7-1.6-0.1-3.4-1.7-4.1c-1.6-0.7-3.4,0.1-4.1,1.7L73-21.5c-0.7,1.6,0.1,3.4,1.7,4.1c0.4,0.2,0.8,0.2,1.2,0.2
			C77.1-17.2,78.3-17.9,78.8-19.1z M49-11.5c1.2-1.3,1.1-3.2-0.1-4.4l-11.6-11c-1.3-1.2-3.2-1.1-4.4,0.1c-1.2,1.3-1.1,3.2,0.1,4.4
			l11.6,11c0.6,0.6,1.4,0.9,2.2,0.9C47.5-10.6,48.4-10.9,49-11.5z"/>
	</g>
	<g id="Bold-M" transform="matrix(1 0 0 1 2279.69 1126)">
		<path d="M18.4-28.2c-7.1,0-12.9-5.8-12.9-12.9s5.8-12.9,12.9-12.9s12.9,5.8,12.9,12.9S25.4-28.2,18.4-28.2z M25.5-41.1
			c0,4-3.2,7.2-7.2,7.2s-7.2-3.2-7.2-7.2s3.2-7.2,7.2-7.2S25.5-45,25.5-41.1z M64.8,18.7c-8.5,0-15.5-7-15.5-15.5s7-15.5,15.5-15.5
			s15.5,7,15.5,15.5S73.3,18.7,64.8,18.7z M74.6,3.2c0,5.4-4.4,9.8-9.8,9.8c-5.4,0-9.8-4.4-9.8-9.8s4.4-9.8,9.8-9.8
			C70.2-6.6,74.6-2.2,74.6,3.2z M94.3-47.7c-11.5,0-20.8-9.3-20.8-20.8s9.3-20.8,20.8-20.8s20.8,9.3,20.8,20.8S105.8-47.7,94.3-47.7
			z M109.4-68.5c0,8.3-6.8,15.1-15.1,15.1s-15.1-6.8-15.1-15.1S86-83.6,94.3-83.6S109.4-76.8,109.4-68.5z M44.1-47.3L63.2-54
			c1.5-0.5,2.3-2.1,1.7-3.6c-0.5-1.5-2.1-2.3-3.6-1.7l-19.1,6.7c-1.5,0.5-2.3,2.1-1.7,3.6c0.4,1.2,1.5,1.9,2.7,1.9
			C43.5-47.2,43.8-47.2,44.1-47.3z M77.4-19.4l7.2-17.2c0.6-1.4-0.1-3.1-1.5-3.7c-1.4-0.6-3.1,0.1-3.7,1.5l-7.2,17.2
			c-0.6,1.4,0.1,3.1,1.5,3.7c0.4,0.2,0.7,0.2,1.1,0.2C75.9-17.6,76.9-18.3,77.4-19.4z M48.1-12c1.1-1.1,1-2.9-0.1-4L36.6-26.9
			c-1.1-1.1-2.9-1-4,0.1c-1.1,1.1-1,2.9,0.1,4L44-11.9c0.6,0.5,1.3,0.8,2,0.8C46.7-11.2,47.5-11.4,48.1-12z"/>
	</g>
	<g id="Semibold-M" transform="matrix(1 0 0 1 1983.62 1126)">
		<path d="M18.3-28.5c-6.9,0-12.4-5.6-12.4-12.4s5.6-12.4,12.4-12.4S30.8-47.8,30.8-41S25.2-28.5,18.3-28.5z M25.6-41
			c0,4-3.3,7.3-7.3,7.3S11-36.9,11-41s3.3-7.3,7.3-7.3S25.6-45,25.6-41z M64.1,17.7c-8.3,0-15-6.8-15-15s6.8-15,15-15s15,6.8,15,15
			S72.4,17.7,64.1,17.7z M74,2.7c0,5.5-4.4,9.9-9.9,9.9s-9.9-4.4-9.9-9.9s4.4-9.9,9.9-9.9S74-2.8,74,2.7z M93.2-47.8
			C82-47.8,72.9-56.9,72.9-68c0-11.2,9.1-20.2,20.2-20.2s20.2,9.1,20.2,20.2C113.4-56.9,104.3-47.8,93.2-47.8z M108.3-68
			c0,8.3-6.8,15.1-15.1,15.1S78.1-59.7,78.1-68s6.8-15.1,15.1-15.1S108.3-76.3,108.3-68z M43.6-47.4L62.4-54c1.3-0.5,2-1.9,1.6-3.3
			s-1.9-2-3.3-1.6l-18.8,6.6c-1.3,0.5-2,1.9-1.6,3.3c0.4,1.1,1.4,1.7,2.4,1.7C43-47.2,43.3-47.3,43.6-47.4z M76.3-19.7l7.1-17
			c0.6-1.3-0.1-2.8-1.4-3.4c-1.3-0.6-2.8,0.1-3.4,1.4l-7.1,17c-0.6,1.3,0.1,2.8,1.4,3.4c0.3,0.1,0.7,0.2,1,0.2
			C74.9-18.1,75.9-18.7,76.3-19.7z M47.4-12.5c1-1,0.9-2.7-0.1-3.6L36.1-26.8c-1-1-2.7-0.9-3.6,0.1c-1,1-0.9,2.7,0.1,3.6l11.2,10.7
			c0.5,0.5,1.1,0.7,1.8,0.7C46.2-11.7,46.9-12,47.4-12.5z"/>
	</g>
	<g id="Medium-M" transform="matrix(1 0 0 1 1687.4 1126)">
		<path d="M18.4-28.9c-6.6,0-12-5.4-12-12s5.4-12,12-12s12,5.4,12,12S25.1-28.9,18.4-28.9z M25.9-40.9c0,4.1-3.3,7.4-7.4,7.4
			S11-36.8,11-40.9s3.3-7.4,7.4-7.4S25.9-45,25.9-40.9z M63.5,16.7c-8,0-14.6-6.5-14.6-14.6s6.5-14.6,14.6-14.6S78.1-5.9,78.1,2.1
			S71.6,16.7,63.5,16.7z M73.5,2.1c0,5.5-4.5,10-10,10s-10-4.5-10-10s4.5-10,10-10S73.5-3.4,73.5,2.1z M92.2-47.8
			c-10.9,0-19.7-8.8-19.7-19.7s8.8-19.7,19.7-19.7s19.7,8.8,19.7,19.7S103.1-47.8,92.2-47.8z M107.3-67.5c0,8.3-6.8,15.1-15.1,15.1
			s-15.1-6.8-15.1-15.1s6.8-15.1,15.1-15.1S107.3-75.9,107.3-67.5z M43.3-47.4l18.6-6.5c1.2-0.4,1.8-1.7,1.4-2.9
			c-0.4-1.2-1.7-1.8-2.9-1.4l-18.6,6.5c-1.2,0.4-1.8,1.7-1.4,2.9c0.3,0.9,1.2,1.5,2.2,1.5C42.8-47.3,43-47.3,43.3-47.4z M75.4-20
			l7-16.7c0.5-1.2-0.1-2.5-1.2-3c-1.2-0.5-2.5,0.1-3,1.2l-7,16.7c-0.5,1.2,0.1,2.5,1.2,3c0.3,0.1,0.6,0.2,0.9,0.2
			C74.1-18.6,75-19.1,75.4-20z M46.9-13c0.9-0.9,0.8-2.4-0.1-3.3L35.8-26.8c-0.9-0.9-2.4-0.8-3.3,0.1c-0.9,0.9-0.8,2.4,0.1,3.3
			l11.1,10.5c0.4,0.4,1,0.6,1.6,0.6C45.9-12.3,46.5-12.5,46.9-13z"/>
	</g>
	<g id="Regular-M" transform="matrix(1 0 0 1 1391.32 1126)">
		<path d="M18.4-29.2c-6.4,0-11.6-5.2-11.6-11.6S12-52.4,18.4-52.4S30-47.2,30-40.8S24.8-29.2,18.4-29.2z M25.9-40.8
			c0,4.2-3.4,7.5-7.5,7.5s-7.5-3.4-7.5-7.5s3.4-7.5,7.5-7.5S25.9-45,25.9-40.8z M62.8,15.7c-7.8,0-14.2-6.3-14.2-14.2
			S55-12.6,62.8-12.6S77-6.2,77,1.6S70.6,15.7,62.8,15.7z M72.9,1.6c0,5.6-4.5,10.1-10.1,10.1S52.7,7.1,52.7,1.6S57.3-8.5,62.8-8.5
			S72.9-4,72.9,1.6z M91.1-47.9c-10.6,0-19.2-8.6-19.2-19.2s8.6-19.2,19.2-19.2s19.2,8.6,19.2,19.2S101.7-47.9,91.1-47.9z
			 M106.2-67.1c0,8.3-6.8,15.1-15.1,15.1S76-58.7,76-67.1s6.8-15.1,15.1-15.1S106.2-75.4,106.2-67.1z M42.8-47.5l18.3-6.4
			c1.1-0.4,1.6-1.5,1.3-2.6c-0.4-1.1-1.5-1.6-2.6-1.3l-18.3,6.4c-1.1,0.4-1.6,1.5-1.3,2.6c0.3,0.8,1.1,1.4,1.9,1.4
			C42.3-47.4,42.6-47.4,42.8-47.5z M74.3-20.3l6.9-16.5c0.4-1-0.1-2.2-1.1-2.7c-1-0.4-2.2,0-2.7,1.1l-6.9,16.5
			c-0.4,1,0.1,2.2,1.1,2.7c0.3,0.1,0.5,0.2,0.8,0.2C73.2-19.1,74-19.6,74.3-20.3z M46.3-13.5c0.8-0.8,0.7-2.1-0.1-2.9L35.3-26.7
			c-0.8-0.8-2.1-0.7-2.9,0.1c-0.8,0.8-0.7,2.1,0.1,2.9l10.9,10.4c0.4,0.4,0.9,0.6,1.4,0.6C45.4-12.9,45.9-13.1,46.3-13.5z"/>
	</g>
	<g id="Light-M" transform="matrix(1 0 0 1 1095.44 1126)">
		<path d="M18.2-29.5c-6.2,0-11.2-5-11.2-11.2S12-52,18.2-52s11.2,5,11.2,11.2S24.4-29.5,18.2-29.5z M25.8-40.7
			c0,4.2-3.4,7.7-7.7,7.7s-7.7-3.4-7.7-7.7s3.4-7.7,7.7-7.7S25.8-45,25.8-40.7z M61.9,14.7c-7.6,0-13.7-6.2-13.7-13.7
			s6.2-13.7,13.7-13.7S75.6-6.5,75.6,1S69.5,14.7,61.9,14.7z M72.1,1c0,5.6-4.6,10.1-10.1,10.1S51.8,6.6,51.8,1S56.3-9.1,61.9-9.1
			S72.1-4.6,72.1,1z M89.8-47.9c-10.3,0-18.7-8.4-18.7-18.7s8.4-18.7,18.7-18.7s18.7,8.4,18.7,18.7S100.1-47.9,89.8-47.9z
			 M104.9-66.6c0,8.3-6.8,15.1-15.1,15.1s-15.1-6.8-15.1-15.1s6.8-15.1,15.1-15.1S104.9-74.9,104.9-66.6z M42.1-47.5l18-6.3
			c0.9-0.3,1.4-1.3,1.1-2.3c-0.3-0.9-1.3-1.4-2.3-1.1l-18,6.3c-0.9,0.3-1.4,1.3-1.1,2.3c0.3,0.7,0.9,1.2,1.7,1.2
			C41.7-47.4,41.9-47.4,42.1-47.5z M73-20.7l6.8-16.2c0.4-0.9,0-2-1-2.3c-0.9-0.4-2,0-2.3,1L69.7-22c-0.4,0.9,0,2,1,2.3
			c0.2,0.1,0.5,0.1,0.7,0.1C72.1-19.6,72.7-20,73-20.7z M45.5-14c0.7-0.7,0.7-1.8-0.1-2.5L34.7-26.7c-0.7-0.7-1.8-0.6-2.5,0.1
			c-0.7,0.7-0.7,1.8,0.1,2.5L43-13.9c0.3,0.3,0.8,0.5,1.2,0.5C44.7-13.4,45.2-13.6,45.5-14z"/>
	</g>
	<g id="Thin-M" transform="matrix(1 0 0 1 799.828 1126)">
		<path d="M17.7-29.8c-6,0-10.8-4.9-10.8-10.8s4.9-10.8,10.8-10.8s10.8,4.9,10.8,10.8S23.7-29.8,17.7-29.8z M25.5-40.6
			c0,4.3-3.5,7.8-7.8,7.8s-7.8-3.5-7.8-7.8s3.5-7.8,7.8-7.8S25.5-44.9,25.5-40.6z M60.8,13.7c-7.3,0-13.3-6-13.3-13.3
			s6-13.3,13.3-13.3S74-6.9,74,0.5S68.1,13.7,60.8,13.7z M71,0.5c0,5.6-4.6,10.2-10.2,10.2S50.5,6.1,50.5,0.5S55.1-9.7,60.8-9.7
			S71-5.2,71,0.5z M88.2-47.9c-10,0-18.2-8.2-18.2-18.2s8.2-18.2,18.2-18.2s18.2,8.2,18.2,18.2S98.2-47.9,88.2-47.9z M103.3-66.1
			c0,8.3-6.8,15.1-15.1,15.1s-15.1-6.8-15.1-15.1s6.8-15.1,15.1-15.1S103.3-74.4,103.3-66.1z M41.2-47.5l17.7-6.2
			c0.8-0.3,1.2-1.2,0.9-2c-0.3-0.8-1.2-1.2-2-0.9l-17.7,6.2c-0.8,0.3-1.2,1.2-0.9,2c0.2,0.6,0.8,1,1.5,1
			C40.9-47.4,41-47.4,41.2-47.5z M71.5-21l6.7-16c0.3-0.8,0-1.7-0.8-2c-0.8-0.3-1.7,0-2,0.8l-6.7,16c-0.3,0.8,0,1.7,0.8,2
			c0.2,0.1,0.4,0.1,0.6,0.1C70.7-20,71.2-20.4,71.5-21z M44.5-14.5c0.6-0.6,0.6-1.6-0.1-2.2l-10.6-10c-0.6-0.6-1.6-0.6-2.2,0.1
			c-0.6,0.6-0.6,1.6,0.1,2.2l10.6,10c0.3,0.3,0.7,0.4,1.1,0.4C43.7-14,44.1-14.2,44.5-14.5z"/>
	</g>
	<g id="Ultralight-M" transform="matrix(1 0 0 1 503.679 1126)">
		<path d="M17.8-30.1c-5.8,0-10.4-4.7-10.4-10.4S12-51,17.8-51s10.4,4.7,10.4,10.4S23.5-30.1,17.8-30.1z M25.6-40.6
			c0,4.3-3.5,7.8-7.8,7.8s-7.8-3.5-7.8-7.8s3.5-7.8,7.8-7.8S25.6-44.9,25.6-40.6z M60.1,12.7C53,12.7,47.3,7,47.3-0.1S53-13,60.1-13
			S73-7.2,73-0.1S67.2,12.7,60.1,12.7z M70.4-0.1c0,5.7-4.6,10.3-10.3,10.3S49.9,5.5,49.9-0.1s4.6-10.3,10.3-10.3S70.4-5.8,70.4-0.1
			z M87.1-47.9c-9.7,0-17.7-7.9-17.7-17.7s7.9-17.7,17.7-17.7s17.7,7.9,17.7,17.7S96.8-47.9,87.1-47.9z M102.2-65.6
			c0,8.3-6.8,15.1-15.1,15.1S72-57.3,72-65.6s6.8-15.1,15.1-15.1S102.2-73.9,102.2-65.6z M40.8-47.5l17.4-6.1c0.7-0.2,1-1,0.8-1.7
			c-0.2-0.7-1-1-1.7-0.8L40-50c-0.7,0.2-1,1-0.8,1.7c0.2,0.5,0.7,0.9,1.2,0.9C40.5-47.4,40.7-47.5,40.8-47.5z M70.5-21.3L77.1-37
			c0.3-0.7,0-1.4-0.7-1.7c-0.7-0.3-1.4,0-1.7,0.7l-6.6,15.7c-0.3,0.7,0,1.4,0.7,1.7c0.2,0.1,0.3,0.1,0.5,0.1
			C69.8-20.5,70.3-20.8,70.5-21.3z M43.9-15c0.5-0.5,0.5-1.3,0-1.8l-10.4-9.9c-0.5-0.5-1.3-0.5-1.8,0c-0.5,0.5-0.5,1.3,0,1.8
			l10.4,9.9c0.3,0.2,0.6,0.4,0.9,0.4C43.3-14.5,43.7-14.7,43.9-15z"/>
	</g>
	<g id="Black-S" transform="matrix(1 0 0 1 2884.57 696)">
		<path d="M15.1-29.2C9.2-29.2,4.4-34,4.4-39.9s4.8-10.7,10.7-10.7s10.7,4.8,10.7,10.7S21-29.2,15.1-29.2z M20.5-39.9
			c0,3-2.4,5.4-5.4,5.4s-5.4-2.4-5.4-5.4c0-3,2.4-5.4,5.4-5.4S20.5-42.9,20.5-39.9z M52.4,8.6c-7.1,0-12.9-5.8-12.9-12.9
			s5.8-12.9,12.9-12.9s12.9,5.8,12.9,12.9S59.5,8.6,52.4,8.6z M60-4.3c0,4.1-3.4,7.5-7.5,7.5s-7.5-3.4-7.5-7.5s3.4-7.5,7.5-7.5
			S60-8.4,60-4.3z M76.2-44.9c-9.4,0-17.1-7.7-17.1-17.1s7.7-17.1,17.1-17.1S93.3-71.4,93.3-62S85.6-44.9,76.2-44.9z M88-62
			c0,6.5-5.3,11.8-11.8,11.8c-6.5,0-11.8-5.3-11.8-11.8s5.3-11.8,11.8-11.8C82.7-73.8,88-68.5,88-62z M35.9-44.6L51.3-50
			c1.4-0.5,2.1-2,1.6-3.4c-0.5-1.4-2-2.1-3.4-1.6l-15.4,5.4c-1.4,0.5-2.1,2-1.6,3.4c0.4,1.1,1.4,1.8,2.5,1.8
			C35.3-44.5,35.6-44.5,35.9-44.6z M63-22.3l5.8-13.9c0.6-1.4-0.1-2.9-1.4-3.5c-1.4-0.6-2.9,0.1-3.5,1.4L58-24.4
			c-0.6,1.4,0.1,2.9,1.4,3.5c0.3,0.1,0.7,0.2,1,0.2C61.5-20.7,62.5-21.3,63-22.3z M39.3-16.3c1-1.1,1-2.8-0.1-3.8L30-28.8
			c-1.1-1-2.8-1-3.8,0.1c-1,1.1-1,2.8,0.1,3.8l9.2,8.7c0.5,0.5,1.2,0.7,1.8,0.7C38-15.5,38.7-15.7,39.3-16.3z"/>
	</g>
	<g id="Heavy-S" transform="matrix(1 0 0 1 2588.47 696)">
		<path d="M14.9-29.5c-5.7,0-10.4-4.7-10.4-10.4s4.7-10.4,10.4-10.4s10.4,4.7,10.4,10.4S20.7-29.5,14.9-29.5z M20.4-39.9
			c0,3-2.5,5.5-5.5,5.5s-5.5-2.5-5.5-5.5s2.5-5.5,5.5-5.5S20.4-42.9,20.4-39.9z M51.8,7.8c-6.9,0-12.5-5.6-12.5-12.5
			s5.6-12.5,12.5-12.5s12.5,5.6,12.5,12.5S58.7,7.8,51.8,7.8z M59.4-4.7c0,4.2-3.4,7.6-7.6,7.6s-7.6-3.4-7.6-7.6s3.4-7.6,7.6-7.6
			S59.4-8.9,59.4-4.7z M75.2-45c-9.2,0-16.7-7.5-16.7-16.7S66-78.3,75.2-78.3s16.7,7.5,16.7,16.7S84.4-45,75.2-45z M87-61.6
			c0,6.5-5.3,11.8-11.8,11.8s-11.8-5.3-11.8-11.8s5.3-11.8,11.8-11.8S87-68.1,87-61.6z M35.4-44.7L50.6-50c1.3-0.4,1.9-1.8,1.5-3.1
			c-0.4-1.3-1.8-1.9-3.1-1.5l-15.2,5.3c-1.3,0.4-1.9,1.8-1.5,3.1c0.4,1,1.3,1.6,2.3,1.6C34.9-44.5,35.2-44.6,35.4-44.7z M62-22.6
			l5.8-13.7c0.5-1.2-0.1-2.7-1.3-3.2c-1.2-0.5-2.7,0.1-3.2,1.3l-5.8,13.7c-0.5,1.2,0.1,2.7,1.3,3.2c0.3,0.1,0.6,0.2,0.9,0.2
			C60.7-21.1,61.6-21.6,62-22.6z M38.6-16.7c0.9-1,0.9-2.5-0.1-3.5l-9-8.6c-1-0.9-2.5-0.9-3.5,0.1c-0.9,1-0.9,2.5,0.1,3.5l9,8.6
			c0.5,0.4,1.1,0.7,1.7,0.7C37.5-15.9,38.2-16.2,38.6-16.7z"/>
	</g>
	<g id="Bold-S" transform="matrix(1 0 0 1 2292.43 696)">
		<path d="M14.7-29.7c-5.6,0-10.1-4.5-10.1-10.1s4.5-10.1,10.1-10.1s10.1,4.5,10.1,10.1S20.3-29.7,14.7-29.7z M20.3-39.8
			c0,3.1-2.5,5.6-5.6,5.6s-5.6-2.5-5.6-5.6c0-3.1,2.5-5.6,5.6-5.6S20.3-42.9,20.3-39.8z M51.1,7C44.4,7,38.9,1.6,38.9-5.1
			s5.4-12.1,12.1-12.1s12.1,5.4,12.1,12.1S57.7,7,51.1,7z M58.7-5.1c0,4.2-3.4,7.7-7.7,7.7s-7.7-3.4-7.7-7.7s3.4-7.7,7.7-7.7
			S58.7-9.3,58.7-5.1z M74.2-45c-9,0-16.3-7.3-16.3-16.3s7.3-16.3,16.3-16.3s16.3,7.3,16.3,16.3S83.1-45,74.2-45z M86-61.3
			c0,6.5-5.3,11.8-11.8,11.8s-11.8-5.3-11.8-11.8s5.3-11.8,11.8-11.8S86-67.8,86-61.3z M34.9-44.7l15-5.2c1.2-0.4,1.8-1.7,1.4-2.8
			c-0.4-1.2-1.7-1.8-2.8-1.4l-15,5.2c-1.2,0.4-1.8,1.7-1.4,2.8c0.3,0.9,1.2,1.5,2.1,1.5C34.4-44.6,34.6-44.6,34.9-44.7z M61-22.8
			l5.7-13.5c0.5-1.1-0.1-2.4-1.2-2.9c-1.1-0.5-2.4,0.1-2.9,1.2l-5.7,13.5c-0.5,1.1,0.1,2.4,1.2,2.9c0.3,0.1,0.6,0.2,0.9,0.2
			C59.8-21.5,60.6-22,61-22.8z M38-17.1c0.8-0.9,0.8-2.3-0.1-3.1L29-28.7c-0.9-0.8-2.3-0.8-3.1,0.1c-0.8,0.9-0.8,2.3,0.1,3.1
			l8.9,8.5c0.4,0.4,1,0.6,1.5,0.6C36.9-16.4,37.5-16.6,38-17.1z"/>
	</g>
	<g id="Semibold-S" transform="matrix(1 0 0 1 1996.19 696)">
		<path d="M14.7-30C9.3-30,5-34.4,5-39.7s4.4-9.7,9.7-9.7s9.7,4.4,9.7,9.7S20.1-30,14.7-30z M20.4-39.7c0,3.2-2.6,5.7-5.7,5.7
			S9-36.6,9-39.7c0-3.2,2.6-5.7,5.7-5.7S20.4-42.9,20.4-39.7z M50.5,6.2C44,6.2,38.8,1,38.8-5.5S44-17.3,50.5-17.3S62.3-12,62.3-5.5
			S57,6.2,50.5,6.2z M58.3-5.5c0,4.3-3.5,7.8-7.8,7.8s-7.8-3.5-7.8-7.8s3.5-7.8,7.8-7.8S58.3-9.8,58.3-5.5z M73.3-45
			c-8.7,0-15.9-7.1-15.9-15.9s7.1-15.9,15.9-15.9s15.9,7.1,15.9,15.9S82.1-45,73.3-45z M85.2-60.9c0,6.5-5.3,11.8-11.8,11.8
			s-11.8-5.3-11.8-11.8s5.3-11.8,11.8-11.8S85.2-67.4,85.2-60.9z M34.5-44.8l14.7-5.2c1-0.4,1.6-1.5,1.2-2.6c-0.4-1-1.5-1.6-2.6-1.2
			l-14.7,5.2c-1,0.4-1.6,1.5-1.2,2.6c0.3,0.8,1.1,1.3,1.9,1.3C34.1-44.6,34.3-44.7,34.5-44.8z M60.1-23.1l5.6-13.3
			c0.4-1,0-2.2-1.1-2.6c-1-0.4-2.2,0-2.6,1.1l-5.6,13.3c-0.4,1,0,2.2,1.1,2.6c0.3,0.1,0.5,0.2,0.8,0.2
			C59.1-21.8,59.8-22.3,60.1-23.1z M37.5-17.5c0.8-0.8,0.7-2.1-0.1-2.8l-8.8-8.4c-0.8-0.8-2.1-0.7-2.8,0.1c-0.8,0.8-0.7,2.1,0.1,2.8
			l8.8,8.4c0.4,0.4,0.9,0.6,1.4,0.6C36.6-16.8,37.1-17,37.5-17.5z"/>
	</g>
	<g id="Medium-S" transform="matrix(1 0 0 1 1699.83 696)">
		<path d="M14.8-30.2c-5.2,0-9.4-4.2-9.4-9.4s4.2-9.4,9.4-9.4s9.4,4.2,9.4,9.4S20-30.2,14.8-30.2z M20.7-39.7c0,3.2-2.6,5.8-5.8,5.8
			S9-36.5,9-39.7s2.6-5.8,5.8-5.8S20.7-42.9,20.7-39.7z M50.1,5.5C43.8,5.5,38.7,0.3,38.7-6s5.1-11.4,11.4-11.4S61.6-12.3,61.6-6
			S56.4,5.5,50.1,5.5z M58-6c0,4.3-3.5,7.8-7.8,7.8S42.3-1.7,42.3-6s3.5-7.8,7.8-7.8S58-10.3,58-6z M72.6-45.1
			c-8.5,0-15.4-6.9-15.4-15.4S64.1-76,72.6-76S88-69,88-60.5S81.1-45.1,72.6-45.1z M84.4-60.5c0,6.5-5.3,11.8-11.8,11.8
			S60.8-54,60.8-60.5s5.3-11.8,11.8-11.8S84.4-67.1,84.4-60.5z M34.3-44.8l14.5-5.1c0.9-0.3,1.4-1.4,1.1-2.3
			c-0.3-0.9-1.4-1.4-2.3-1.1l-14.5,5.1c-0.9,0.3-1.4,1.4-1.1,2.3c0.3,0.7,1,1.2,1.7,1.2C33.9-44.7,34.1-44.7,34.3-44.8z M59.4-23.3
			l5.5-13.1c0.4-0.9,0-2-1-2.4c-0.9-0.4-2,0-2.4,1l-5.5,13.1c-0.4,0.9,0,2,1,2.4c0.2,0.1,0.5,0.1,0.7,0.1
			C58.5-22.2,59.1-22.6,59.4-23.3z M37.2-17.8c0.7-0.7,0.7-1.9-0.1-2.5l-8.7-8.2c-0.7-0.7-1.9-0.7-2.5,0.1c-0.7,0.7-0.7,1.9,0.1,2.5
			l8.7,8.2c0.3,0.3,0.8,0.5,1.2,0.5C36.3-17.3,36.8-17.5,37.2-17.8z"/>
	</g>
	<g id="Regular-S" transform="matrix(1 0 0 1 1403.58 696)">
		<path d="M14.8-30.5c-5,0-9.1-4.1-9.1-9.1s4.1-9.1,9.1-9.1s9.1,4.1,9.1,9.1S19.9-30.5,14.8-30.5z M20.8-39.6c0,3.3-2.7,5.9-5.9,5.9
			s-5.9-2.7-5.9-5.9c0-3.3,2.7-5.9,5.9-5.9S20.8-42.9,20.8-39.6z M49.6,4.7c-6.1,0-11.1-5-11.1-11.1s5-11.1,11.1-11.1
			s11.1,5,11.1,11.1S55.7,4.7,49.6,4.7z M57.5-6.4c0,4.3-3.5,7.9-7.9,7.9s-7.9-3.5-7.9-7.9s3.5-7.9,7.9-7.9S57.5-10.8,57.5-6.4z
			 M71.8-45.1c-8.3,0-15-6.7-15-15s6.7-15,15-15s15,6.7,15,15S80-45.1,71.8-45.1z M83.6-60.2c0,6.5-5.3,11.8-11.8,11.8
			c-6.5,0-11.8-5.3-11.8-11.8c0-6.5,5.3-11.8,11.8-11.8C78.3-72,83.6-66.7,83.6-60.2z M33.9-44.8l14.3-5c0.8-0.3,1.3-1.2,1-2
			c-0.3-0.8-1.2-1.3-2-1l-14.3,5c-0.8,0.3-1.3,1.2-1,2c0.2,0.7,0.8,1.1,1.5,1.1C33.6-44.7,33.8-44.7,33.9-44.8z M58.6-23.6L64-36.5
			c0.3-0.8,0-1.8-0.9-2.1c-0.8-0.3-1.8,0-2.1,0.9l-5.4,12.9c-0.3,0.8,0,1.8,0.9,2.1c0.2,0.1,0.4,0.1,0.6,0.1
			C57.8-22.6,58.3-23,58.6-23.6z M36.7-18.2c0.6-0.6,0.6-1.7-0.1-2.3l-8.5-8.1c-0.6-0.6-1.7-0.6-2.3,0.1c-0.6,0.6-0.6,1.7,0.1,2.3
			l8.5,8.1c0.3,0.3,0.7,0.4,1.1,0.4C36-17.7,36.4-17.9,36.7-18.2z"/>
	</g>
	<g id="Light-S" transform="matrix(1 0 0 1 1107.6 696)">
		<path d="M14.6-30.7c-4.8,0-8.8-3.9-8.8-8.8s3.9-8.8,8.8-8.8s8.8,3.9,8.8,8.8S19.4-30.7,14.6-30.7z M20.6-39.5c0,3.3-2.7,6-6,6
			s-6-2.7-6-6c0-3.3,2.7-6,6-6S20.6-42.8,20.6-39.5z M48.8,3.9c-5.9,0-10.7-4.8-10.7-10.7s4.8-10.7,10.7-10.7s10.7,4.8,10.7,10.7
			S54.8,3.9,48.8,3.9z M56.8-6.8c0,4.4-3.6,7.9-7.9,7.9s-7.9-3.6-7.9-7.9s3.6-7.9,7.9-7.9S56.8-11.2,56.8-6.8z M70.6-45.1
			c-8.1,0-14.6-6.6-14.6-14.6s6.6-14.6,14.6-14.6s14.6,6.6,14.6,14.6S78.7-45.1,70.6-45.1z M82.5-59.8c0,6.5-5.3,11.8-11.8,11.8
			c-6.5,0-11.8-5.3-11.8-11.8s5.3-11.8,11.8-11.8C77.2-71.6,82.5-66.3,82.5-59.8z M33.3-44.8l14.1-4.9c0.7-0.3,1.1-1.1,0.9-1.8
			c-0.3-0.7-1.1-1.1-1.8-0.9l-14.1,4.9c-0.7,0.3-1.1,1.1-0.9,1.8c0.2,0.6,0.7,0.9,1.3,0.9C33-44.8,33.2-44.8,33.3-44.8z M57.5-23.8
			l5.3-12.7c0.3-0.7,0-1.5-0.7-1.8c-0.7-0.3-1.5,0-1.8,0.7l-5.3,12.7c-0.3,0.7,0,1.5,0.7,1.8c0.2,0.1,0.4,0.1,0.5,0.1
			C56.8-23,57.3-23.3,57.5-23.8z M36-18.6c0.5-0.6,0.5-1.4-0.1-2l-8.4-8c-0.6-0.5-1.4-0.5-2,0.1c-0.5,0.6-0.5,1.4,0.1,2l8.4,8
			c0.3,0.3,0.6,0.4,1,0.4C35.4-18.2,35.7-18.3,36-18.6z"/>
	</g>
	<g id="Thin-S" transform="matrix(1 0 0 1 811.863 696)">
		<path d="M14.1-31c-4.7,0-8.5-3.8-8.5-8.5S9.4-48,14.1-48s8.5,3.8,8.5,8.5S18.8-31,14.1-31z M20.2-39.5c0,3.3-2.7,6.1-6.1,6.1
			S8-36.1,8-39.5s2.7-6.1,6.1-6.1S20.2-42.8,20.2-39.5z M47.8,3.1c-5.7,0-10.4-4.7-10.4-10.4s4.7-10.4,10.4-10.4S58.2-13,58.2-7.3
			S53.6,3.1,47.8,3.1z M55.8-7.3c0,4.4-3.6,8-8,8s-8-3.6-8-8s3.6-8,8-8S55.8-11.7,55.8-7.3z M69.3-45.2c-7.8,0-14.2-6.4-14.2-14.2
			s6.4-14.2,14.2-14.2s14.2,6.4,14.2,14.2S77.1-45.2,69.3-45.2z M81.1-59.4c0,6.5-5.3,11.8-11.8,11.8c-6.5,0-11.8-5.3-11.8-11.8
			c0-6.5,5.3-11.8,11.8-11.8C75.8-71.2,81.1-65.9,81.1-59.4z M32.5-44.8l13.9-4.9c0.6-0.2,1-0.9,0.7-1.5c-0.2-0.6-0.9-1-1.5-0.7
			l-13.9,4.9c-0.6,0.2-1,0.9-0.7,1.5c0.2,0.5,0.6,0.8,1.1,0.8C32.2-44.8,32.4-44.8,32.5-44.8z M56.2-24.1l5.3-12.5
			c0.3-0.6,0-1.3-0.6-1.6c-0.6-0.3-1.3,0-1.6,0.6L54-25c-0.3,0.6,0,1.3,0.6,1.6c0.2,0.1,0.3,0.1,0.5,0.1
			C55.6-23.3,56-23.6,56.2-24.1z M35.1-19c0.5-0.5,0.4-1.2,0-1.7l-8.3-7.9c-0.5-0.5-1.2-0.4-1.7,0c-0.5,0.5-0.4,1.2,0,1.7l8.3,7.9
			c0.2,0.2,0.5,0.3,0.8,0.3C34.5-18.6,34.8-18.7,35.1-19z"/>
	</g>
	<g id="Ultralight-S" transform="matrix(1 0 0 1 515.649 696)">
		<path d="M14.1-31.2c-4.5,0-8.2-3.7-8.2-8.2s3.7-8.2,8.2-8.2s8.2,3.7,8.2,8.2S18.6-31.2,14.1-31.2z M20.2-39.4
			c0,3.4-2.8,6.1-6.1,6.1S7.9-36,7.9-39.4s2.8-6.1,6.1-6.1S20.2-42.8,20.2-39.4z M47.3,2.3c-5.5,0-10.1-4.5-10.1-10.1
			s4.5-10.1,10.1-10.1s10.1,4.5,10.1,10.1S52.8,2.3,47.3,2.3z M55.3-7.7c0,4.4-3.6,8-8,8s-8-3.6-8-8s3.6-8,8-8S55.3-12.2,55.3-7.7z
			 M68.4-45.2c-7.6,0-13.8-6.2-13.8-13.8s6.2-13.8,13.8-13.8S82.2-66.6,82.2-59S76-45.2,68.4-45.2z M80.2-59
			c0,6.5-5.3,11.8-11.8,11.8c-6.5,0-11.8-5.3-11.8-11.8c0-6.5,5.3-11.8,11.8-11.8C74.9-70.8,80.2-65.5,80.2-59z M32.1-44.9l13.7-4.8
			c0.5-0.2,0.8-0.8,0.6-1.3c-0.2-0.5-0.8-0.8-1.3-0.6l-13.7,4.8c-0.5,0.2-0.8,0.8-0.6,1.3c0.1,0.4,0.5,0.7,1,0.7
			C31.9-44.8,32-44.8,32.1-44.9z M55.4-24.3l5.2-12.3c0.2-0.5,0-1.1-0.5-1.3c-0.5-0.2-1.1,0-1.3,0.5l-5.2,12.3
			c-0.2,0.5,0,1.1,0.5,1.3c0.1,0.1,0.3,0.1,0.4,0.1C54.8-23.7,55.2-23.9,55.4-24.3z M34.6-19.4c0.4-0.4,0.4-1,0-1.4l-8.1-7.7
			c-0.4-0.4-1.1-0.4-1.4,0c-0.4,0.4-0.4,1,0,1.4l8.1,7.7c0.2,0.2,0.4,0.3,0.7,0.3C34.1-19,34.4-19.1,34.6-19.4z"/>
	</g>
</g>
</svg>
